<?xml version="1.0" encoding="utf-8"?>
<!-- Generator: Adobe Illustrator 18.0.0, SVG Export Plug-In . SVG Version: 6.00 Build 0)  -->
<!DOCTYPE svg PUBLIC "-//W3C//DTD SVG 1.1//EN" "http://www.w3.org/Graphics/SVG/1.1/DTD/svg11.dtd">
<svg version="1.1" id="Layer_1" xmlns="http://www.w3.org/2000/svg" xmlns:xlink="http://www.w3.org/1999/xlink" x="0px" y="0px"
	 viewBox="0 0 536.1 256.9" width="536.1" height="256.9" enable-background="new 0 0 536.1 256.9" xml:space="preserve">
<g>
	<g>
		<g>
			<polygon fill="#FFFFFF" points="128.5,250 117.9,250 117.9,243.9 			"/>
			<polygon fill="#FFFFFF" points="128.5,229 117.9,229 117.9,235 			"/>
		</g>
		<g>
			<polygon fill="#FFFFFF" points="134.2,247.6 126,247.6 126,242.9 			"/>
			<polygon fill="#FFFFFF" points="134.2,231.3 126,231.3 126,236 			"/>
		</g>
		<path fill="#019547" d="M146.1,239.5L146.1,239.5c0,3-2.2,5.5-5.1,6l-42.3,6.7v-25.5l42.3,6.7
			C143.9,233.9,146.1,236.5,146.1,239.5z"/>
		<rect x="51.4" y="226.7" fill="#34B44A" width="47.2" height="25.5"/>
		<path fill="#03AF4D" d="M144.3,239.5L144.3,239.5c0,3-2.1,5.5-4.9,6l-40.7,6.7v-25.5l40.7,6.7
			C142.2,233.9,144.3,236.5,144.3,239.5z"/>
		<path fill="#03AF4D" d="M51.4,226.7v25.5l-50-11.3c-0.9-0.1-1.5-0.8-1.5-1.5l0,0c0-0.7,0.6-1.3,1.5-1.5L51.4,226.7z"/>
		<path fill="#03AF4D" d="M101.7,224.4L101.7,224.4c0,1.3-1.1,2.4-2.4,2.4H86.6c-1.3,0-2.4-1.1-2.4-2.4l0,0c0-1.3,1.1-2.4,2.4-2.4
			h12.7C100.6,222,101.7,223.1,101.7,224.4z"/>
		<path fill="#03AF4D" d="M101.7,254.6L101.7,254.6c0,1.3-1.1,2.4-2.4,2.4H86.6c-1.3,0-2.4-1.1-2.4-2.4l0,0c0-1.3,1.1-2.4,2.4-2.4
			h12.7C100.6,252.2,101.7,253.3,101.7,254.6z"/>
		<path fill="#03AF4D" d="M61.2,224.4L61.2,224.4c0,1.3-1.1,2.4-2.4,2.4H46.1c-1.3,0-2.4-1.1-2.4-2.4l0,0c0-1.3,1.1-2.4,2.4-2.4
			h12.7C60.2,222,61.2,223.1,61.2,224.4z"/>
		<path fill="#03AF4D" d="M61.2,254.6L61.2,254.6c0,1.3-1.1,2.4-2.4,2.4H46.1c-1.3,0-2.4-1.1-2.4-2.4l0,0c0-1.3,1.1-2.4,2.4-2.4
			h12.7C60.2,252.2,61.2,253.3,61.2,254.6z"/>
		<g>
			<circle fill="#03AF4D" cx="119" cy="248" r="3.5"/>
			<circle fill="#03AF4D" cx="119" cy="231.3" r="3.5"/>
		</g>
		<circle fill="#FFFFFF" cx="119" cy="248" r="2.2"/>
		<circle fill="#FFFFFF" cx="119" cy="231.3" r="2.2"/>
		<circle fill="#26282F" cx="119" cy="248" r="1.1"/>
		<circle fill="#26282F" cx="119" cy="231.3" r="1.1"/>
		<rect x="75.3" y="237.4" fill="#03AF4D" width="13.4" height="4"/>
		<rect x="98.7" y="237.4" fill="#34B44A" width="9.2" height="4"/>
		<rect x="93" y="237.4" fill="#03AF4D" width="5.7" height="4"/>
		<rect x="41.4" y="237.4" fill="#03AF4D" width="13.4" height="4"/>
		<rect x="59" y="237.4" fill="#03AF4D" width="13.4" height="4"/>
		<rect x="39.5" y="237.4" fill="#34B44A" width="12" height="4"/>
	</g>
	<g>
		<g>
			<polygon fill="#FFFFFF" points="128.5,28 117.9,28 117.9,21.9 			"/>
			<polygon fill="#FFFFFF" points="128.5,7 117.9,7 117.9,13 			"/>
		</g>
		<g>
			<polygon fill="#FFFFFF" points="134.2,25.6 126,25.6 126,20.9 			"/>
			<polygon fill="#FFFFFF" points="134.2,9.3 126,9.3 126,14 			"/>
		</g>
		<path fill="#019547" d="M146.1,17.5L146.1,17.5c0,3-2.2,5.5-5.1,6l-42.3,6.7V4.7l42.3,6.7C143.9,11.9,146.1,14.5,146.1,17.5z"/>
		<rect x="51.4" y="4.7" fill="#34B44A" width="47.2" height="25.5"/>
		<path fill="#03AF4D" d="M144.3,17.5L144.3,17.5c0,3-2.1,5.5-4.9,6l-40.7,6.7V4.7l40.7,6.7C142.2,11.9,144.3,14.5,144.3,17.5z"/>
		<path fill="#03AF4D" d="M51.4,4.7v25.5l-50-11.3C0.6,18.8,0,18.2,0,17.5v0c0-0.7,0.6-1.3,1.5-1.5L51.4,4.7z"/>
		<path fill="#03AF4D" d="M101.7,2.4L101.7,2.4c0,1.3-1.1,2.4-2.4,2.4H86.6c-1.3,0-2.4-1.1-2.4-2.4v0c0-1.3,1.1-2.4,2.4-2.4l12.7,0
			C100.6,0,101.7,1.1,101.7,2.4z"/>
		<path fill="#03AF4D" d="M101.7,32.6L101.7,32.6c0,1.3-1.1,2.4-2.4,2.4H86.6c-1.3,0-2.4-1.1-2.4-2.4v0c0-1.3,1.1-2.4,2.4-2.4h12.7
			C100.6,30.2,101.7,31.3,101.7,32.6z"/>
		<path fill="#03AF4D" d="M61.2,2.4L61.2,2.4c0,1.3-1.1,2.4-2.4,2.4H46.1c-1.3,0-2.4-1.1-2.4-2.4v0c0-1.3,1.1-2.4,2.4-2.4l12.7,0
			C60.2,0,61.2,1.1,61.2,2.4z"/>
		<path fill="#03AF4D" d="M61.2,32.6L61.2,32.6c0,1.3-1.1,2.4-2.4,2.4H46.1c-1.3,0-2.4-1.1-2.4-2.4v0c0-1.3,1.1-2.4,2.4-2.4h12.7
			C60.2,30.2,61.2,31.3,61.2,32.6z"/>
		<g>
			<circle fill="#03AF4D" cx="119" cy="26" r="3.5"/>
			<circle fill="#03AF4D" cx="119" cy="9.3" r="3.5"/>
		</g>
		<circle fill="#FFFFFF" cx="119" cy="26" r="2.2"/>
		<circle fill="#FFFFFF" cx="119" cy="9.3" r="2.2"/>
		<circle fill="#26282F" cx="119" cy="26" r="1.1"/>
		<circle fill="#26282F" cx="119" cy="9.3" r="1.1"/>
		<rect x="75.3" y="15.4" fill="#03AF4D" width="13.4" height="4"/>
		<rect x="98.7" y="15.4" fill="#34B44A" width="9.2" height="4"/>
		<rect x="93" y="15.4" fill="#03AF4D" width="5.7" height="4"/>
		<rect x="41.4" y="15.4" fill="#03AF4D" width="13.4" height="4"/>
		<rect x="59" y="15.4" fill="#03AF4D" width="13.4" height="4"/>
		<rect x="39.5" y="15.4" fill="#34B44A" width="12" height="4"/>
	</g>
	<g>
		<g>
			<polygon fill="#FFFFFF" points="319.5,250 308.9,250 308.9,243.9 			"/>
			<polygon fill="#FFFFFF" points="319.5,229 308.9,229 308.9,235 			"/>
		</g>
		<g>
			<polygon fill="#FFFFFF" points="325.2,247.6 317,247.6 317,242.9 			"/>
			<polygon fill="#FFFFFF" points="325.2,231.3 317,231.3 317,236 			"/>
		</g>
		<path fill="#019547" d="M337.1,239.5L337.1,239.5c0,3-2.2,5.5-5.1,6l-42.3,6.7v-25.5l42.3,6.7
			C334.9,233.9,337.1,236.5,337.1,239.5z"/>
		<rect x="242.4" y="226.7" fill="#34B44A" width="47.2" height="25.5"/>
		<path fill="#03AF4D" d="M335.3,239.5L335.3,239.5c0,3-2.1,5.5-4.9,6l-40.7,6.7v-25.5l40.7,6.7
			C333.2,233.9,335.3,236.5,335.3,239.5z"/>
		<path fill="#03AF4D" d="M242.4,226.7v25.5l-50-11.3c-0.9-0.1-1.5-0.8-1.5-1.5l0,0c0-0.7,0.6-1.3,1.5-1.5L242.4,226.7z"/>
		<path fill="#03AF4D" d="M292.7,224.4L292.7,224.4c0,1.3-1.1,2.4-2.4,2.4h-12.7c-1.3,0-2.4-1.1-2.4-2.4l0,0c0-1.3,1.1-2.4,2.4-2.4
			h12.7C291.6,222,292.7,223.1,292.7,224.4z"/>
		<path fill="#03AF4D" d="M292.7,254.6L292.7,254.6c0,1.3-1.1,2.4-2.4,2.4h-12.7c-1.3,0-2.4-1.1-2.4-2.4l0,0c0-1.3,1.1-2.4,2.4-2.4
			h12.7C291.6,252.2,292.7,253.3,292.7,254.6z"/>
		<path fill="#03AF4D" d="M252.2,224.4L252.2,224.4c0,1.3-1.1,2.4-2.4,2.4h-12.7c-1.3,0-2.4-1.1-2.4-2.4l0,0c0-1.3,1.1-2.4,2.4-2.4
			h12.7C251.2,222,252.2,223.1,252.2,224.4z"/>
		<path fill="#03AF4D" d="M252.2,254.6L252.2,254.6c0,1.3-1.1,2.4-2.4,2.4h-12.7c-1.3,0-2.4-1.1-2.4-2.4l0,0c0-1.3,1.1-2.4,2.4-2.4
			h12.7C251.2,252.2,252.2,253.3,252.2,254.6z"/>
		<g>
			<circle fill="#03AF4D" cx="310" cy="248" r="3.5"/>
			<circle fill="#03AF4D" cx="310" cy="231.3" r="3.5"/>
		</g>
		<circle fill="#FFFFFF" cx="310" cy="248" r="2.2"/>
		<circle fill="#FFFFFF" cx="310" cy="231.3" r="2.2"/>
		<circle fill="#26282F" cx="310" cy="248" r="1.1"/>
		<circle fill="#26282F" cx="310" cy="231.3" r="1.1"/>
		<rect x="266.3" y="237.4" fill="#03AF4D" width="13.4" height="4"/>
		<rect x="289.7" y="237.4" fill="#34B44A" width="9.2" height="4"/>
		<rect x="284" y="237.4" fill="#03AF4D" width="5.7" height="4"/>
		<rect x="232.4" y="237.4" fill="#03AF4D" width="13.4" height="4"/>
		<rect x="250" y="237.4" fill="#03AF4D" width="13.4" height="4"/>
		<rect x="230.5" y="237.4" fill="#34B44A" width="12" height="4"/>
	</g>
	<g>
		<g>
			<polygon fill="#FFFFFF" points="319.5,28 308.9,28 308.9,21.9 			"/>
			<polygon fill="#FFFFFF" points="319.5,7 308.9,7 308.9,13 			"/>
		</g>
		<g>
			<polygon fill="#FFFFFF" points="325.2,25.6 317,25.6 317,20.9 			"/>
			<polygon fill="#FFFFFF" points="325.2,9.3 317,9.3 317,14 			"/>
		</g>
		<path fill="#019547" d="M337.1,17.5L337.1,17.5c0,3-2.2,5.5-5.1,6l-42.3,6.7V4.7l42.3,6.7C334.9,11.9,337.1,14.5,337.1,17.5z"/>
		<rect x="242.4" y="4.7" fill="#34B44A" width="47.2" height="25.5"/>
		<path fill="#03AF4D" d="M335.3,17.5L335.3,17.5c0,3-2.1,5.5-4.9,6l-40.7,6.7V4.7l40.7,6.7C333.2,11.9,335.3,14.5,335.3,17.5z"/>
		<path fill="#03AF4D" d="M242.4,4.7v25.5l-50-11.3c-0.9-0.1-1.5-0.8-1.5-1.5v0c0-0.7,0.6-1.3,1.5-1.5L242.4,4.7z"/>
		<path fill="#03AF4D" d="M292.7,2.4L292.7,2.4c0,1.3-1.1,2.4-2.4,2.4h-12.7c-1.3,0-2.4-1.1-2.4-2.4v0c0-1.3,1.1-2.4,2.4-2.4l12.7,0
			C291.6,0,292.7,1.1,292.7,2.4z"/>
		<path fill="#03AF4D" d="M292.7,32.6L292.7,32.6c0,1.3-1.1,2.4-2.4,2.4h-12.7c-1.3,0-2.4-1.1-2.4-2.4v0c0-1.3,1.1-2.4,2.4-2.4h12.7
			C291.6,30.2,292.7,31.3,292.7,32.6z"/>
		<path fill="#03AF4D" d="M252.2,2.4L252.2,2.4c0,1.3-1.1,2.4-2.4,2.4h-12.7c-1.3,0-2.4-1.1-2.4-2.4v0c0-1.3,1.1-2.4,2.4-2.4l12.7,0
			C251.2,0,252.2,1.1,252.2,2.4z"/>
		<path fill="#03AF4D" d="M252.2,32.6L252.2,32.6c0,1.3-1.1,2.4-2.4,2.4h-12.7c-1.3,0-2.4-1.1-2.4-2.4v0c0-1.3,1.1-2.4,2.4-2.4h12.7
			C251.2,30.2,252.2,31.3,252.2,32.6z"/>
		<g>
			<circle fill="#03AF4D" cx="310" cy="26" r="3.5"/>
			<circle fill="#03AF4D" cx="310" cy="9.3" r="3.5"/>
		</g>
		<circle fill="#FFFFFF" cx="310" cy="26" r="2.2"/>
		<circle fill="#FFFFFF" cx="310" cy="9.3" r="2.2"/>
		<circle fill="#26282F" cx="310" cy="26" r="1.1"/>
		<circle fill="#26282F" cx="310" cy="9.3" r="1.1"/>
		<rect x="266.3" y="15.4" fill="#03AF4D" width="13.4" height="4"/>
		<rect x="289.7" y="15.4" fill="#34B44A" width="9.2" height="4"/>
		<rect x="284" y="15.4" fill="#03AF4D" width="5.7" height="4"/>
		<rect x="232.4" y="15.4" fill="#03AF4D" width="13.4" height="4"/>
		<rect x="250" y="15.4" fill="#03AF4D" width="13.4" height="4"/>
		<rect x="230.5" y="15.4" fill="#34B44A" width="12" height="4"/>
	</g>
	<g>
		<g>
			<polygon fill="#FFFFFF" points="518.5,250 507.9,250 507.9,243.9 			"/>
			<polygon fill="#FFFFFF" points="518.5,229 507.9,229 507.9,235 			"/>
		</g>
		<g>
			<polygon fill="#FFFFFF" points="524.2,247.6 516,247.6 516,242.9 			"/>
			<polygon fill="#FFFFFF" points="524.2,231.3 516,231.3 516,236 			"/>
		</g>
		<path fill="#019547" d="M536.1,239.5L536.1,239.5c0,3-2.2,5.5-5.1,6l-42.3,6.7v-25.5l42.3,6.7
			C533.9,233.9,536.1,236.5,536.1,239.5z"/>
		<rect x="441.4" y="226.7" fill="#34B44A" width="47.2" height="25.5"/>
		<path fill="#03AF4D" d="M534.3,239.5L534.3,239.5c0,3-2.1,5.5-4.9,6l-40.7,6.7v-25.5l40.7,6.7
			C532.2,233.9,534.3,236.5,534.3,239.5z"/>
		<path fill="#03AF4D" d="M441.4,226.7v25.5l-50-11.3c-0.9-0.1-1.5-0.8-1.5-1.5l0,0c0-0.7,0.6-1.3,1.5-1.5L441.4,226.7z"/>
		<path fill="#03AF4D" d="M491.7,224.4L491.7,224.4c0,1.3-1.1,2.4-2.4,2.4h-12.7c-1.3,0-2.4-1.1-2.4-2.4l0,0c0-1.3,1.1-2.4,2.4-2.4
			h12.7C490.6,222,491.7,223.1,491.7,224.4z"/>
		<path fill="#03AF4D" d="M491.7,254.6L491.7,254.6c0,1.3-1.1,2.4-2.4,2.4h-12.7c-1.3,0-2.4-1.1-2.4-2.4l0,0c0-1.3,1.1-2.4,2.4-2.4
			h12.7C490.6,252.2,491.7,253.3,491.7,254.6z"/>
		<path fill="#03AF4D" d="M451.2,224.4L451.2,224.4c0,1.3-1.1,2.4-2.4,2.4h-12.7c-1.3,0-2.4-1.1-2.4-2.4l0,0c0-1.3,1.1-2.4,2.4-2.4
			h12.7C450.2,222,451.2,223.1,451.2,224.4z"/>
		<path fill="#03AF4D" d="M451.2,254.6L451.2,254.6c0,1.3-1.1,2.4-2.4,2.4h-12.7c-1.3,0-2.4-1.1-2.4-2.4l0,0c0-1.3,1.1-2.4,2.4-2.4
			h12.7C450.2,252.2,451.2,253.3,451.2,254.6z"/>
		<g>
			<circle fill="#03AF4D" cx="509" cy="248" r="3.5"/>
			<circle fill="#03AF4D" cx="509" cy="231.3" r="3.5"/>
		</g>
		<circle fill="#FFFFFF" cx="509" cy="248" r="2.2"/>
		<circle fill="#FFFFFF" cx="509" cy="231.3" r="2.2"/>
		<circle fill="#26282F" cx="509" cy="248" r="1.1"/>
		<circle fill="#26282F" cx="509" cy="231.3" r="1.1"/>
		<rect x="465.3" y="237.4" fill="#03AF4D" width="13.4" height="4"/>
		<rect x="488.7" y="237.4" fill="#34B44A" width="9.2" height="4"/>
		<rect x="483" y="237.4" fill="#03AF4D" width="5.7" height="4"/>
		<rect x="431.4" y="237.4" fill="#03AF4D" width="13.4" height="4"/>
		<rect x="449" y="237.4" fill="#03AF4D" width="13.4" height="4"/>
		<rect x="429.5" y="237.4" fill="#34B44A" width="12" height="4"/>
	</g>
	<g>
		<g>
			<polygon fill="#FFFFFF" points="518.5,28 507.9,28 507.9,21.9 			"/>
			<polygon fill="#FFFFFF" points="518.5,7 507.9,7 507.9,13 			"/>
		</g>
		<g>
			<polygon fill="#FFFFFF" points="524.2,25.6 516,25.6 516,20.9 			"/>
			<polygon fill="#FFFFFF" points="524.2,9.3 516,9.3 516,14 			"/>
		</g>
		<path fill="#019547" d="M536.1,17.5L536.1,17.5c0,3-2.2,5.5-5.1,6l-42.3,6.7V4.7l42.3,6.7C533.9,11.9,536.1,14.5,536.1,17.5z"/>
		<rect x="441.4" y="4.7" fill="#34B44A" width="47.2" height="25.5"/>
		<path fill="#03AF4D" d="M534.3,17.5L534.3,17.5c0,3-2.1,5.5-4.9,6l-40.7,6.7V4.7l40.7,6.7C532.2,11.9,534.3,14.5,534.3,17.5z"/>
		<path fill="#03AF4D" d="M441.4,4.7v25.5l-50-11.3c-0.9-0.1-1.5-0.8-1.5-1.5v0c0-0.7,0.6-1.3,1.5-1.5L441.4,4.7z"/>
		<path fill="#03AF4D" d="M491.7,2.4L491.7,2.4c0,1.3-1.1,2.4-2.4,2.4h-12.7c-1.3,0-2.4-1.1-2.4-2.4v0c0-1.3,1.1-2.4,2.4-2.4l12.7,0
			C490.6,0,491.7,1.1,491.7,2.4z"/>
		<path fill="#03AF4D" d="M491.7,32.6L491.7,32.6c0,1.3-1.1,2.4-2.4,2.4h-12.7c-1.3,0-2.4-1.1-2.4-2.4v0c0-1.3,1.1-2.4,2.4-2.4h12.7
			C490.6,30.2,491.7,31.3,491.7,32.6z"/>
		<path fill="#03AF4D" d="M451.2,2.4L451.2,2.4c0,1.3-1.1,2.4-2.4,2.4h-12.7c-1.3,0-2.4-1.1-2.4-2.4v0c0-1.3,1.1-2.4,2.4-2.4l12.7,0
			C450.2,0,451.2,1.1,451.2,2.4z"/>
		<path fill="#03AF4D" d="M451.2,32.6L451.2,32.6c0,1.3-1.1,2.4-2.4,2.4h-12.7c-1.3,0-2.4-1.1-2.4-2.4v0c0-1.3,1.1-2.4,2.4-2.4h12.7
			C450.2,30.2,451.2,31.3,451.2,32.6z"/>
		<g>
			<circle fill="#03AF4D" cx="509" cy="26" r="3.5"/>
			<circle fill="#03AF4D" cx="509" cy="9.3" r="3.5"/>
		</g>
		<circle fill="#FFFFFF" cx="509" cy="26" r="2.2"/>
		<circle fill="#FFFFFF" cx="509" cy="9.3" r="2.2"/>
		<circle fill="#26282F" cx="509" cy="26" r="1.1"/>
		<circle fill="#26282F" cx="509" cy="9.3" r="1.1"/>
		<rect x="465.3" y="15.4" fill="#03AF4D" width="13.4" height="4"/>
		<rect x="488.7" y="15.4" fill="#34B44A" width="9.2" height="4"/>
		<rect x="483" y="15.4" fill="#03AF4D" width="5.7" height="4"/>
		<rect x="431.4" y="15.4" fill="#03AF4D" width="13.4" height="4"/>
		<rect x="449" y="15.4" fill="#03AF4D" width="13.4" height="4"/>
		<rect x="429.5" y="15.4" fill="#34B44A" width="12" height="4"/>
	</g>
</g>
</svg>
