<?xml version="1.0" encoding="utf-8"?>
<!-- Generator: Adobe Illustrator 18.0.0, SVG Export Plug-In . SVG Version: 6.00 Build 0)  -->
<!DOCTYPE svg PUBLIC "-//W3C//DTD SVG 1.1//EN" "http://www.w3.org/Graphics/SVG/1.1/DTD/svg11.dtd">
<svg version="1.1" id="Layer_1" xmlns="http://www.w3.org/2000/svg" xmlns:xlink="http://www.w3.org/1999/xlink" x="0px" y="0px"
	 viewBox="0 -9.8 648 505.5" width="648" height="505"  enable-background="new 0 -9.8 648 505.5" xml:space="preserve">
<pattern  x="18" y="640" width="109" height="103.1" patternUnits="userSpaceOnUse" id="SVGID_1_" viewBox="0 -114.8 109 103.1" overflow="visible">
	<g>
		<polygon fill="none" points="0,-11.7 109,-11.7 109,-114.8 0,-114.8 		"/>
		<g>
			<polygon fill="none" points="0,-114.8 109,-114.8 109,-11.7 0,-11.7 			"/>
			<g>
				<polygon fill="none" points="0,-114.8 109,-114.8 109,-11.7 0,-11.7 				"/>
				<g>
					<polygon fill="#8D633A" points="0,0 0,-25.8 109,-25.8 109,0 					"/>
					<path fill="none" stroke="#784D22" stroke-miterlimit="10" d="M109-19.6c-6.2,0-10.8-1.3-13.6-2.1c-2.8-0.8-7.5-2.1-13.6-2.1
						c-6.2,0-10.8,1.3-13.6,2.1c-2.8,0.8-7.5,2.1-13.6,2.1c-6.2,0-10.8-1.3-13.6-2.1c-2.8-0.8-7.5-2.1-13.6-2.1
						c-6.2,0-10.8,1.3-13.6,2.1c-2.8,0.8-7.5,2.1-13.6,2.1"/>
					<path fill="none" stroke="#784D22" stroke-miterlimit="10" d="M109-15.3c-6.2,0-10.8-1.3-13.6-2.1c-2.8-0.8-7.5-2.1-13.6-2.1
						c-6.2,0-10.8,1.3-13.6,2.1c-2.8,0.8-7.5,2.1-13.6,2.1c-6.2,0-10.8-1.3-13.6-2.1c-2.8-0.8-7.5-2.1-13.6-2.1
						c-6.2,0-10.8,1.3-13.6,2.1c-2.8,0.8-7.5,2.1-13.6,2.1"/>
					<path fill="none" stroke="#784D22" stroke-miterlimit="10" d="M109-11c-6.2,0-10.8-1.3-13.6-2.1c-2.8-0.8-7.5-2.1-13.6-2.1
						c-6.2,0-10.8,1.3-13.6,2.1c-2.8,0.8-7.5,2.1-13.6,2.1c-6.2,0-10.8-1.3-13.6-2.1c-2.8-0.8-7.5-2.1-13.6-2.1
						c-6.2,0-10.8,1.3-13.6,2.1C10.8-12.3,6.2-11,0-11"/>
				</g>
				<g>
					<polygon fill="#8D633A" points="0,-25.8 0,-51.6 109,-51.6 109,-25.8 					"/>
					<path fill="none" stroke="#784D22" stroke-miterlimit="10" d="M109-32.5c-6.2,0-10.8-1.3-13.6-2.1c-2.8-0.8-7.5-2.1-13.6-2.1
						c-6.2,0-10.8,1.3-13.6,2.1c-2.8,0.8-7.5,2.1-13.6,2.1c-6.2,0-10.8-1.3-13.6-2.1s-7.5-2.1-13.6-2.1c-6.2,0-10.8,1.3-13.6,2.1
						s-7.5,2.1-13.6,2.1"/>
					<path fill="none" stroke="#784D22" stroke-miterlimit="10" d="M109-28.2c-6.2,0-10.8-1.3-13.6-2.1c-2.8-0.8-7.5-2.1-13.6-2.1
						c-6.2,0-10.8,1.3-13.6,2.1c-2.8,0.8-7.5,2.1-13.6,2.1c-6.2,0-10.8-1.3-13.6-2.1c-2.8-0.8-7.5-2.1-13.6-2.1
						c-6.2,0-10.8,1.3-13.6,2.1s-7.5,2.1-13.6,2.1"/>
					<path fill="none" stroke="#784D22" stroke-miterlimit="10" d="M109-23.9c-6.2,0-10.8-1.3-13.6-2.1c-2.8-0.8-7.5-2.1-13.6-2.1
						c-6.2,0-10.8,1.3-13.6,2.1c-2.8,0.8-7.5,2.1-13.6,2.1c-6.2,0-10.8-1.3-13.6-2.1s-7.5-2.1-13.6-2.1c-6.2,0-10.8,1.3-13.6,2.1
						s-7.5,2.1-13.6,2.1"/>
					<path fill="none" stroke="#784D22" stroke-miterlimit="10" d="M109-45.4c-6.2,0-10.8-1.3-13.6-2.1c-2.8-0.8-7.5-2.1-13.6-2.1
						c-6.2,0-10.8,1.3-13.6,2.1c-2.8,0.8-7.5,2.1-13.6,2.1c-6.2,0-10.8-1.3-13.6-2.1s-7.5-2.1-13.6-2.1c-6.2,0-10.8,1.3-13.6,2.1
						s-7.5,2.1-13.6,2.1"/>
					<path fill="none" stroke="#784D22" stroke-miterlimit="10" d="M109-41.1c-6.2,0-10.8-1.3-13.6-2.1c-2.8-0.8-7.5-2.1-13.6-2.1
						c-6.2,0-10.8,1.3-13.6,2.1c-2.8,0.8-7.5,2.1-13.6,2.1c-6.2,0-10.8-1.3-13.6-2.1s-7.5-2.1-13.6-2.1c-6.2,0-10.8,1.3-13.6,2.1
						s-7.5,2.1-13.6,2.1"/>
					<path fill="none" stroke="#784D22" stroke-miterlimit="10" d="M109-36.8c-6.2,0-10.8-1.3-13.6-2.1S87.9-41,81.8-41
						c-6.2,0-10.8,1.3-13.6,2.1c-2.8,0.8-7.5,2.1-13.6,2.1c-6.2,0-10.8-1.3-13.6-2.1c-2.8-0.8-7.5-2.1-13.6-2.1
						c-6.2,0-10.8,1.3-13.6,2.1c-2.8,0.8-7.5,2.1-13.6,2.1"/>
				</g>
				<g>
					<polygon fill="#8D633A" points="0,-51.6 0,-77.3 109,-77.3 109,-51.6 					"/>
					<path fill="none" stroke="#784D22" stroke-miterlimit="10" d="M109-58.2c-6.2,0-10.8-1.3-13.6-2.1c-2.8-0.8-7.5-2.1-13.6-2.1
						c-6.2,0-10.8,1.3-13.6,2.1c-2.8,0.8-7.5,2.1-13.6,2.1c-6.2,0-10.8-1.3-13.6-2.1c-2.8-0.8-7.5-2.1-13.6-2.1
						c-6.2,0-10.8,1.3-13.6,2.1c-2.8,0.8-7.5,2.1-13.6,2.1"/>
					<path fill="none" stroke="#784D22" stroke-miterlimit="10" d="M109-54c-6.2,0-10.8-1.3-13.6-2.1c-2.8-0.8-7.5-2.1-13.6-2.1
						c-6.2,0-10.8,1.3-13.6,2.1c-2.8,0.8-7.5,2.1-13.6,2.1c-6.2,0-10.8-1.3-13.6-2.1s-7.5-2.1-13.6-2.1c-6.2,0-10.8,1.3-13.6,2.1
						C10.8-55.2,6.2-54,0-54"/>
					<path fill="none" stroke="#784D22" stroke-miterlimit="10" d="M109-49.7c-6.2,0-10.8-1.3-13.6-2.1c-2.8-0.9-7.5-2.2-13.7-2.2
						c-6.2,0-10.8,1.3-13.6,2.1c-2.8,0.8-7.5,2.1-13.6,2.1c-6.2,0-10.8-1.3-13.6-2.1S33.5-54,27.4-54c-6.2,0-10.8,1.3-13.6,2.1
						c-3,0.9-7.6,2.2-13.8,2.2"/>
					<path fill="none" stroke="#784D22" stroke-miterlimit="10" d="M109-71.1c-6.2,0-10.8-1.3-13.6-2.1c-2.8-0.8-7.5-2.1-13.6-2.1
						c-6.2,0-10.8,1.3-13.6,2.1c-2.8,0.8-7.5,2.1-13.6,2.1c-6.2,0-10.8-1.3-13.6-2.1c-2.8-0.8-7.5-2.1-13.6-2.1
						c-6.2,0-10.8,1.3-13.6,2.1c-2.8,0.8-7.5,2.1-13.6,2.1"/>
					<path fill="none" stroke="#784D22" stroke-miterlimit="10" d="M109-66.8c-6.2,0-10.8-1.3-13.6-2.1c-2.8-0.8-7.5-2.1-13.6-2.1
						c-6.2,0-10.8,1.3-13.6,2.1c-2.8,0.8-7.5,2.1-13.6,2.1c-6.2,0-10.8-1.3-13.6-2.1c-2.8-0.8-7.5-2.1-13.6-2.1
						c-6.2,0-10.8,1.3-13.6,2.1c-2.8,0.8-7.5,2.1-13.6,2.1"/>
					<path fill="none" stroke="#784D22" stroke-miterlimit="10" d="M109-62.5c-6.2,0-10.8-1.3-13.6-2.1c-2.8-0.8-7.5-2.1-13.6-2.1
						c-6.2,0-10.8,1.3-13.6,2.1c-2.8,0.8-7.5,2.1-13.6,2.1c-6.2,0-10.8-1.3-13.6-2.1c-2.8-0.8-7.5-2.1-13.6-2.1
						c-6.2,0-10.8,1.3-13.6,2.1c-2.8,0.8-7.5,2.1-13.6,2.1"/>
				</g>
				<g>
					<polygon fill="#8D633A" points="0,-77.3 0,-103.1 109,-103.1 109,-77.3 					"/>
					<path fill="none" stroke="#784D22" stroke-miterlimit="10" d="M109-84c-6.2,0-10.8-1.3-13.6-2.1c-2.8-0.8-7.5-2.1-13.6-2.1
						c-6.2,0-10.8,1.3-13.6,2.1c-2.8,0.8-7.5,2.1-13.6,2.1c-6.2,0-10.8-1.3-13.6-2.1c-2.8-0.8-7.5-2.1-13.6-2.1
						c-6.2,0-10.8,1.3-13.6,2.1C11.1-85.3,6.4-84,0.3-84"/>
					<path fill="none" stroke="#784D22" stroke-miterlimit="10" d="M109-79.7c-6.2,0-10.8-1.3-13.6-2.1s-7.5-2.1-13.6-2.1
						c-6.2,0-10.8,1.3-13.6,2.1c-2.8,0.8-7.5,2.1-13.6,2.1c-6.2,0-10.8-1.3-13.6-2.1c-2.8-0.8-7.5-2.1-13.6-2.1
						c-6.2,0-10.8,1.3-13.6,2.1c-2.8,0.8-7.5,2.1-13.6,2.1"/>
					<path fill="none" stroke="#784D22" stroke-miterlimit="10" d="M109-75.4c-6.2,0-10.8-1.3-13.6-2.1c-2.8-0.8-7.5-2.1-13.6-2.1
						c-6.2,0-10.8,1.3-13.6,2.1c-2.8,0.8-7.5,2.1-13.6,2.1c-6.2,0-10.8-1.3-13.6-2.1c-2.8-0.8-7.5-2.1-13.6-2.1
						c-6.2,0-10.8,1.3-13.6,2.1c-2.8,0.8-7.5,2.1-13.6,2.1"/>
					<path fill="none" stroke="#784D22" stroke-miterlimit="10" d="M109-96.9c-6.2,0-10.8-1.3-13.6-2.1s-7.5-2.1-13.6-2.1
						c-6.2,0-10.8,1.3-13.6,2.1c-2.8,0.8-7.5,2.1-13.6,2.1c-6.2,0-10.8-1.3-13.6-2.1s-7.5-2.1-13.6-2.1c-6.2,0-10.8,1.3-13.6,2.1
						c-3.1,0.8-7.7,2.1-13.9,2.1"/>
					<path fill="none" stroke="#784D22" stroke-miterlimit="10" d="M109-92.6c-6.2,0-10.8-1.3-13.6-2.1c-2.8-0.9-7.5-2.2-13.7-2.2
						c-6.2,0-10.8,1.3-13.6,2.1c-2.8,0.8-7.5,2.1-13.6,2.1c-6.2,0-10.8-1.3-13.6-2.1c-2.8-0.8-7.5-2.1-13.6-2.1
						c-6.2,0-10.8,1.3-13.6,2.1c-3,0.9-7.6,2.2-13.8,2.2"/>
					<path fill="none" stroke="#784D22" stroke-miterlimit="10" d="M109-88.3c-6.2,0-10.8-1.3-13.6-2.1c-2.8-0.8-7.5-2.1-13.6-2.1
						c-6.2,0-10.8,1.3-13.6,2.1c-2.8,0.8-7.5,2.1-13.6,2.1c-6.2,0-10.8-1.3-13.6-2.1c-2.8-0.8-7.5-2.1-13.6-2.1
						c-6.2,0-10.8,1.3-13.6,2.1c-2.8,0.8-7.5,2.1-13.6,2.1"/>
				</g>
				<g>
					<polygon fill="#8D633A" points="0,-103.1 0,-128.9 109,-128.9 109,-103.1 					"/>
					<path fill="none" stroke="#784D22" stroke-miterlimit="10" d="M109-109.8c-6.2,0-10.8-1.3-13.6-2.1c-2.8-0.8-7.5-2.1-13.6-2.1
						c-6.2,0-10.8,1.3-13.6,2.1s-7.5,2.1-13.6,2.1c-6.2,0-10.8-1.3-13.6-2.1c-2.8-0.8-7.5-2.1-13.6-2.1c-6.2,0-10.8,1.3-13.6,2.1
						s-7.5,2.1-13.6,2.1"/>
					<path fill="none" stroke="#784D22" stroke-miterlimit="10" d="M109-105.5c-6.2,0-10.8-1.3-13.6-2.1c-2.8-0.8-7.5-2.1-13.6-2.1
						c-6.2,0-10.8,1.3-13.6,2.1c-2.8,0.8-7.5,2.1-13.6,2.1c-6.2,0-10.8-1.3-13.6-2.1c-2.8-0.8-7.5-2.1-13.6-2.1
						c-6.2,0-10.8,1.3-13.6,2.1c-2.8,0.8-7.5,2.1-13.6,2.1"/>
					<path fill="none" stroke="#784D22" stroke-miterlimit="10" d="M109-101.2c-6.2,0-10.8-1.3-13.6-2.1c-2.8-0.8-7.5-2.1-13.6-2.1
						c-6.2,0-10.8,1.3-13.6,2.1c-2.8,0.8-7.5,2.1-13.6,2.1c-6.2,0-10.8-1.3-13.6-2.1c-2.8-0.8-7.5-2.1-13.6-2.1
						c-6.2,0-10.8,1.3-13.6,2.1c-2.8,0.8-7.5,2.1-13.6,2.1"/>
					<path fill="none" stroke="#784D22" stroke-miterlimit="10" d="M109-114.1c-6.2,0-10.8-1.3-13.6-2.1c-2.8-0.8-7.5-2.1-13.6-2.1
						c-6.2,0-10.8,1.3-13.6,2.1s-7.5,2.1-13.6,2.1c-6.2,0-10.8-1.3-13.6-2.1s-7.5-2.1-13.6-2.1c-6.2,0-10.8,1.3-13.6,2.1
						s-7.5,2.1-13.6,2.1"/>
				</g>
			</g>
		</g>
	</g>
</pattern>
<rect x="10.6" y="0.2" fill="#8D633A" width="637.4" height="485.6"/>
<pattern  id="SVGID_2_" xlink:href="#SVGID_1_" patternTransform="matrix(0.9991 0 0 0.9991 -251.4668 17000.0137)">
</pattern>
<path fill="url(#SVGID_2_)" d="M648-9.8v505.5H0v-0.5c0-6.4,1.2-11.2,2-14.1c0.6-2.1,1.7-5.2,1.7-9.2v-22.7c0-4-1.1-7.1-1.7-9.2
	c-0.8-2.9-2-7.7-2-14.1c0-6.3,1.2-11.2,2-14.1c0.6-2.1,1.7-5.2,1.7-9.2v-9.9c0-4-1.1-7.1-1.7-9.2c-0.8-2.9-2-7.7-2-14.1
	c0-6.3,1.2-11.2,2-14.1c0.6-2.1,1.7-5.2,1.7-9.2v-10c0-4-1.1-7.1-1.7-9.2c-0.8-2.9-2-7.7-2-14.1c0-6.4,1.2-11.2,2-14.1
	c0.6-2.1,1.7-5.2,1.7-9.2v-9.9c0-4-1.1-7.1-1.7-9.2c-0.8-2.9-2-7.7-2-14.1c0-6.3,1.2-11.2,2-14.1c0.6-2.1,1.7-5.2,1.7-9.2v-9.9
	c0-4-1.1-7.1-1.7-9.2c-0.8-2.9-2-7.7-2-14.1s1.2-11.2,2-14.1c0.6-2.1,1.7-5.2,1.7-9.2v-9.9c0-4-1.1-7.1-1.7-9.2
	c-0.8-2.9-2-7.7-2-14.1c0-6.4,1.2-11.2,2-14.1c0.6-2.1,1.7-5.2,1.7-9.2v-9.9c0-4-1.1-7.1-1.7-9.2C1.2,98.2,0,93.4,0,87
	c0-6.7,1.2-11.4,2-14.4c0.6-2.1,1.7-5.2,1.7-9.2v-9.9c0-4.1-1.2-7.2-1.7-9.3c-0.8-2.9-2-7.7-2-14.1S1.2,18.9,2,16
	c0.6-2.1,1.7-5.2,1.7-9.2V-3c0-2.6-0.5-4.9-1-6.8H648z"/>
</svg>
