<?xml version="1.0" encoding="utf-8"?>
<!-- Generator: Adobe Illustrator 18.0.0, SVG Export Plug-In . SVG Version: 6.00 Build 0)  -->
<!DOCTYPE svg PUBLIC "-//W3C//DTD SVG 1.1//EN" "http://www.w3.org/Graphics/SVG/1.1/DTD/svg11.dtd">
<svg version="1.1" id="Layer_1" xmlns="http://www.w3.org/2000/svg" xmlns:xlink="http://www.w3.org/1999/xlink" x="0px" y="0px"
	 viewBox="-86.9 -39.4 825.4 374.4" width="825" height="374" enable-background="new -86.9 -39.4 825.4 374.4" xml:space="preserve">
<g>
	<g>
		
			<rect x="309.9" y="296.7" transform="matrix(0.7071 0.7071 -0.7071 0.7071 316.4284 -138.8159)" fill="#1E2128" width="31.7" height="31.7"/>
		<ellipse fill="#1E2128" cx="325.8" cy="230.9" rx="412.7" ry="81.7"/>
		<path fill="#26282F" d="M737.6,225.4c-14.2,42.6-193.2,76.3-411.8,76.3S-71.8,268-86,225.4c14.2-42.6,193.2-76.3,411.8-76.3
			S723.4,182.8,737.6,225.4z"/>
		<polygon fill="#1D1F26" points="554.7,182.9 354.7,180 309.2,179.9 133.1,177.7 -2.9,231 674,234.4 		"/>
	</g>
	<g>
		<g>
			<rect x="2.8" y="95.6" fill="#1E2128" width="18.7" height="4.8"/>
		</g>
		<g>
			<rect x="2.8" y="87.8" fill="#1E2128" width="18.7" height="4.8"/>
		</g>
		<g>
			<path fill="#C85427" d="M48.2,183.7c0,18.9-15.5,35.5-34.3,36.2c-20.5,0.9-37.4-15.5-37.4-35.8c0-0.9,0-1.9,0.1-2.8
				c2.2,0.6,4.4,0.9,7,0.6c9.8-0.9,17.2-9.2,17.2-19.1l0,0c0-4.2-1.3-8.1-3.5-11.3c-2.5-3.5-6.2-6.2-10.6-7.3
				c-0.3-1.6-0.5-3.3-0.5-4.9c0-14.7,12.2-26.6,26.9-26.1c14.1,0.4,25.3,12,25.3,26.1c0,1.8-0.1,3.4-0.5,5.1
				c-4.3,1.1-8,3.8-10.5,7.3c-2.3,3.2-3.5,7.1-3.5,11.3l0,0c0,9.6,7.1,17.9,16.6,19c2.8,0.4,5.2,0.1,7.6-0.5
				C48.2,182.1,48.2,182.9,48.2,183.7z"/>
		</g>
		<g>
			<path fill="#EA7124" d="M12.3,215.4c-16.5,0-30-12.8-31.3-28.9c0.1,0,0.4,0,0.5,0c13,0,23.6-10.6,23.6-23.7
				c0-5.1-1.5-9.9-4.4-13.9c-2.5-3.5-6.1-6.3-10.1-8c0-0.5,0-1,0-1.6c0-11.9,9.8-21.7,21.7-21.7S34,127.4,34,139.3
				c0,0.5,0,1.1,0,1.6c-4.1,1.6-7.5,4.4-10.1,8c-2.9,3.9-4.4,8.7-4.4,13.8c0,13,10.6,23.7,23.6,23.7c0.1,0,0.4,0,0.5,0
				C42.3,202.7,28.8,215.4,12.3,215.4z"/>
		</g>
		<g>
			<path fill="#C85427" d="M12.3,213.2c-14.3,0-26.5-10.6-28.8-24.6c13.3-1,23.9-12.2,23.9-25.8c0-5.6-2-10.9-5.2-15.2
				c-2.5-3.5-6.3-6.3-10.1-8.2v-0.1c0-10.8,8.9-19.4,19.6-19.4s19.6,8.7,19.6,19.4v0.1c-5.1,1.9-7,4.7-9.5,8.2
				c-3.2,4.3-4.7,9.6-4.7,15.2c0,13.7,10.6,24.8,23.9,25.8C38.8,202.7,26.6,213.2,12.3,213.2z"/>
		</g>
		<g>
			<polygon fill="#1E2128" points="17.6,160.5 7.1,160.5 8.5,103.1 16.2,103.1 			"/>
		</g>
		<g>
			<polygon fill="#1E2128" points="17.6,186.3 7.1,186.3 8.5,224.8 16.2,224.8 			"/>
		</g>
		<g>
			<rect x="6.2" y="180.2" fill="#CD865C" width="12.3" height="2.4"/>
		</g>
		<g>
			<g>
				<rect x="11.2" y="103" fill="#D3D4D8" width="1.3" height="121.6"/>
			</g>
		</g>
		<g>
			<path fill="#C85427" d="M16.2,104.1H8.1c-1.3,0-2.2-1-2.2-2.3l1.5-20.1c0.1-1.1,1-1.9,2.2-1.9h5.1c1.1,0,2,0.9,2.2,1.9l1.5,20.1
				C18.4,103.1,17.4,104.1,16.2,104.1z"/>
		</g>
		<g>
			<polygon fill="#EA7124" points="19.4,87.8 5,87.8 5.7,82.6 18.8,82.6 			"/>
		</g>
	</g>
	<g>
		<g>
			<rect x="631.4" y="95.6" fill="#1E2128" width="18.7" height="4.8"/>
		</g>
		<g>
			<rect x="631.4" y="87.8" fill="#1E2128" width="18.7" height="4.8"/>
		</g>
		<g>
			<path fill="#C85427" d="M604.8,183.7c0,18.9,15.5,35.5,34.3,36.2c20.5,0.9,37.4-15.5,37.4-35.8c0-0.9,0-1.9-0.1-2.8
				c-2.2,0.6-4.4,0.9-7,0.6c-9.8-0.9-17.2-9.2-17.2-19.1l0,0c0-4.2,1.3-8.1,3.5-11.3c2.5-3.5,6.2-6.2,10.6-7.3
				c0.3-1.6,0.5-3.3,0.5-4.9c0-14.7-12.2-26.6-26.9-26.1c-14.1,0.4-25.3,12-25.3,26.1c0,1.8,0.1,3.4,0.5,5.1c4.3,1.1,8,3.8,10.5,7.3
				c2.3,3.2,3.5,7.1,3.5,11.3l0,0c0,9.6-7.1,17.9-16.6,19c-2.8,0.4-5.2,0.1-7.6-0.5C604.8,182.1,604.8,182.9,604.8,183.7z"/>
		</g>
		<g>
			<path fill="#EA7124" d="M640.7,215.4c16.5,0,30-12.8,31.3-28.9c-0.1,0-0.4,0-0.5,0c-13,0-23.6-10.6-23.6-23.7
				c0-5.1,1.5-9.9,4.4-13.9c2.5-3.5,6.1-6.3,10.1-8c0-0.5,0-1,0-1.6c0-11.9-9.8-21.7-21.7-21.7s-21.7,9.8-21.7,21.7
				c0,0.5,0,1.1,0,1.6c4.1,1.6,7.5,4.4,10.1,8c2.9,3.9,4.4,8.7,4.4,13.8c0,13-10.6,23.7-23.6,23.7c-0.1,0-0.4,0-0.5,0
				C610.7,202.7,624.2,215.4,640.7,215.4z"/>
		</g>
		<g>
			<path fill="#C85427" d="M640.7,213.2c14.3,0,26.5-10.6,28.8-24.6c-13.3-1-23.9-12.2-23.9-25.8c0-5.6,1.4-10.9,4.6-15.2
				c2.5-3.5,5.7-6.3,9.5-8.2v-0.1c0-10.8-8.9-19.4-19.6-19.4s-19.6,8.7-19.6,19.4v0.1c5.1,1.9,7.6,4.7,10.1,8.2
				c3.2,4.3,5.1,9.6,5.1,15.2c0,13.7-10.4,24.8-23.8,25.8C614.1,202.7,626.4,213.2,640.7,213.2z"/>
		</g>
		<g>
			<polygon fill="#1E2128" points="635.5,160.5 646,160.5 644.6,103.1 636.9,103.1 			"/>
		</g>
		<g>
			<polygon fill="#1E2128" points="635.5,186.3 646,186.3 644.6,224.8 636.9,224.8 			"/>
		</g>
		<g>
			<rect x="634.6" y="180.2" fill="#CD865C" width="12.3" height="2.4"/>
		</g>
		<g>
			<g>
				<rect x="639.4" y="103" fill="#D3D4D8" width="1.3" height="121.6"/>
			</g>
		</g>
		<g>
			<path fill="#C85427" d="M636.9,104.1h8c1.3,0,2.2-1,2.2-2.3l-1.5-20.1c-0.1-1.1-1-1.9-2.2-1.9h-5.1c-1.1,0-2,0.9-2.2,1.9
				l-1.5,20.1C634.7,103.1,635.6,104.1,636.9,104.1z"/>
		</g>
		<g>
			<polygon fill="#EA7124" points="633.6,87.8 648.2,87.8 647.4,82.6 634.3,82.6 			"/>
		</g>
	</g>
	<g>
		<polygon fill="#FFFFFF" points="536.8,158.4 348.2,169.6 303.9,170.1 127.2,179 114.9,40.8 536.8,35.3 		"/>
		<polygon fill="#C85427" points="163.2,18.6 163.2,66.2 76,66.2 99.8,42.4 75.9,12.7 		"/>
		<polygon fill="#C85427" points="546.3,42.4 570.1,66.2 482.4,66.2 482.4,18.6 572.4,10.3 		"/>
		<rect x="117.6" y="-39.4" fill="#C85427" width="411.1" height="80.1"/>
		<polygon fill="#83361B" points="163.4,66.5 117.6,40.7 163.4,40.7 		"/>
		<polygon fill="#83361B" points="482.9,66.5 528.7,40.7 482.9,40.7 		"/>
	</g>
	<g>
		<g>
			<rect x="80.7" y="60.8" fill="#1E2128" width="18.7" height="4.8"/>
		</g>
		<g>
			<rect x="80.7" y="53.1" fill="#1E2128" width="18.7" height="4.8"/>
		</g>
		<g>
			<path fill="#C85427" d="M126.1,148.9c0,18.9-15.5,35.5-34.3,36.2c-20.5,0.9-37.4-15.5-37.4-35.8c0-0.9,0-1.9,0.1-2.8
				c2.2,0.6,4.4,0.9,7,0.6c9.8-0.9,17.2-9.2,17.2-19.1l0,0c0-4.2-1.3-8.1-3.5-11.3c-2.5-3.5-6.2-6.2-10.6-7.3
				c-0.3-1.6-0.5-3.3-0.5-4.9c0-14.7,12.2-26.6,26.9-26.1c14.1,0.4,25.3,12,25.3,26.1c0,1.8-0.1,3.4-0.5,5.1
				c-4.3,1.1-8,3.8-10.5,7.3c-2.3,3.2-3.5,7.1-3.5,11.3l0,0c0,9.6,7.1,17.9,16.6,19c2.8,0.4,5.2,0.1,7.6-0.5
				C126.1,147.3,126.1,148.1,126.1,148.9z"/>
		</g>
		<g>
			<path fill="#EA7124" d="M90.2,180.6c-16.5,0-30-12.8-31.3-28.9c0.1,0,0.4,0,0.5,0c13,0,23.6-10.6,23.6-23.7
				c0-5.1-1.5-9.9-4.4-13.9c-2.5-3.5-6.1-6.3-10.1-8c0-0.5,0-1,0-1.6c0-11.9,9.8-21.7,21.7-21.7s21.7,9.8,21.7,21.7
				c0,0.5,0,1.1,0,1.6c-4.1,1.6-7.5,4.4-10.1,8c-2.9,3.9-4.4,8.7-4.4,13.8c0,13,10.6,23.7,23.6,23.7c0.1,0,0.4,0,0.5,0
				C120.2,167.8,106.7,180.6,90.2,180.6z"/>
		</g>
		<g>
			<path fill="#C85427" d="M90.2,178.5c-14.3,0-26.5-10.6-28.8-24.6c13.3-1,23.9-12.2,23.9-25.8c0-5.6-2.4-10.9-5.6-15.2
				c-2.5-3.5-6.7-6.3-10.5-8.2v-0.1c0-10.8,9.5-19.4,20.3-19.4s20.3,8.7,20.3,19.4v0.1c-5.1,1.9-7.3,4.7-9.9,8.2
				c-3.2,4.3-4.9,9.6-4.9,15.2c0,13.7,10.5,24.8,23.8,25.8C116.8,167.8,104.6,178.5,90.2,178.5z"/>
		</g>
		<g>
			<polygon fill="#1E2128" points="95.5,125.6 85,125.6 86.4,68.3 94.1,68.3 			"/>
		</g>
		<g>
			<polygon fill="#1E2128" points="95.5,151.6 85,151.6 86.4,190 94.1,190 			"/>
		</g>
		<g>
			<rect x="84.1" y="145.4" fill="#CD865C" width="12.3" height="2.4"/>
		</g>
		<g>
			<g>
				<rect x="89.7" y="67.5" fill="#D3D4D8" width="1.3" height="121.6"/>
			</g>
		</g>
		<g>
			<path fill="#C85427" d="M94.1,69.3h-8c-1.3,0-2.2-1-2.2-2.3l1.5-20.1c0.1-1.1,1-1.9,2.2-1.9h5.1c1.1,0,2,0.9,2.2,1.9L96.4,67
				C96.3,68.3,95.3,69.3,94.1,69.3z"/>
		</g>
		<g>
			<polygon fill="#EA7124" points="97.3,53.1 82.9,53.1 83.6,47.7 96.7,47.7 			"/>
		</g>
	</g>
	<g>
		<g>
			<rect x="553.5" y="60.8" fill="#1E2128" width="18.7" height="4.8"/>
		</g>
		<g>
			<rect x="553.5" y="53.1" fill="#1E2128" width="18.7" height="4.8"/>
		</g>
		<g>
			<path fill="#C85427" d="M526.9,148.9c0,18.9,15.5,35.5,34.3,36.2c20.5,0.9,37.4-15.5,37.4-35.8c0-0.9,0-1.9-0.1-2.8
				c-2.2,0.6-4.4,0.9-7,0.6c-9.8-0.9-17.2-9.2-17.2-19.1l0,0c0-4.2,1.3-8.1,3.5-11.3c2.5-3.5,6.2-6.2,10.6-7.3
				c0.3-1.6,0.5-3.3,0.5-4.9c0-14.7-12.2-26.6-26.9-26.1c-14.1,0.4-25.3,12-25.3,26.1c0,1.8,0.1,3.4,0.5,5.1c4.3,1.1,8,3.8,10.5,7.3
				c2.3,3.2,3.5,7.1,3.5,11.3l0,0c0,9.6-7.1,17.9-16.6,19c-2.8,0.4-5.2,0.1-7.6-0.5C526.9,147.3,526.9,148.1,526.9,148.9z"/>
		</g>
		<g>
			<path fill="#EA7124" d="M562.8,180.6c16.5,0,30-12.8,31.3-28.9c-0.1,0-0.4,0-0.5,0c-13,0-23.6-10.6-23.6-23.7
				c0-5.1,1.5-9.9,4.4-13.9c2.5-3.5,6.1-6.3,10.1-8c0-0.5,0-1,0-1.6c0-11.9-9.8-21.7-21.7-21.7s-21.7,9.8-21.7,21.7
				c0,0.5,0,1.1,0,1.6c4.1,1.6,7.5,4.4,10.1,8c2.9,3.9,4.4,8.7,4.4,13.8c0,13-10.6,23.7-23.6,23.7c-0.1,0-0.4,0-0.5,0
				C532.8,167.8,546.3,180.6,562.8,180.6z"/>
		</g>
		<g>
			<path fill="#C85427" d="M562.8,178.5c14.3,0,26.5-10.6,28.8-24.6c-13.3-1-23.9-12.2-23.9-25.8c0-5.6,1.8-10.9,4.9-15.2
				c2.5-3.5,7.3-6.3,9.9-8.2v-0.1c0-10.8-9.5-19.4-20.3-19.4s-20.3,8.7-20.3,19.4v0.1c5.1,1.9,8,4.7,10.5,8.2
				c3.2,4.3,5.2,9.6,5.2,15.2c0,13.7-10.4,24.8-23.7,25.8C536.1,167.8,548.5,178.5,562.8,178.5z"/>
		</g>
		<g>
			<polygon fill="#1E2128" points="557.6,125.6 568,125.6 566.7,68.3 559,68.3 			"/>
		</g>
		<g>
			<polygon fill="#1E2128" points="557.6,151.6 568,151.6 566.7,190 559,190 			"/>
		</g>
		<g>
			<rect x="556.6" y="145.4" fill="#CD865C" width="12.3" height="2.4"/>
		</g>
		<g>
			<g>
				<rect x="560.9" y="67.5" fill="#D3D4D8" width="2.5" height="121.6"/>
			</g>
		</g>
		<g>
			<path fill="#C85427" d="M559,69.3h8c1.3,0,2.2-1,2.2-2.3l-1.5-20.1c-0.1-1.1-1-1.9-2.2-1.9h-5.1c-1.1,0-2,0.9-2.2,1.9L556.8,67
				C556.7,68.3,557.7,69.3,559,69.3z"/>
		</g>
		<g>
			<polygon fill="#EA7124" points="555.7,53.1 570.1,53.1 569.5,47.7 556.5,47.7 			"/>
		</g>
	</g>
	<polygon fill="#2E2C2C" points="42.8,152 2.4,173.1 -0.1,170.7 42.2,150.7 	"/>
	<polygon fill="#2E2C2C" points="109.3,132.9 63.9,136.7 62.5,133.4 109.2,131.3 	"/>
	<polygon fill="#2E2C2C" points="587.6,130.5 544,144.1 542,141.2 587.1,128.9 	"/>
	<polygon fill="#2E2C2C" points="665.4,164.7 621.8,178.3 619.8,175.4 664.9,163.3 	"/>
</g>
<text transform="matrix(1 0 0 1 203.9878 9.1646)" fill="#FFFFFF" font-family="'Arial-BoldMT'" font-size="24.2336">The Amazing Sunset</text>
<rect x="181" y="67.2" fill="none" width="296" height="92"/>
<text transform="matrix(1 0 0 1 204.7627 77.9245)"><tspan x="0" y="0" font-family="'ArialMT'" font-size="15">Experience a first-hand experience of </tspan><tspan x="-20.4" y="18" font-family="'ArialMT'" font-size="15">Amazon’s sunset from the cruise’s top deck </tspan><tspan x="-22.5" y="36" font-family="'ArialMT'" font-size="15">to classical music as dinner gets served and </tspan><tspan x="69.2" y="54" font-family="'ArialMT'" font-size="15">the night comes.</tspan></text>
</svg>
