<?xml version="1.0" encoding="utf-8"?>
<!-- Generator: Adobe Illustrator 18.0.0, SVG Export Plug-In . SVG Version: 6.00 Build 0)  -->
<!DOCTYPE svg PUBLIC "-//W3C//DTD SVG 1.1//EN" "http://www.w3.org/Graphics/SVG/1.1/DTD/svg11.dtd">
<svg version="1.1" id="Layer_1" xmlns="http://www.w3.org/2000/svg" xmlns:xlink="http://www.w3.org/1999/xlink" x="0px" y="0px"
	 viewBox="0 0 157.2 48.6" enable-background="new 0 0 157.2 48.6" xml:space="preserve" width="157.2" height="48.6">
<g>
	<path fill="#CCD5E1" d="M129.5,0.1v48.4H5.5c-3,0-5.5-2.5-5.5-5.5L0,5.5c0-3,2.5-5.5,5.5-5.5L129.5,0.1z"/>
	<rect x="54.8" y="3.2" fill="#56A653" width="75.2" height="42.1"/>
	<polygon fill="#74B251" points="54.8,2.6 130.1,2.6 130.1,45.3 	"/>
	<path fill="#CCD5E1" d="M118.8,22.2v4.1c0,7.1-5.8,12.9-12.9,12.9H85.9c-7.1,0-12.9-5.8-12.9-12.9v-4.1c0-7.1,5.8-12.9,12.9-12.9
		H106C113.1,9.4,118.8,15.1,118.8,22.2z"/>
	<path fill="#0496C2" d="M116.7,22v4.5c0,6-4.8,10.8-10.8,10.8h-20c-6,0-10.8-4.8-10.8-10.8V22c0-6,4.8-10.8,10.8-10.8h20
		C111.9,11.2,116.7,16.1,116.7,22z"/>
	<path fill="#A7BCD1" d="M4.1,2.6h57.2c-2.6,7.1-4.1,13.8-4.1,21.4c0,7.6,1.5,14.6,4.2,21.6H4.1V2.6z"/>
	<path fill="#CCD5E1" d="M129.5,48.6l24.4-17.7c4.5-3.2,4.5-9.9,0-13.2L129.5,0V48.6z"/>
	<polygon fill="#A7BCD1" points="132.1,35.6 140.5,35.6 132.1,43.1 	"/>
	<rect x="132.1" y="28.6" fill="#A7BCD1" width="8" height="6"/>
	<rect x="132.1" y="20.6" fill="#A7BCD1" width="8" height="6"/>
	<rect x="132.1" y="12.6" fill="#A7BCD1" width="8" height="6"/>
	<polygon fill="#A7BCD1" points="132.1,5.5 140.5,10.6 132.1,10.6 	"/>
	<rect x="77.5" y="3.7" fill="#CCD5E1" width="2.4" height="3.5"/>
	<rect x="81.5" y="3.7" fill="#CCD5E1" width="2.4" height="3.5"/>
	<rect x="85.5" y="3.7" fill="#CCD5E1" width="2.4" height="3.5"/>
	<rect x="89.5" y="3.7" fill="#CCD5E1" width="2.4" height="3.5"/>
	<rect x="93.5" y="3.7" fill="#CCD5E1" width="2.4" height="3.5"/>
	<rect x="97.5" y="3.7" fill="#CCD5E1" width="2.4" height="3.5"/>
	<rect x="101.5" y="3.7" fill="#CCD5E1" width="2.4" height="3.5"/>
	<rect x="105.5" y="3.7" fill="#CCD5E1" width="2.4" height="3.5"/>
	<rect x="109.6" y="3.7" fill="#CCD5E1" width="2.4" height="3.5"/>
	<rect x="113.6" y="3.7" fill="#CCD5E1" width="2.4" height="3.5"/>
	<rect x="77.5" y="40.7" fill="#CCD5E1" width="2.4" height="3.5"/>
	<rect x="81.5" y="40.7" fill="#CCD5E1" width="2.4" height="3.5"/>
	<rect x="85.5" y="40.7" fill="#CCD5E1" width="2.4" height="3.5"/>
	<rect x="89.5" y="40.7" fill="#CCD5E1" width="2.4" height="3.5"/>
	<rect x="93.5" y="40.7" fill="#CCD5E1" width="2.4" height="3.5"/>
	<rect x="97.5" y="40.7" fill="#CCD5E1" width="2.4" height="3.5"/>
	<rect x="101.5" y="40.7" fill="#CCD5E1" width="2.4" height="3.5"/>
	<rect x="105.5" y="40.7" fill="#CCD5E1" width="2.4" height="3.5"/>
	<rect x="109.6" y="40.7" fill="#CCD5E1" width="2.4" height="3.5"/>
	<rect x="113.6" y="40.7" fill="#CCD5E1" width="2.4" height="3.5"/>
	<path fill="#56A653" d="M154.5,24.3c0,1.7-1.4,3.3-2.8,4.3l-6.6,4.4V15.6l6.6,4.4C153.1,21,154.5,22.6,154.5,24.3z"/>
	<circle fill="#068FBE" cx="151.5" cy="24.3" r="1.4"/>
</g>
</svg>
