<?xml version="1.0" encoding="utf-8"?>
<!-- Generator: Adobe Illustrator 18.0.0, SVG Export Plug-In . SVG Version: 6.00 Build 0)  -->
<!DOCTYPE svg PUBLIC "-//W3C//DTD SVG 1.1//EN" "http://www.w3.org/Graphics/SVG/1.1/DTD/svg11.dtd">
<svg version="1.1" id="Layer_1" xmlns="http://www.w3.org/2000/svg" xmlns:xlink="http://www.w3.org/1999/xlink" x="0px" y="0px"
	 viewBox="0 0 631.8 950.7" enable-background="new 0 0 631.8 950.7" xml:space="preserve" 
	  width="483.32" height="727.28" >
<g>
	<g>
		<g>
			<path fill="#D42328" d="M94.1,757l3,1.3c2.3,0.9,3,3.8,1.5,5.8l-48.5,61.8c-2.3,2.9-6.9,1.1-6.7-2.5l0.1-2.2
				c0.5-0.2,1-0.6,1.4-1.1l48.5-61.8C93.7,757.9,93.9,757.4,94.1,757z"/>
			<path fill="#BB2327" d="M70.5,747.2l23.6,9.8c-0.1,0.4-0.3,0.9-0.7,1.3L44.9,820c-0.4,0.5-0.9,0.9-1.4,1.1l3.7-63
				c0.1-1.4,1-2.7,2.3-3.2l18.1-7.7C68.5,746.8,69.6,746.8,70.5,747.2z"/>
			<polygon fill="#069AD7" points="46,779 44.7,801.1 83,752.4 70.9,747.3 			"/>
			<path fill="#F89522" d="M70.5,747.2c-0.9-0.4-2-0.4-2.9,0l-18.1,7.7c-1.3,0.6-2.2,1.8-2.3,3.2L46,779l24.9-31.7L70.5,747.2z"/>
		</g>
		<g>
			<path fill="#D42328" d="M94.1,739.1l3-1.3c2.3-0.9,3-3.8,1.5-5.8l-48.5-61.8c-2.3-2.9-6.9-1.1-6.7,2.5l0.1,2.2
				c0.5,0.2,1,0.6,1.4,1.1l48.5,61.8C93.7,738.3,93.9,738.7,94.1,739.1z"/>
			<path fill="#BB2327" d="M70.5,748.9l23.6-9.8c-0.1-0.4-0.3-0.9-0.7-1.3l-48.5-61.8c-0.4-0.5-0.9-0.9-1.4-1.1l3.7,63
				c0.1,1.4,1,2.7,2.3,3.2l18.1,7.7C68.5,749.3,69.6,749.3,70.5,748.9z"/>
			<polygon fill="#069AD7" points="46,717.1 44.7,695 83,743.7 70.9,748.8 			"/>
			<path fill="#F89522" d="M70.5,748.9c-0.9,0.4-2,0.4-2.9,0l-18.1-7.7c-1.3-0.6-2.2-1.8-2.3-3.2L46,717.1l24.9,31.7L70.5,748.9z"/>
		</g>
		<path fill="#2B1212" d="M128.6,746v3.8c0,2.8-1.8,5.2-4.5,6l-7.2,2.1c-4,1.1-7.9-1.9-7.9-6v-7.9c0-4.1,3.9-7.1,7.9-6l7.2,2.1
			C126.7,740.8,128.6,743.2,128.6,746z"/>
		<path fill="#069AD7" d="M95,744.2v7.3c0,3.5-2.9,6.2-6.3,6.1l-82.9-3.7c-3.2-0.1-5.8-2.8-5.8-6.1l0,0c0-3.2,2.6-5.9,5.8-6.1
			l82.9-3.7C92.1,738,95,740.8,95,744.2z"/>
		<path fill="#D42328" d="M47.3,740l7.9,7.9l-7.9,7.9l-41.5-1.8c-3.2-0.2-5.8-2.8-5.8-6.1c0-1.6,0.6-3.1,1.7-4.2
			c1-1.1,2.5-1.8,4.1-1.9L47.3,740z"/>
		<path fill="#F89522" d="M22.9,741.1l6.8,6.8l-6.8,6.8l-17.1-0.8c-3.2-0.2-5.8-2.8-5.8-6.1c0-1.6,0.6-3.1,1.7-4.2
			c1-1.1,2.5-1.8,4.1-1.9L22.9,741.1z"/>
		<path fill="#D42328" d="M101.3,730.9c0.8,0,1.7,0.2,2.6,0.6l1.1,0.6c2.9,1.8,4.6,5.7,4.6,10.3v11.1c0,4.6-1.7,8.5-4.6,10.3
			l-1.3,0.6c-0.9,0.4-1.6,0.5-2.5,0.6c-0.8,0-1.7-0.2-2.5-0.6l-1.4-0.6l-11.2-4.6c-3.6-1.5-6.5-5.9-6.5-10.9v-0.8
			c0-5,2.8-9.4,6.5-10.9l11.1-4.6l1.5-0.6C99.5,731.1,100.5,730.9,101.3,730.9z"/>
		<path fill="#D42328" d="M101.3,730.9c1.4,0,2.8,0.4,4,1.1l-1.4-0.6C103,731.1,102.2,730.9,101.3,730.9z"/>
		<path fill="#BB2327" d="M105,732l10.7,4.6c3.7,1.5,5.9,5.9,5.9,10.9v0.8c0,5-2.1,9.4-5.8,10.9l-11,4.6c2.9-1.8,4.8-5.7,4.8-10.3
			v-11.1C109.6,737.7,107.9,733.8,105,732z"/>
		<path fill="#D42328" d="M101.3,730.9c-0.8,0-1.7,0.2-2.6,0.6l-1.4,0.6C98.6,731.2,99.9,730.8,101.3,730.9z"/>
		<path fill="#CCABA1" d="M101.3,754.7c3.1,0,6,0.7,8.4,1.9c1.8,0.9,3.3,2.1,4.4,3.5l-8.8,3.6c0,0-0.1,0.1-0.1,0.1l-1.4,0.6
			c-0.9,0.4-1.7,0.5-2.5,0.6c-0.8,0-1.7-0.2-2.5-0.6l-1.4-0.6l-8.8-3.7C90.9,756.9,95.8,754.7,101.3,754.7z"/>
		<path fill="#CCABA1" d="M101.3,741.1c3.1,0,6-0.7,8.4-1.9c1.8-0.9,3.3-2.1,4.4-3.5l-8.8-3.6c0,0-0.1-0.1-0.1-0.1l-1.4-0.6
			c-0.9-0.4-1.7-0.5-2.5-0.6c-0.8,0-1.7,0.2-2.5,0.6l-1.4,0.6l-8.8,3.7C90.9,738.9,95.8,741.1,101.3,741.1z"/>
		<path fill="#FFFFFF" d="M102.3,760c2.8,0,5.1,1.1,5.8,2.5l-2.7,1.1c0,0-0.1,0.1-0.1,0.1l-1.4,0.6c-0.9,0.4-1.7,0.5-2.5,0.6
			c-0.8,0-1.7-0.2-2.5-0.6l-1.4-0.6l-1.1-0.4C96.3,761.5,99,760,102.3,760z"/>
		<path fill="#2B1212" d="M102.2,762.4c1.5,0,2.8,0.3,3.8,0.9l-0.8,0.3c0,0-0.1,0.1-0.1,0.1l-1.4,0.6c-0.9,0.4-1.7,0.5-2.5,0.6
			c-0.8,0-1.7-0.2-2.5-0.6l-1.1-0.5C98.6,763,100.3,762.4,102.2,762.4z"/>
		<path fill="#FFFFFF" d="M102.3,735.8c2.8,0,5.1-1.1,5.8-2.5l-2.7-1.1c0,0-0.1-0.1-0.1-0.1l-1.4-0.6c-0.9-0.4-1.7-0.5-2.5-0.6
			c-0.8,0-1.7,0.2-2.5,0.6l-1.4,0.6l-1.1,0.4C96.3,734.3,99,735.8,102.3,735.8z"/>
		<path fill="#2B1212" d="M102.2,733.3c1.5,0,2.8-0.3,3.8-0.9l-0.8-0.3c0,0-0.1-0.1-0.1-0.1l-1.4-0.6c-0.9-0.4-1.7-0.5-2.5-0.6
			c-0.8,0-1.7,0.2-2.5,0.6l-1.1,0.5C98.6,732.8,100.3,733.3,102.2,733.3z"/>
	</g>
	<g>
		<g>
			<path fill="#D42328" d="M142.5,654.2l1.4,0.6c1.1,0.4,1.4,1.8,0.7,2.7L122,686.2c-1.1,1.3-3.2,0.5-3.1-1.2l0.1-1
				c0.2-0.1,0.5-0.3,0.7-0.5l22.6-28.7C142.4,654.6,142.5,654.4,142.5,654.2z"/>
			<path fill="#BB2327" d="M131.6,649.6l11,4.6c-0.1,0.2-0.2,0.4-0.3,0.6l-22.6,28.7c-0.2,0.2-0.4,0.4-0.7,0.5l1.7-29.3
				c0-0.7,0.5-1.2,1.1-1.5l8.4-3.6C130.6,649.5,131.1,649.5,131.6,649.6z"/>
			<polygon fill="#069AD7" points="120.1,664.5 119.5,674.8 137.4,652.1 131.7,649.7 			"/>
			<path fill="#F89522" d="M131.6,649.6c-0.4-0.2-0.9-0.2-1.4,0l-8.4,3.6c-0.6,0.3-1,0.8-1.1,1.5l-0.6,9.7l11.6-14.8L131.6,649.6z"
				/>
		</g>
		<g>
			<path fill="#D42328" d="M142.5,645.9l1.4-0.6c1.1-0.4,1.4-1.8,0.7-2.7L122,613.9c-1.1-1.3-3.2-0.5-3.1,1.2l0.1,1
				c0.2,0.1,0.5,0.3,0.7,0.5l22.6,28.7C142.4,645.5,142.5,645.7,142.5,645.9z"/>
			<path fill="#BB2327" d="M131.6,650.5l11-4.6c-0.1-0.2-0.2-0.4-0.3-0.6l-22.6-28.7c-0.2-0.2-0.4-0.4-0.7-0.5l1.7,29.3
				c0,0.7,0.5,1.2,1.1,1.5l8.4,3.6C130.6,650.7,131.1,650.7,131.6,650.5z"/>
			<polygon fill="#069AD7" points="120.1,635.6 119.5,625.4 137.4,648.1 131.7,650.4 			"/>
			<path fill="#F89522" d="M131.6,650.5c-0.4,0.2-0.9,0.2-1.4,0l-8.4-3.6c-0.6-0.3-1-0.8-1.1-1.5l-0.6-9.7l11.6,14.8L131.6,650.5z"
				/>
		</g>
		<path fill="#2B1212" d="M158.6,649.1v1.7c0,1.3-0.9,2.4-2.1,2.8l-3.4,1c-1.8,0.5-3.7-0.9-3.7-2.8v-3.7c0-1.9,1.8-3.3,3.7-2.8
			l3.4,1C157.7,646.7,158.6,647.8,158.6,649.1z"/>
		<path fill="#069AD7" d="M143,648.3v3.4c0,1.6-1.3,2.9-2.9,2.8l-38.6-1.7c-1.5-0.1-2.7-1.3-2.7-2.8l0,0c0-1.5,1.2-2.8,2.7-2.8
			l38.6-1.7C141.6,645.4,143,646.7,143,648.3z"/>
		<path fill="#D42328" d="M120.8,646.3l3.7,3.7l-3.7,3.7l-19.3-0.9c-1.5-0.1-2.7-1.3-2.7-2.8c0-0.8,0.3-1.4,0.8-1.9
			c0.5-0.5,1.2-0.8,1.9-0.9L120.8,646.3z"/>
		<path fill="#F89522" d="M109.4,646.8l3.2,3.2l-3.2,3.2l-8-0.3c-1.5-0.1-2.7-1.3-2.7-2.8c0-0.8,0.3-1.4,0.8-1.9
			c0.5-0.5,1.2-0.8,1.9-0.9L109.4,646.8z"/>
		<path fill="#D42328" d="M145.9,642.1c0.4,0,0.8,0.1,1.2,0.3l0.4,0.3c1.3,0.9,2.1,2.6,2.1,4.8v5.2c0,2.2-0.7,4-2.1,4.8l-0.5,0.3
			c-0.4,0.2-0.7,0.3-1.1,0.3c-0.4,0-0.8-0.1-1.2-0.3l-0.7-0.3l-5.3-2.1c-1.7-0.7-3.1-2.8-3.1-5.1v-0.4c0-2.3,1.4-4.4,3.1-5.1
			l5.2-2.1l0.7-0.3C145,642.1,145.5,642.1,145.9,642.1z"/>
		<path fill="#D42328" d="M145.9,642.1c0.7,0,1.3,0.2,1.9,0.5l-0.7-0.3C146.7,642.1,146.3,642.1,145.9,642.1z"/>
		<path fill="#BB2327" d="M147.5,642.6l5.1,2.1c1.7,0.7,2.9,2.8,2.9,5.1v0.4c0,2.3-1.1,4.4-2.8,5.1l-5.3,2.1
			c1.3-0.9,2.1-2.6,2.1-4.8v-5.2C149.6,645.2,148.9,643.4,147.5,642.6z"/>
		<path fill="#D42328" d="M145.9,642.1c-0.4,0-0.8,0.1-1.2,0.3l-0.7,0.3C144.6,642.2,145.3,642,145.9,642.1z"/>
		<path fill="#CCABA1" d="M145.9,653.1c1.5,0,2.8,0.3,3.9,0.9c0.8,0.4,1.5,1,2,1.6l-4.1,1.7c0,0,0,0-0.1,0l-0.6,0.3
			c-0.4,0.2-0.8,0.3-1.2,0.3c-0.4,0-0.8-0.1-1.2-0.3l-0.7-0.3l-4.1-1.7C141.1,654.2,143.3,653.1,145.9,653.1z"/>
		<path fill="#CCABA1" d="M145.9,646.8c1.5,0,2.8-0.3,3.9-0.9c0.8-0.4,1.5-1,2-1.6l-4.1-1.7c0,0,0,0-0.1,0l-0.6-0.3
			c-0.4-0.2-0.8-0.3-1.2-0.3c-0.4,0-0.8,0.1-1.2,0.3l-0.7,0.3l-4.1,1.7C141.1,645.8,143.3,646.8,145.9,646.8z"/>
		<path fill="#FFFFFF" d="M146.3,655.6c1.3,0,2.4,0.5,2.7,1.2l-1.3,0.5c0,0,0,0-0.1,0l-0.6,0.3c-0.4,0.2-0.8,0.3-1.2,0.3
			c-0.4,0-0.8-0.1-1.2-0.3l-0.7-0.3l-0.5-0.2C143.6,656.3,144.8,655.6,146.3,655.6z"/>
		<path fill="#2B1212" d="M146.3,656.8c0.7,0,1.3,0.2,1.8,0.4l-0.4,0.1c0,0,0,0-0.1,0l-0.6,0.3c-0.4,0.2-0.8,0.3-1.2,0.3
			c-0.4,0-0.8-0.1-1.2-0.3l-0.5-0.2C144.6,657,145.4,656.8,146.3,656.8z"/>
		<path fill="#FFFFFF" d="M146.3,644.3c1.3,0,2.4-0.5,2.7-1.2l-1.3-0.5c0,0,0,0-0.1,0l-0.6-0.3c-0.4-0.2-0.8-0.3-1.2-0.3
			c-0.4,0-0.8,0.1-1.2,0.3l-0.7,0.3l-0.5,0.2C143.6,643.6,144.8,644.3,146.3,644.3z"/>
		<path fill="#2B1212" d="M146.3,643.2c0.7,0,1.3-0.2,1.8-0.4l-0.4-0.1c0,0,0,0-0.1,0l-0.6-0.3c-0.4-0.2-0.8-0.3-1.2-0.3
			c-0.4,0-0.8,0.1-1.2,0.3l-0.5,0.2C144.6,642.9,145.4,643.2,146.3,643.2z"/>
	</g>
	<g>
		<g>
			<path fill="#D42328" d="M190.5,803.2l2.1,0.9c1.6,0.7,2.1,2.6,1,4l-33.4,42.5c-1.6,2-4.8,0.8-4.6-1.7l0.1-1.5
				c0.4-0.2,0.7-0.4,1-0.8l33.4-42.5C190.2,803.8,190.4,803.5,190.5,803.2z"/>
			<path fill="#BB2327" d="M174.2,796.4l16.2,6.8c-0.1,0.3-0.2,0.6-0.4,0.9l-33.4,42.5c-0.3,0.4-0.6,0.6-1,0.8l2.5-43.3
				c0.1-1,0.7-1.8,1.6-2.2l12.5-5.3C172.9,796.2,173.6,796.2,174.2,796.4z"/>
			<polygon fill="#069AD7" points="157.4,818.4 156.5,833.6 182.8,800 174.5,796.6 			"/>
			<path fill="#F89522" d="M174.2,796.4c-0.6-0.3-1.4-0.3-2,0l-12.5,5.3c-0.9,0.4-1.5,1.2-1.6,2.2l-0.8,14.4l17.1-21.8L174.2,796.4z
				"/>
		</g>
		<g>
			<path fill="#D42328" d="M190.5,790.9l2.1-0.9c1.6-0.7,2.1-2.6,1-4l-33.4-42.5c-1.6-2-4.8-0.8-4.6,1.7l0.1,1.5
				c0.4,0.2,0.7,0.4,1,0.8L190,790C190.2,790.3,190.4,790.6,190.5,790.9z"/>
			<path fill="#BB2327" d="M174.2,797.7l16.2-6.8c-0.1-0.3-0.2-0.6-0.4-0.9l-33.4-42.5c-0.3-0.4-0.6-0.6-1-0.8l2.5,43.3
				c0.1,1,0.7,1.8,1.6,2.2l12.5,5.3C172.9,797.9,173.6,797.9,174.2,797.7z"/>
			<polygon fill="#069AD7" points="157.4,775.8 156.5,760.5 182.8,794.1 174.5,797.6 			"/>
			<path fill="#F89522" d="M174.2,797.7c-0.6,0.3-1.4,0.3-2,0l-12.5-5.3c-0.9-0.4-1.5-1.2-1.6-2.2l-0.8-14.4l17.1,21.8L174.2,797.7z
				"/>
		</g>
		<path fill="#2B1212" d="M214.2,795.6v2.6c0,1.9-1.3,3.6-3.1,4.1l-5,1.4c-2.7,0.8-5.4-1.3-5.4-4.1v-5.4c0-2.8,2.7-4.9,5.4-4.1
			l5,1.4C212.9,792.1,214.2,793.7,214.2,795.6z"/>
		<path fill="#069AD7" d="M191.1,794.4v5c0,2.4-2,4.3-4.4,4.2l-57-2.5c-2.2-0.1-4-1.9-4-4.2l0,0c0-2.2,1.8-4.1,4-4.2l57-2.5
			C189.1,790.1,191.1,792,191.1,794.4z"/>
		<path fill="#D42328" d="M158.3,791.5l5.4,5.4l-5.4,5.4l-28.6-1.3c-2.2-0.1-4-1.9-4-4.2c0-1.1,0.4-2.1,1.2-2.9
			c0.7-0.8,1.7-1.2,2.8-1.3L158.3,791.5z"/>
		<path fill="#F89522" d="M141.5,792.3l4.7,4.7l-4.7,4.7l-11.8-0.5c-2.2-0.1-4-1.9-4-4.2c0-1.1,0.4-2.1,1.2-2.9
			c0.7-0.8,1.7-1.2,2.8-1.3L141.5,792.3z"/>
		<path fill="#D42328" d="M195.5,785.2c0.6,0,1.2,0.1,1.8,0.4l1,0.4c2,1.3,3.4,3.9,3.4,7.1v7.6c0,3.2-1.4,5.8-3.4,7.1l-1,0.4
			c-0.6,0.2-1.2,0.4-1.8,0.4c-0.6,0-1.2-0.1-1.8-0.4l-1-0.4l-7.7-3.1c-2.5-1.1-4.4-4.1-4.4-7.5v-0.5c0-3.4,1.9-6.5,4.4-7.5l7.6-3.1
			l1-0.4C194.2,785.4,194.9,785.2,195.5,785.2z"/>
		<path fill="#D42328" d="M195.5,785.2c1,0,1.9,0.3,2.7,0.8l-1-0.4C196.6,785.4,196.1,785.2,195.5,785.2z"/>
		<path fill="#BB2327" d="M198.2,786l7.3,3.1c2.5,1.1,4.1,4.1,4.1,7.5v0.5c0,3.4-1.5,6.5-4.1,7.5l-7.4,3.1c2-1.3,3.5-3.9,3.5-7.1
			v-7.6C201.6,789.9,200.2,787.3,198.2,786z"/>
		<path fill="#D42328" d="M195.5,785.2c-0.6,0-1.2,0.1-1.8,0.4l-1,0.4C193.6,785.5,194.5,785.2,195.5,785.2z"/>
		<path fill="#CCABA1" d="M195.4,801.6c2.2,0,4.1,0.5,5.8,1.3c1.2,0.6,2.3,1.4,3,2.4l-6,2.5c0,0-0.1,0-0.1,0.1l-0.9,0.4
			c-0.6,0.2-1.2,0.4-1.7,0.4c-0.6,0-1.2-0.1-1.8-0.4l-1-0.4l-6.1-2.5C188.3,803.1,191.6,801.6,195.4,801.6z"/>
		<path fill="#CCABA1" d="M195.4,792.3c2.2,0,4.1-0.5,5.8-1.3c1.2-0.6,2.3-1.4,3-2.4l-6-2.5c0,0-0.1,0-0.1-0.1l-0.9-0.4
			c-0.6-0.2-1.2-0.4-1.7-0.4c-0.6,0-1.2,0.1-1.8,0.4l-1,0.4l-6.1,2.5C188.3,790.7,191.6,792.3,195.4,792.3z"/>
		<path fill="#FFFFFF" d="M196.1,805.3c1.9,0,3.5,0.7,4,1.7l-1.9,0.8c0,0-0.1,0-0.1,0.1l-0.9,0.4c-0.6,0.2-1.2,0.4-1.7,0.4
			c-0.6,0-1.2-0.1-1.8-0.4l-1-0.4l-0.7-0.3C192,806.3,193.8,805.3,196.1,805.3z"/>
		<path fill="#2B1212" d="M196.1,807c1,0,2,0.2,2.6,0.6l-0.5,0.2c0,0-0.1,0-0.1,0.1l-0.9,0.4c-0.6,0.2-1.2,0.4-1.7,0.4
			c-0.6,0-1.2-0.1-1.8-0.4l-0.8-0.3C193.6,807.4,194.8,807,196.1,807z"/>
		<path fill="#FFFFFF" d="M196.1,788.6c1.9,0,3.5-0.7,4-1.7l-1.9-0.8c0,0-0.1,0-0.1-0.1l-0.9-0.4c-0.6-0.2-1.2-0.4-1.7-0.4
			c-0.6,0-1.2,0.1-1.8,0.4l-1,0.4l-0.7,0.3C192,787.6,193.8,788.6,196.1,788.6z"/>
		<path fill="#2B1212" d="M196.1,786.9c1,0,2-0.2,2.6-0.6l-0.5-0.2c0,0-0.1,0-0.1-0.1l-0.9-0.4c-0.6-0.2-1.2-0.4-1.7-0.4
			c-0.6,0-1.2,0.1-1.8,0.4l-0.8,0.3C193.6,786.5,194.8,786.9,196.1,786.9z"/>
	</g>
</g>
<g>
	<g>
		<g>
			<path fill="#D42328" d="M532.7,118.7l2.5,1c1.9,0.8,2.5,3.2,1.2,4.8l-40,51c-1.9,2.4-5.7,0.9-5.5-2.1l0.1-1.8
				c0.4-0.2,0.8-0.5,1.2-0.9l40-51C532.4,119.4,532.5,119.1,532.7,118.7z"/>
			<path fill="#BB2327" d="M513.2,110.6l19.5,8.1c-0.1,0.4-0.3,0.7-0.5,1l-40,51c-0.3,0.4-0.7,0.7-1.2,0.9l3-52
				c0.1-1.2,0.8-2.2,1.9-2.7l15-6.4C511.6,110.3,512.4,110.3,513.2,110.6z"/>
			<polygon fill="#069AD7" points="492.9,136.9 491.9,155.1 523.5,114.9 513.5,110.7 			"/>
			<path fill="#F89522" d="M513.2,110.6c-0.8-0.3-1.6-0.3-2.4,0l-15,6.4c-1.1,0.5-1.8,1.5-1.9,2.7l-1,17.3l20.6-26.2L513.2,110.6z"
				/>
		</g>
		<g>
			<path fill="#D42328" d="M532.7,103.9l2.5-1c1.9-0.8,2.5-3.2,1.2-4.8l-40-51c-1.9-2.4-5.7-0.9-5.5,2.1l0.1,1.8
				c0.4,0.2,0.8,0.5,1.2,0.9l40,51C532.4,103.2,532.5,103.6,532.7,103.9z"/>
			<path fill="#BB2327" d="M513.2,112.1l19.5-8.1c-0.1-0.4-0.3-0.7-0.5-1l-40-51c-0.3-0.4-0.7-0.7-1.2-0.9l3,52
				c0.1,1.2,0.8,2.2,1.9,2.7l15,6.4C511.6,112.4,512.4,112.4,513.2,112.1z"/>
			<polygon fill="#069AD7" points="492.9,85.8 491.9,67.5 523.5,107.8 513.5,111.9 			"/>
			<path fill="#F89522" d="M513.2,112.1c-0.8,0.3-1.6,0.3-2.4,0l-15-6.4c-1.1-0.5-1.8-1.5-1.9-2.7l-1-17.3l20.6,26.2L513.2,112.1z"
				/>
		</g>
		<path fill="#2B1212" d="M561.2,109.6v3.1c0,2.3-1.5,4.3-3.7,4.9l-6,1.7c-3.3,0.9-6.5-1.5-6.5-4.9v-6.5c0-3.4,3.3-5.9,6.5-4.9
			l6,1.7C559.6,105.3,561.2,107.3,561.2,109.6z"/>
		<path fill="#069AD7" d="M533.4,108.2v6c0,2.9-2.4,5.1-5.2,5l-68.4-3c-2.7-0.1-4.8-2.3-4.8-5v0c0-2.7,2.1-4.9,4.8-5l68.4-3
			C531,103,533.4,105.3,533.4,108.2z"/>
		<path fill="#D42328" d="M494.1,104.7l6.5,6.5l-6.5,6.5l-34.3-1.5c-2.7-0.1-4.8-2.3-4.8-5c0-1.3,0.5-2.6,1.4-3.5
			c0.9-0.9,2.1-1.5,3.4-1.5L494.1,104.7z"/>
		<path fill="#F89522" d="M473.9,105.6l5.6,5.6l-5.6,5.6l-14.1-0.6c-2.7-0.1-4.8-2.3-4.8-5c0-1.3,0.5-2.6,1.4-3.5
			c0.9-0.9,2.1-1.5,3.4-1.5L473.9,105.6z"/>
		<path fill="#D42328" d="M538.7,97.1c0.7,0,1.4,0.2,2.1,0.5l0.9,0.5c2.4,1.5,3.9,4.7,3.9,8.5v9.1c0,3.8-1.5,7-3.9,8.5l-1.1,0.5
			c-0.7,0.3-1.4,0.4-2.1,0.5c-0.7,0-1.4-0.2-2.1-0.5l-1.2-0.5l-9.3-3.8c-3-1.3-5.4-4.9-5.4-9v-0.6c0-4.1,2.4-7.8,5.4-9l9.2-3.8
			l1.3-0.5C537.2,97.3,538,97.1,538.7,97.1z"/>
		<path fill="#D42328" d="M538.7,97.1c1.2,0,2.3,0.3,3.3,0.9l-1.2-0.5C540.1,97.3,539.4,97.1,538.7,97.1z"/>
		<path fill="#BB2327" d="M541.7,98.1l8.9,3.8c3,1.3,5,4.9,5,9v0.6c0,4.1-1.8,7.8-4.9,9l-9.1,3.8c2.4-1.5,4-4.7,4-8.5v-9.1
			C545.6,102.8,544.1,99.6,541.7,98.1z"/>
		<path fill="#D42328" d="M538.7,97.1c-0.7,0-1.4,0.2-2.1,0.5l-1.2,0.5C536.4,97.4,537.5,97.1,538.7,97.1z"/>
		<path fill="#CCABA1" d="M538.6,116.8c2.6,0,5,0.6,6.9,1.5c1.5,0.7,2.7,1.7,3.6,2.9l-7.2,3c0,0-0.1,0-0.1,0.1l-1.1,0.5
			c-0.7,0.3-1.4,0.4-2.1,0.5c-0.7,0-1.4-0.2-2.1-0.5l-1.2-0.5l-7.3-3C530.1,118.6,534,116.8,538.6,116.8z"/>
		<path fill="#CCABA1" d="M538.6,105.6c2.6,0,5-0.6,6.9-1.5c1.5-0.7,2.7-1.7,3.6-2.9l-7.2-3c0,0-0.1,0-0.1-0.1l-1.1-0.5
			c-0.7-0.3-1.4-0.4-2.1-0.5c-0.7,0-1.4,0.2-2.1,0.5l-1.2,0.5l-7.3,3C530.1,103.7,534,105.6,538.6,105.6z"/>
		<path fill="#FFFFFF" d="M539.4,121.2c2.3,0,4.2,0.9,4.8,2.1l-2.3,0.9c0,0-0.1,0-0.1,0.1l-1.1,0.5c-0.7,0.3-1.4,0.4-2.1,0.5
			c-0.7,0-1.4-0.2-2.1-0.5l-1.2-0.5l-0.9-0.4C534.5,122.4,536.7,121.2,539.4,121.2z"/>
		<path fill="#2B1212" d="M539.4,123.2c1.2,0,2.4,0.3,3.2,0.7l-0.6,0.3c0,0-0.1,0-0.1,0.1l-1.1,0.5c-0.7,0.3-1.4,0.4-2.1,0.5
			c-0.7,0-1.4-0.2-2.1-0.5l-0.9-0.4C536.4,123.7,537.8,123.2,539.4,123.2z"/>
		<path fill="#FFFFFF" d="M539.4,101.2c2.3,0,4.2-0.9,4.8-2.1l-2.3-0.9c0,0-0.1,0-0.1-0.1l-1.1-0.5c-0.7-0.3-1.4-0.4-2.1-0.5
			c-0.7,0-1.4,0.2-2.1,0.5l-1.2,0.5l-0.9,0.4C534.5,100,536.7,101.2,539.4,101.2z"/>
		<path fill="#2B1212" d="M539.4,99.2c1.2,0,2.4-0.3,3.2-0.7l-0.6-0.3c0,0-0.1,0-0.1-0.1l-1.1-0.5c-0.7-0.3-1.4-0.4-2.1-0.5
			c-0.7,0-1.4,0.2-2.1,0.5l-0.9,0.4C536.4,98.7,537.8,99.2,539.4,99.2z"/>
	</g>
	<g>
		<g>
			<path fill="#D42328" d="M572.7,33.9l1.2,0.5c0.9,0.4,1.2,1.5,0.6,2.2l-18.6,23.7c-0.9,1.1-2.7,0.4-2.6-1l0-0.8
				c0.2-0.1,0.4-0.2,0.5-0.4l18.6-23.7C572.5,34.2,572.6,34,572.7,33.9z"/>
			<path fill="#BB2327" d="M563.6,30.1l9.1,3.8c0,0.2-0.1,0.3-0.2,0.5l-18.6,23.7c-0.2,0.2-0.3,0.3-0.5,0.4l1.4-24.2
				c0-0.5,0.4-1,0.9-1.2l7-3C562.8,29.9,563.2,29.9,563.6,30.1z"/>
			<polygon fill="#069AD7" points="554.2,42.3 553.7,50.8 568.4,32.1 563.7,30.1 			"/>
			<path fill="#F89522" d="M563.6,30.1c-0.4-0.1-0.8-0.1-1.1,0l-7,3c-0.5,0.2-0.8,0.7-0.9,1.2l-0.5,8l9.6-12.2L563.6,30.1z"/>
		</g>
		<g>
			<path fill="#D42328" d="M572.7,27l1.2-0.5c0.9-0.4,1.2-1.5,0.6-2.2L555.8,0.6c-0.9-1.1-2.7-0.4-2.6,1l0,0.8
				c0.2,0.1,0.4,0.2,0.5,0.4l18.6,23.7C572.5,26.7,572.6,26.8,572.7,27z"/>
			<path fill="#BB2327" d="M563.6,30.8l9.1-3.8c0-0.2-0.1-0.3-0.2-0.5L553.8,2.8c-0.2-0.2-0.3-0.3-0.5-0.4l1.4,24.2
				c0,0.5,0.4,1,0.9,1.2l7,3C562.8,30.9,563.2,30.9,563.6,30.8z"/>
			<polygon fill="#069AD7" points="554.2,18.5 553.7,10 568.4,28.8 563.7,30.7 			"/>
			<path fill="#F89522" d="M563.6,30.8c-0.4,0.1-0.8,0.1-1.1,0l-7-3c-0.5-0.2-0.8-0.7-0.9-1.2l-0.5-8l9.6,12.2L563.6,30.8z"/>
		</g>
		<path fill="#2B1212" d="M585.9,29.6v1.4c0,1.1-0.7,2-1.7,2.3l-2.8,0.8c-1.5,0.4-3-0.7-3-2.3v-3c0-1.6,1.5-2.7,3-2.3l2.8,0.8
			C585.2,27.6,585.9,28.6,585.9,29.6z"/>
		<path fill="#069AD7" d="M573,28.9v2.8c0,1.3-1.1,2.4-2.4,2.3l-31.8-1.4c-1.2-0.1-2.2-1.1-2.2-2.3v0c0-1.2,1-2.3,2.2-2.3l31.8-1.4
			C571.9,26.6,573,27.6,573,28.9z"/>
		<path fill="#D42328" d="M554.7,27.3l3,3l-3,3l-15.9-0.7c-1.2-0.1-2.2-1.1-2.2-2.3c0-0.6,0.2-1.2,0.6-1.6c0.4-0.4,1-0.7,1.6-0.7
			L554.7,27.3z"/>
		<path fill="#F89522" d="M545.3,27.7l2.6,2.6l-2.6,2.6l-6.6-0.3c-1.2-0.1-2.2-1.1-2.2-2.3c0-0.6,0.2-1.2,0.6-1.6
			c0.4-0.4,1-0.7,1.6-0.7L545.3,27.7z"/>
		<path fill="#D42328" d="M575.5,23.8c0.3,0,0.7,0.1,1,0.2l0.4,0.2c1.1,0.7,1.8,2.2,1.8,4v4.3c0,1.8-0.6,3.3-1.8,4l-0.5,0.2
			c-0.3,0.1-0.6,0.2-0.9,0.2c-0.3,0-0.6-0.1-1-0.2l-0.5-0.2l-4.6-1.7c-1.4-0.6-2.7-2.3-2.7-4.2v-0.3c0-1.9,1.3-3.6,2.7-4.2l4.4-1.7
			l0.6-0.2C574.7,23.9,575.1,23.8,575.5,23.8z"/>
		<path fill="#D42328" d="M575.5,23.8c0.5,0,1.1,0.1,1.5,0.4l-0.5-0.2C576.1,23.9,575.8,23.8,575.5,23.8z"/>
		<path fill="#BB2327" d="M576.8,24.3l4.3,1.7c1.4,0.6,2.5,2.3,2.5,4.2v0.3c0,1.9-1,3.6-2.4,4.2l-4.3,1.7c1.1-0.7,1.7-2.2,1.7-4
			v-4.3C578.6,26.4,577.9,25,576.8,24.3z"/>
		<path fill="#D42328" d="M575.5,23.8c-0.3,0-0.7,0.1-1,0.2l-0.5,0.2C574.4,24,574.9,23.8,575.5,23.8z"/>
		<path fill="#CCABA1" d="M575.4,33c1.2,0,2.3,0.3,3.2,0.7c0.7,0.3,1.3,0.8,1.7,1.3l-3.4,1.4c0,0,0,0,0,0l-0.5,0.2
			c-0.3,0.1-0.6,0.2-1,0.2c-0.3,0-0.6-0.1-1-0.2l-0.5-0.2l-3.4-1.4C571.5,33.8,573.3,33,575.4,33z"/>
		<path fill="#CCABA1" d="M575.4,27.7c1.2,0,2.3-0.3,3.2-0.7c0.7-0.3,1.3-0.8,1.7-1.3l-3.4-1.4c0,0,0,0,0,0l-0.5-0.2
			c-0.3-0.1-0.6-0.2-1-0.2c-0.3,0-0.6,0.1-1,0.2l-0.5,0.2l-3.4,1.4C571.5,26.9,573.3,27.7,575.4,27.7z"/>
		<path fill="#FFFFFF" d="M575.8,35c1.1,0,2,0.4,2.2,1l-1.1,0.4c0,0,0,0,0,0l-0.5,0.2c-0.3,0.1-0.6,0.2-1,0.2c-0.3,0-0.6-0.1-1-0.2
			l-0.5-0.2l-0.4-0.2C573.5,35.6,574.5,35,575.8,35z"/>
		<path fill="#2B1212" d="M575.8,35.9c0.6,0,1.1,0.1,1.5,0.3l-0.3,0.1c0,0,0,0,0,0l-0.5,0.2c-0.3,0.1-0.6,0.2-1,0.2
			c-0.3,0-0.6-0.1-1-0.2l-0.4-0.2C574.4,36.2,575.1,35.9,575.8,35.9z"/>
		<path fill="#FFFFFF" d="M575.8,25.7c1.1,0,2-0.4,2.2-1l-1.1-0.4c0,0,0,0,0,0l-0.5-0.2c-0.3-0.1-0.6-0.2-1-0.2
			c-0.3,0-0.6,0.1-1,0.2l-0.5,0.2l-0.4,0.2C573.5,25.1,574.5,25.7,575.8,25.7z"/>
		<path fill="#2B1212" d="M575.8,24.8c0.6,0,1.1-0.1,1.5-0.3l-0.3-0.1c0,0,0,0,0,0l-0.5-0.2c-0.3-0.1-0.6-0.2-1-0.2
			c-0.3,0-0.6,0.1-1,0.2l-0.4,0.2C574.4,24.5,575.1,24.8,575.8,24.8z"/>
	</g>
	<g>
		<g>
			<path fill="#D42328" d="M612.2,156.9l1.7,0.7c1.3,0.5,1.7,2.2,0.9,3.3l-27.6,35.1c-1.3,1.6-3.9,0.6-3.8-1.4l0.1-1.2
				c0.3-0.1,0.6-0.3,0.8-0.6l27.5-35.1C612,157.3,612.2,157.1,612.2,156.9z"/>
			<path fill="#BB2327" d="M598.9,151.3l13.4,5.6c-0.1,0.3-0.2,0.5-0.4,0.7l-27.5,35.1c-0.2,0.3-0.5,0.5-0.8,0.6l2.1-35.8
				c0.1-0.8,0.6-1.5,1.3-1.8l10.3-4.4C597.7,151,598.3,151,598.9,151.3z"/>
			<polygon fill="#069AD7" points="584.9,169.4 584.2,181.9 605.9,154.2 599.1,151.4 			"/>
			<path fill="#F89522" d="M598.9,151.3c-0.5-0.2-1.1-0.2-1.7,0l-10.3,4.4c-0.7,0.3-1.2,1-1.3,1.8l-0.7,11.9l14.1-18L598.9,151.3z"
				/>
		</g>
		<g>
			<path fill="#D42328" d="M612.2,146.7l1.7-0.7c1.3-0.5,1.7-2.2,0.9-3.3l-27.6-35.1c-1.3-1.6-3.9-0.6-3.8,1.4l0.1,1.2
				c0.3,0.1,0.6,0.3,0.8,0.6l27.5,35.1C612,146.2,612.2,146.4,612.2,146.7z"/>
			<path fill="#BB2327" d="M598.9,152.3l13.4-5.6c-0.1-0.3-0.2-0.5-0.4-0.7l-27.5-35.1c-0.2-0.3-0.5-0.5-0.8-0.6l2.1,35.8
				c0.1,0.8,0.6,1.5,1.3,1.8l10.3,4.4C597.7,152.5,598.3,152.5,598.9,152.3z"/>
			<polygon fill="#069AD7" points="584.9,134.2 584.2,121.6 605.9,149.3 599.1,152.2 			"/>
			<path fill="#F89522" d="M598.9,152.3c-0.5,0.2-1.1,0.2-1.7,0l-10.3-4.4c-0.7-0.3-1.2-1-1.3-1.8l-0.7-11.9l14.1,18L598.9,152.3z"
				/>
		</g>
		<path fill="#2B1212" d="M631.8,150.6v2.1c0,1.6-1,3-2.6,3.4l-4.1,1.2c-2.3,0.6-4.5-1.1-4.5-3.4v-4.5c0-2.3,2.2-4,4.5-3.4l4.1,1.2
			C630.8,147.6,631.8,149,631.8,150.6z"/>
		<path fill="#069AD7" d="M612.8,149.6v4.2c0,2-1.6,3.5-3.6,3.4l-47.1-2.1c-1.8-0.1-3.3-1.6-3.3-3.4l0,0c0-1.8,1.5-3.4,3.3-3.4
			l47.1-2.1C611.1,146.1,612.8,147.6,612.8,149.6z"/>
		<path fill="#D42328" d="M585.7,147.2l4.5,4.5l-4.5,4.5l-23.6-1c-1.8-0.1-3.3-1.6-3.3-3.4c0-0.9,0.4-1.8,1-2.4
			c0.6-0.6,1.4-1,2.3-1.1L585.7,147.2z"/>
		<path fill="#F89522" d="M571.8,147.8l3.9,3.9l-3.9,3.9l-9.7-0.4c-1.8-0.1-3.3-1.6-3.3-3.4c0-0.9,0.4-1.8,1-2.4
			c0.6-0.6,1.4-1,2.3-1.1L571.8,147.8z"/>
		<path fill="#D42328" d="M616.4,142c0.5,0,1,0.1,1.5,0.3l0.9,0.3c1.6,1,2.9,3.2,2.9,5.9v6.3c0,2.6-1.2,4.8-2.9,5.9l-0.8,0.3
			c-0.5,0.2-1,0.3-1.5,0.3c-0.5,0-1-0.1-1.5-0.3l-0.8-0.3l-6.6-2.6c-2.1-0.9-3.9-3.4-3.9-6.2v-0.4c0-2.8,1.8-5.3,3.9-6.2l6.4-2.6
			l0.9-0.3C615.3,142.1,615.9,142,616.4,142z"/>
		<path fill="#D42328" d="M616.4,142c0.8,0,1.6,0.2,2.3,0.7l-0.8-0.3C617.3,142.1,616.9,142,616.4,142z"/>
		<path fill="#BB2327" d="M618.7,142.7l5.8,2.6c2.1,0.9,3.1,3.4,3.1,6.2v0.4c0,2.8-1.1,5.3-3.1,6.2l-5.9,2.6c1.6-1,3.1-3.2,3.1-5.9
			v-6.3C621.6,145.9,620.3,143.7,618.7,142.7z"/>
		<path fill="#D42328" d="M616.4,142c-0.5,0-1,0.1-1.5,0.3l-0.8,0.3C614.8,142.2,615.6,142,616.4,142z"/>
		<path fill="#CCABA1" d="M616.4,155.5c1.8,0,3.4,0.4,4.8,1.1c1,0.5,1.9,1.2,2.5,2l-5,2.1c0,0-0.1,0-0.1,0.1l-0.8,0.3
			c-0.5,0.2-1,0.3-1.4,0.3c-0.5,0-1-0.1-1.4-0.3l-0.8-0.3l-5-2.1C610.5,156.8,613.2,155.5,616.4,155.5z"/>
		<path fill="#CCABA1" d="M616.4,147.8c1.8,0,3.4-0.4,4.8-1.1c1-0.5,1.9-1.2,2.5-2l-5-2.1c0,0-0.1,0-0.1-0.1l-0.8-0.3
			c-0.5-0.2-1-0.3-1.4-0.3c-0.5,0-1,0.1-1.4,0.3l-0.8,0.3l-5,2.1C610.5,146.6,613.2,147.8,616.4,147.8z"/>
		<path fill="#FFFFFF" d="M616.9,158.6c1.6,0,2.9,0.6,3.3,1.4l-1.6,0.6c0,0-0.1,0-0.1,0.1l-0.8,0.3c-0.5,0.2-1,0.3-1.4,0.3
			c-0.5,0-1-0.1-1.4-0.3l-0.8-0.3l-0.6-0.3C613.5,159.4,615,158.6,616.9,158.6z"/>
		<path fill="#2B1212" d="M616.9,159.9c0.9,0,1.6,0.2,2.2,0.5l-0.4,0.2c0,0-0.1,0-0.1,0.1l-0.8,0.3c-0.5,0.2-1,0.3-1.4,0.3
			c-0.5,0-1-0.1-1.4-0.3l-0.6-0.3C614.8,160.3,615.8,159.9,616.9,159.9z"/>
		<path fill="#FFFFFF" d="M616.9,144.8c1.6,0,2.9-0.6,3.3-1.4l-1.6-0.6c0,0-0.1,0-0.1-0.1l-0.8-0.3c-0.5-0.2-1-0.3-1.4-0.3
			c-0.5,0-1,0.1-1.4,0.3l-0.8,0.3l-0.6,0.3C613.5,144,615,144.8,616.9,144.8z"/>
		<path fill="#2B1212" d="M616.9,143.4c0.9,0,1.6-0.2,2.2-0.5l-0.4-0.2c0,0-0.1,0-0.1-0.1l-0.8-0.3c-0.5-0.2-1-0.3-1.4-0.3
			c-0.5,0-1,0.1-1.4,0.3l-0.6,0.3C614.8,143.1,615.8,143.4,616.9,143.4z"/>
	</g>
</g>
<g>
	<g>
		<g>
			<path fill="#069AD7" d="M448.1,824.3l4.8,2c3.7,1.5,4.9,6.2,2.4,9.3l-78.1,99.5c-3.7,4.7-11.1,1.8-10.8-4.1l0.2-3.5
				c0.8-0.4,1.6-1,2.3-1.8l78.1-99.5C447.5,825.6,447.9,825,448.1,824.3z"/>
			<path fill="#1187C9" d="M410.1,808.4l38,15.8c-0.2,0.7-0.5,1.4-1,2l-78.1,99.5c-0.7,0.8-1.4,1.4-2.3,1.8l5.9-101.5
				c0.1-2.3,1.6-4.3,3.7-5.2l29.2-12.4C406.9,807.8,408.6,807.8,410.1,808.4z"/>
			<polygon fill="#F89522" points="370.6,859.7 368.5,895.3 430.2,816.8 410.7,808.7 			"/>
			<path fill="#D42328" d="M410.1,808.4c-1.5-0.6-3.2-0.6-4.7,0l-29.2,12.4c-2.1,0.9-3.5,2.9-3.7,5.2l-2,33.7l40.1-51.1L410.1,808.4
				z"/>
		</g>
		<g>
			<path fill="#069AD7" d="M448.1,795.5l4.8-2c3.7-1.5,4.9-6.2,2.4-9.3l-78.1-99.5c-3.7-4.7-11.1-1.8-10.8,4.1l0.2,3.5
				c0.8,0.4,1.6,1,2.3,1.8l78.1,99.5C447.5,794.1,447.9,794.8,448.1,795.5z"/>
			<path fill="#1187C9" d="M410.1,811.3l38-15.8c-0.2-0.7-0.5-1.4-1-2L368.9,694c-0.7-0.8-1.4-1.4-2.3-1.8l5.9,101.5
				c0.1,2.3,1.6,4.3,3.7,5.2l29.2,12.4C406.9,811.9,408.6,811.9,410.1,811.3z"/>
			<polygon fill="#F89522" points="370.6,760 368.5,724.4 430.2,802.9 410.7,811 			"/>
			<path fill="#D42328" d="M410.1,811.3c-1.5,0.6-3.2,0.6-4.7,0l-29.2-12.4c-2.1-0.9-3.5-2.9-3.7-5.2l-2-33.7l40.1,51.1L410.1,811.3
				z"/>
		</g>
		<path fill="#2B1212" d="M503.7,806.5v6.1c0,4.5-3,8.4-7.3,9.6l-11.7,3.3c-6.4,1.8-12.7-3-12.7-9.6v-12.7c0-6.6,6.3-11.4,12.7-9.6
			l11.7,3.3C500.7,798.1,503.7,802.1,503.7,806.5z"/>
		<path fill="#F89522" d="M449.6,803.7v11.8c0,5.6-4.6,10-10.2,9.8l-133.5-5.9c-5.2-0.2-9.3-4.5-9.3-9.8l0,0c0-5.2,4.1-9.5,9.3-9.8
			l133.5-5.9C445,793.7,449.6,798.1,449.6,803.7z"/>
		<path fill="#069AD7" d="M372.8,796.9l12.7,12.7l-12.7,12.7l-66.9-2.9c-5.2-0.2-9.3-4.5-9.3-9.8c0-2.6,1-5,2.7-6.7
			c1.7-1.8,4-2.9,6.6-3L372.8,796.9z"/>
		<path fill="#D42328" d="M333.5,798.6l11,11l-11,11l-27.5-1.2c-5.2-0.2-9.3-4.5-9.3-9.8c0-2.6,1-5,2.7-6.7c1.7-1.8,4-2.9,6.6-3
			L333.5,798.6z"/>
		<path fill="#069AD7" d="M459.8,782.2c1.4,0,2.7,0.3,4.1,0.9l2,1c4.7,2.9,7.7,9.1,7.7,16.6v17.8c0,7.5-3,13.7-7.7,16.6l-2.1,1
			c-1.4,0.6-2.7,0.9-4,0.9c-1.4,0-2.7-0.3-4.1-0.9l-2.3-1l-18.2-7.3c-5.9-2.5-10.5-9.6-10.5-17.6V809c0-8,4.7-15.2,10.6-17.6
			L453,784l2.5-1C456.9,782.5,458.5,782.2,459.8,782.2z"/>
		<path fill="#D42328" d="M459.8,782.2c2.3-0.1,4.5,0.6,6.4,1.9l-2.3-1C462.5,782.5,461.2,782.2,459.8,782.2z"/>
		<path fill="#1187C9" d="M465.9,784l17.2,7.3c5.9,2.5,9.5,9.6,9.5,17.6v1.2c0,8-3.5,15.2-9.3,17.6l-17.6,7.3
			c4.7-2.9,7.9-9.1,7.9-16.6v-17.8C473.6,793.2,470.6,787,465.9,784z"/>
		<path fill="#D42328" d="M459.8,782.2c-1.4,0-2.8,0.3-4.1,0.9l-2.3,1C455.3,782.8,457.5,782.1,459.8,782.2z"/>
		<path fill="#CCABA1" d="M459.7,820.6c5,0,9.7,1.1,13.5,3c2.9,1.4,5.3,3.4,7.1,5.6l-14.1,5.9c-0.1,0-0.1,0.1-0.2,0.1l-2.2,1
			c-1.4,0.6-2.7,0.9-4.1,0.9c-1.4,0-2.7-0.3-4.1-0.9l-2.3-1l-14.3-5.9C443,824.1,450.8,820.6,459.7,820.6z"/>
		<path fill="#CCABA1" d="M459.7,798.6c5,0,9.7-1.1,13.5-3c2.9-1.4,5.3-3.4,7.1-5.6l-14.1-5.9c-0.1,0-0.1-0.1-0.2-0.1l-2.2-1
			c-1.4-0.6-2.7-0.9-4.1-0.9c-1.4,0-2.7,0.3-4.1,0.9l-2.3,1l-14.3,5.9C443,795.1,450.8,798.6,459.7,798.6z"/>
		<path fill="#FFFFFF" d="M461.3,829.1c4.5,0,8.2,1.7,9.3,4.1l-4.4,1.8c-0.1,0-0.1,0.1-0.2,0.1l-2.2,1c-1.4,0.6-2.7,0.9-4.1,0.9
			c-1.4,0-2.7-0.3-4.1-0.9l-2.3-1l-1.7-0.7C451.7,831.5,456,829.1,461.3,829.1z"/>
		<path fill="#2B1212" d="M461.3,833c2.4,0,4.6,0.5,6.2,1.4l-1.2,0.5c-0.1,0-0.1,0.1-0.2,0.1l-2.2,1c-1.4,0.6-2.7,0.9-4.1,0.9
			c-1.4,0-2.7-0.3-4.1-0.9l-1.8-0.8C455.4,834,458.1,833,461.3,833z"/>
		<path fill="#FFFFFF" d="M461.3,790.1c4.5,0,8.2-1.7,9.3-4.1l-4.4-1.8c-0.1,0-0.1-0.1-0.2-0.1l-2.2-1c-1.4-0.6-2.7-0.9-4.1-0.9
			c-1.4,0-2.7,0.3-4.1,0.9l-2.3,1l-1.7,0.7C451.7,787.7,456,790.1,461.3,790.1z"/>
		<path fill="#2B1212" d="M461.3,786.1c2.4,0,4.6-0.5,6.2-1.4l-1.2-0.5c-0.1,0-0.1-0.1-0.2-0.1l-2.2-1c-1.4-0.6-2.7-0.9-4.1-0.9
			c-1.4,0-2.7,0.3-4.1,0.9l-1.8,0.8C455.4,785.2,458.1,786.1,461.3,786.1z"/>
	</g>
	<g>
		<g>
			<path fill="#069AD7" d="M571,693l2.9,1.2c2.2,0.9,3,3.7,1.5,5.7L528,760.3c-2.2,2.8-6.8,1.1-6.6-2.5l0.1-2.1
				c0.5-0.2,1-0.6,1.4-1.1l47.4-60.4C570.6,693.8,570.9,693.4,571,693z"/>
			<path fill="#1187C9" d="M547.9,683.4L571,693c-0.1,0.4-0.3,0.8-0.6,1.2l-47.4,60.4c-0.4,0.5-0.9,0.9-1.4,1.1l3.6-61.6
				c0.1-1.4,0.9-2.6,2.2-3.2l17.7-7.5C546,683,547,683,547.9,683.4z"/>
			<polygon fill="#F89522" points="523.9,714.5 522.7,736.1 560.1,688.5 548.3,683.5 			"/>
			<path fill="#D42328" d="M547.9,683.4c-0.9-0.4-1.9-0.4-2.8,0l-17.7,7.5c-1.3,0.5-2.2,1.8-2.2,3.2l-1.2,20.5l24.4-31L547.9,683.4z
				"/>
		</g>
		<g>
			<path fill="#069AD7" d="M571,675.5l2.9-1.2c2.2-0.9,3-3.7,1.5-5.7L528,608.2c-2.2-2.8-6.8-1.1-6.6,2.5l0.1,2.1
				c0.5,0.2,1,0.6,1.4,1.1l47.4,60.4C570.6,674.6,570.9,675.1,571,675.5z"/>
			<path fill="#1187C9" d="M547.9,685.1l23.1-9.6c-0.1-0.4-0.3-0.8-0.6-1.2l-47.4-60.4c-0.4-0.5-0.9-0.9-1.4-1.1l3.6,61.6
				c0.1,1.4,0.9,2.6,2.2,3.2l17.7,7.5C546,685.5,547,685.5,547.9,685.1z"/>
			<polygon fill="#F89522" points="523.9,653.9 522.7,632.3 560.1,680 548.3,685 			"/>
			<path fill="#D42328" d="M547.9,685.1c-0.9,0.4-1.9,0.4-2.8,0l-17.7-7.5c-1.3-0.5-2.2-1.8-2.2-3.2l-1.2-20.5l24.4,31L547.9,685.1z
				"/>
		</g>
		<path fill="#2B1212" d="M604.7,682.2v3.7c0,2.7-1.8,5.1-4.4,5.8l-7.1,2c-3.9,1.1-7.7-1.8-7.7-5.8v-7.7c0-4,3.9-6.9,7.7-5.8l7.1,2
			C602.9,677.1,604.7,679.5,604.7,682.2z"/>
		<path fill="#F89522" d="M571.9,680.5v7.2c0,3.4-2.8,6.1-6.2,5.9l-81.1-3.6c-3.2-0.1-5.7-2.8-5.7-5.9l0,0c0-3.2,2.5-5.8,5.7-5.9
			l81.1-3.6C569.1,674.4,571.9,677.1,571.9,680.5z"/>
		<path fill="#069AD7" d="M525.3,676.4l7.7,7.7l-7.7,7.7l-40.6-1.8c-3.2-0.1-5.7-2.8-5.7-5.9c0-1.6,0.6-3,1.6-4.1
			c1-1.1,2.4-1.8,4-1.8L525.3,676.4z"/>
		<path fill="#D42328" d="M501.4,677.4l6.7,6.7l-6.7,6.7l-16.7-0.7c-3.2-0.1-5.7-2.8-5.7-5.9c0-1.6,0.6-3,1.6-4.1
			c1-1.1,2.4-1.8,4-1.8L501.4,677.4z"/>
		<path fill="#069AD7" d="M578.1,667.4c0.8,0,1.7,0.2,2.5,0.5l0.8,0.6c2.8,1.8,4.2,5.6,4.2,10.1v10.8c0,4.5-1.4,8.3-4.2,10.1
			l-1.1,0.6c-0.8,0.4-1.5,0.5-2.3,0.5c-0.8,0-1.6-0.2-2.4-0.5l-1.4-0.6l-10.6-4.5c-3.6-1.5-6-5.8-6-10.7v-0.7c0-4.9,2.4-9.2,6-10.7
			l10.6-4.5l1.4-0.6C576.4,667.6,577.3,667.4,578.1,667.4z"/>
		<path fill="#D42328" d="M578.1,667.4c1.4,0,2.7,0.4,3.9,1.1l-1.4-0.6C579.8,667.6,578.9,667.4,578.1,667.4z"/>
		<path fill="#1187C9" d="M581.4,668.5l10.4,4.5c3.6,1.5,5.8,5.8,5.8,10.7v0.7c0,4.9-1.9,9.2-5.5,10.7l-11,4.5
			c2.8-1.8,4.5-5.6,4.5-10.1v-10.8C585.6,674.1,584.2,670.3,581.4,668.5z"/>
		<path fill="#D42328" d="M578.1,667.4c-0.8,0-1.7,0.2-2.5,0.5l-1.4,0.6C575.4,667.8,576.7,667.4,578.1,667.4z"/>
		<path fill="#CCABA1" d="M578.1,690.7c3.1,0,5.9,0.7,8.2,1.8c1.8,0.9,3.2,2,4.3,3.4l-8.6,3.6c0,0-0.1,0.1-0.1,0.1l-1.3,0.6
			c-0.8,0.4-1.6,0.5-2.5,0.5c-0.8,0-1.7-0.2-2.5-0.5l-1.4-0.6l-8.7-3.6C567.9,692.9,572.6,690.7,578.1,690.7z"/>
		<path fill="#CCABA1" d="M578.1,677.4c3.1,0,5.9-0.7,8.2-1.8c1.8-0.9,3.2-2,4.3-3.4l-8.6-3.6c0,0-0.1-0.1-0.1-0.1l-1.3-0.6
			c-0.8-0.4-1.6-0.5-2.5-0.5c-0.8,0-1.7,0.2-2.5,0.5l-1.4,0.6l-8.7,3.6C567.9,675.3,572.6,677.4,578.1,677.4z"/>
		<path fill="#FFFFFF" d="M579,695.9c2.7,0,5,1,5.7,2.5l-2.7,1.1c0,0-0.1,0.1-0.1,0.1l-1.3,0.6c-0.8,0.4-1.6,0.5-2.5,0.5
			c-0.8,0-1.7-0.2-2.5-0.5l-1.4-0.6l-1-0.4C573.2,697.4,575.8,695.9,579,695.9z"/>
		<path fill="#2B1212" d="M579,698.3c1.5,0,2.8,0.3,3.8,0.9l-0.8,0.3c0,0-0.1,0.1-0.1,0.1l-1.3,0.6c-0.8,0.4-1.6,0.5-2.5,0.5
			c-0.8,0-1.7-0.2-2.5-0.5l-1.1-0.5C575.4,698.9,577.1,698.3,579,698.3z"/>
		<path fill="#FFFFFF" d="M579,672.2c2.7,0,5-1,5.7-2.5l-2.7-1.1c0,0-0.1-0.1-0.1-0.1l-1.3-0.6c-0.8-0.4-1.6-0.5-2.5-0.5
			c-0.8,0-1.7,0.2-2.5,0.5l-1.4,0.6l-1,0.4C573.2,670.8,575.8,672.2,579,672.2z"/>
		<path fill="#2B1212" d="M579,669.8c1.5,0,2.8-0.3,3.8-0.9l-0.8-0.3c0,0-0.1-0.1-0.1-0.1l-1.3-0.6c-0.8-0.4-1.6-0.5-2.5-0.5
			c-0.8,0-1.7,0.2-2.5,0.5l-1.1,0.5C575.4,669.3,577.1,669.8,579,669.8z"/>
	</g>
	<g>
		<g>
			<path fill="#069AD7" d="M544.8,901.5l2.1,0.9c1.6,0.7,2.1,2.7,1.1,4l-34,43.2c-1.6,2-4.8,0.8-4.7-1.8l0.1-1.5
				c0.4-0.2,0.7-0.4,1-0.8l34-43.2C544.6,902.1,544.8,901.8,544.8,901.5z"/>
			<path fill="#1187C9" d="M528.3,894.6l16.5,6.9c-0.1,0.3-0.2,0.6-0.5,0.9l-34,43.2c-0.3,0.4-0.6,0.6-1,0.8l2.6-44.1
				c0.1-1,0.7-1.9,1.6-2.3l12.7-5.4C527,894.3,527.7,894.3,528.3,894.6z"/>
			<polygon fill="#F89522" points="511.2,916.9 510.3,932.4 537.1,898.2 528.6,894.7 			"/>
			<path fill="#D42328" d="M528.3,894.6c-0.7-0.3-1.4-0.3-2,0l-12.7,5.4c-0.9,0.4-1.5,1.3-1.6,2.3l-0.9,14.6l17.4-22.2L528.3,894.6z
				"/>
		</g>
		<g>
			<path fill="#069AD7" d="M544.8,889l2.1-0.9c1.6-0.7,2.1-2.7,1.1-4l-34-43.2c-1.6-2-4.8-0.8-4.7,1.8l0.1,1.5
				c0.4,0.2,0.7,0.4,1,0.8l34,43.2C544.6,888.4,544.8,888.7,544.8,889z"/>
			<path fill="#1187C9" d="M528.3,895.8l16.5-6.9c-0.1-0.3-0.2-0.6-0.5-0.9l-34-43.2c-0.3-0.4-0.6-0.6-1-0.8l2.6,44.1
				c0.1,1,0.7,1.9,1.6,2.3l12.7,5.4C527,896.1,527.7,896.1,528.3,895.8z"/>
			<polygon fill="#F89522" points="511.2,873.5 510.3,858.1 537.1,892.2 528.6,895.7 			"/>
			<path fill="#D42328" d="M528.3,895.8c-0.7,0.3-1.4,0.3-2,0l-12.7-5.4c-0.9-0.4-1.5-1.3-1.6-2.3l-0.9-14.6l17.4,22.2L528.3,895.8z
				"/>
		</g>
		<path fill="#2B1212" d="M569,893.8v2.6c0,1.9-1.3,3.7-3.2,4.2l-5.1,1.4c-2.8,0.8-5.5-1.3-5.5-4.2v-5.5c0-2.9,2.8-5,5.5-4.2
			l5.1,1.4C567.7,890.1,569,891.8,569,893.8z"/>
		<path fill="#F89522" d="M545.5,892.5v5.1c0,2.4-2,4.3-4.4,4.2l-58-2.6c-2.3-0.1-4.1-2-4.1-4.2l0,0c0-2.3,1.8-4.1,4.1-4.2l58-2.6
			C543.5,888.2,545.5,890.1,545.5,892.5z"/>
		<path fill="#069AD7" d="M512.1,889.6l5.5,5.5l-5.5,5.5l-29.1-1.3c-2.3-0.1-4.1-2-4.1-4.2c0-1.1,0.4-2.2,1.2-2.9
			c0.7-0.8,1.7-1.3,2.9-1.3L512.1,889.6z"/>
		<path fill="#D42328" d="M495,890.3l4.8,4.8l-4.8,4.8l-12-0.5c-2.3-0.1-4.1-2-4.1-4.2c0-1.1,0.4-2.2,1.2-2.9
			c0.7-0.8,1.7-1.3,2.9-1.3L495,890.3z"/>
		<path fill="#069AD7" d="M549.9,883.2c0.6,0,1.2,0.1,1.8,0.4l0.7,0.4c2,1.3,3.2,4,3.2,7.2v7.8c0,3.3-1.1,6-3.2,7.2l-0.8,0.4
			c-0.6,0.3-1.1,0.4-1.7,0.4c-0.6,0-1.2-0.1-1.8-0.4l-1-0.4l-7.9-3.2c-2.6-1.1-4.6-4.2-4.6-7.7v-0.5c0-3.5,2.1-6.6,4.6-7.7l7.8-3.2
			l1.1-0.4C548.7,883.3,549.4,883.2,549.9,883.2z"/>
		<path fill="#D42328" d="M549.9,883.2c1,0,1.9,0.3,2.8,0.8l-1-0.4C551.1,883.3,550.5,883.2,549.9,883.2z"/>
		<path fill="#1187C9" d="M552.4,884l7.3,3.2c2.6,1.1,3.9,4.2,3.9,7.7v0.5c0,3.5-1.2,6.6-3.8,7.7l-7.7,3.2c2-1.3,3.4-4,3.4-7.2v-7.8
			C555.6,888,554.4,885.3,552.4,884z"/>
		<path fill="#D42328" d="M549.9,883.2c-0.6,0-1.2,0.1-1.8,0.4l-1,0.4C548,883.4,549,883.2,549.9,883.2z"/>
		<path fill="#CCABA1" d="M549.9,899.9c2.2,0,4.2,0.5,5.9,1.3c1.3,0.6,2.3,1.5,3.1,2.4l-6.1,2.5c0,0-0.1,0-0.1,0.1l-1,0.4
			c-0.6,0.3-1.2,0.4-1.8,0.4c-0.6,0-1.2-0.1-1.8-0.4l-1-0.4l-6.2-2.6C542.6,901.4,546,899.9,549.9,899.9z"/>
		<path fill="#CCABA1" d="M549.9,890.3c2.2,0,4.2-0.5,5.9-1.3c1.3-0.6,2.3-1.5,3.1-2.4l-6.1-2.5c0,0-0.1,0-0.1-0.1l-1-0.4
			c-0.6-0.3-1.2-0.4-1.8-0.4c-0.6,0-1.2,0.1-1.8,0.4l-1,0.4l-6.2,2.6C542.6,888.8,546,890.3,549.9,890.3z"/>
		<path fill="#FFFFFF" d="M550.6,903.6c1.9,0,3.6,0.7,4.1,1.8l-1.9,0.8c0,0-0.1,0-0.1,0.1l-1,0.4c-0.6,0.3-1.2,0.4-1.8,0.4
			c-0.6,0-1.2-0.1-1.8-0.4l-1-0.4l-0.7-0.3C546.4,904.6,548.3,903.6,550.6,903.6z"/>
		<path fill="#2B1212" d="M550.6,905.3c1.1,0,2,0.2,2.7,0.6l-0.5,0.2c0,0-0.1,0-0.1,0.1l-1,0.4c-0.6,0.3-1.2,0.4-1.8,0.4
			c-0.6,0-1.2-0.1-1.8-0.4l-0.8-0.3C548,905.7,549.2,905.3,550.6,905.3z"/>
		<path fill="#FFFFFF" d="M550.6,886.6c1.9,0,3.6-0.7,4.1-1.8l-1.9-0.8c0,0-0.1,0-0.1-0.1l-1-0.4c-0.6-0.3-1.2-0.4-1.8-0.4
			c-0.6,0-1.2,0.1-1.8,0.4l-1,0.4l-0.7,0.3C546.4,885.6,548.3,886.6,550.6,886.6z"/>
		<path fill="#2B1212" d="M550.6,884.9c1.1,0,2-0.2,2.7-0.6l-0.5-0.2c0,0-0.1,0-0.1-0.1l-1-0.4c-0.6-0.3-1.2-0.4-1.8-0.4
			c-0.6,0-1.2,0.1-1.8,0.4l-0.8,0.3C548,884.5,549.2,884.9,550.6,884.9z"/>
	</g>
</g>
</svg>
