<?xml version="1.0" encoding="utf-8"?>
<!-- Generator: Adobe Illustrator 18.0.0, SVG Export Plug-In . SVG Version: 6.00 Build 0)  -->
<!DOCTYPE svg PUBLIC "-//W3C//DTD SVG 1.1//EN" "http://www.w3.org/Graphics/SVG/1.1/DTD/svg11.dtd">
<svg version="1.1" id="Layer_1" xmlns="http://www.w3.org/2000/svg" xmlns:xlink="http://www.w3.org/1999/xlink" x="0px" y="0px"
	 viewBox="0.1 -7.1 147.6 122" width="147" height="122" enable-background="new 0.1 -7.1 147.6 122" xml:space="preserve">
<g>
	<g>
		<path fill="#308357" d="M147.6,70.4c-0.8,22-19.1,39.6-41.3,39.6S66,92.5,65.1,70.4c0-0.6,0-1.1,0-1.7c0-17.4,10.6-32.2,25.9-38.2
			l3.6,3.6l13.1,13.1l12.5-12.5l3.4-3.4c14,6.4,24,20.8,24,37.5C147.6,69.4,147.6,70,147.6,70.4z"/>
		<path fill="#367C54" d="M147.6,68.9c0,0.6,0,1.1,0,1.7c-0.8,21.8-19.1,39.4-41.3,39.4c-11.4,0-21.8-4.7-29.3-12.1l58.5-58.3
			C142.9,47.1,147.6,57.5,147.6,68.9z"/>
		<path fill="#A18F32" d="M94.4,28.9v5.3c-14.8,4.9-28.2,19.5-29.3,37.1c0-0.8,0-1.7,0-2.3C65.1,51.6,73.2,34.4,94.4,28.9z"/>
		<path fill="#673F18" d="M106.2,110.1c-22,0-39.9-17.2-41.1-38.8c0,0.8,0,1.7,0,2.3c0,22.7,18.4,41.3,41.3,41.3
			s41.3-18.4,41.3-41.3c0-0.8,0-1.7,0-2.3C146.3,92.9,128.3,110.1,106.2,110.1z"/>
		<path fill="#A18F32" d="M117.7,28.9v5.3c17,4.9,28.6,19.5,29.7,37.1c0-0.8,0-1.7,0-2.3C147.4,51.6,138.9,34.4,117.7,28.9z"/>
	</g>
	<g>
		<path fill="#308357" d="M39.3,83.9c-0.4,10.4-9.1,18.9-19.5,18.9c-10.6,0-19.1-8.3-19.5-18.9c0-0.2,0-0.4,0-0.8
			c0-8.3,5.1-15.3,12.3-18.2l1.7,1.7l6.1,6.1l5.9-5.9l1.7-1.7c6.8,3.2,11.4,10,11.4,17.8C39.3,83.2,39.3,83.7,39.3,83.9z"/>
		<path fill="#367C54" d="M39.3,83c0,0.2,0,0.4,0,0.8c-0.4,10.4-9.1,18.9-19.5,18.9c-5.5,0-10.4-2.1-14-5.7l27.8-27.8
			C37.2,72.6,39.3,77.7,39.3,83z"/>
		<path fill="#A18F32" d="M14.1,64.2v2.5c-8.5,2.1-13.4,9.1-14,17.6c0-0.4,0-0.8,0-1.1C0.1,74.8,3.5,66.7,14.1,64.2z"/>
		<path fill="#673F18" d="M19.6,102.7c-10.4,0-18.9-8.1-19.5-18.4c0,0.4,0,0.8,0,1.1c0,10.8,8.7,19.5,19.5,19.5s19.5-8.7,19.5-19.5
			c0-0.4,0-0.8,0-1.1C38.7,94.5,30.2,102.7,19.6,102.7z"/>
		<path fill="#A18F32" d="M24.7,64.2v2.5C33.2,69,38.5,76,38.9,84.3c0-0.4-0.2-0.8-0.2-1.1C38.9,74.8,35.3,66.7,24.7,64.2z"/>
	</g>
</g>
<g>
	<g>
		<g>
			<path fill="#F3D7C9" d="M31.3,34.9L31.3,34.9c-1.9,0-3.5-1.6-3.5-3.5V18c0-1.9,1.6-3.5,3.5-3.5l0,0c1.9,0,3.5,1.6,3.5,3.5v13.4
				C34.7,33.3,33.2,34.9,31.3,34.9z"/>
		</g>
		<g>
			<path fill="#EBBAA4" d="M35.9,18v13.4c0,1.9-2,3.5-4,3.5V14.5c0,0,2.1,0.4,2.7,1C35.2,16.2,35.9,17.1,35.9,18z"/>
		</g>
		<g>
			<g>
				<path fill="#AC7D54" d="M14.2,88H10c-0.7,0-1.3-0.6-1.3-1.3l0,0c0-0.7,0.6-1.3,1.3-1.3h4.2c0.7,0,1.3,0.6,1.3,1.3l0,0
					C15.5,87.4,14.9,88,14.2,88z"/>
			</g>
			<g>
				<rect x="13.3" y="79.6" fill="#AC7D54" width="2.2" height="7.2"/>
			</g>
		</g>
		<g>
			<g>
				<path fill="#AC7D54" d="M25.5,88h4.2c0.7,0,1.3-0.6,1.3-1.3l0,0c0-0.7-0.6-1.3-1.3-1.3h-4.2c-0.7,0-1.3,0.6-1.3,1.3l0,0
					C24.1,87.4,24.7,88,25.5,88z"/>
			</g>
			<g>
				<rect x="24.1" y="79.6" fill="#AC7D54" width="2.2" height="7.2"/>
			</g>
		</g>
		<g>
			<path fill="#AC7D54" d="M33.8,68.3c-1.8-6.2-7.5-10.4-14-10.4c-6.4,0-12.1,4.3-13.9,10.3L2.1,67c1.1-3.7,3.5-7.1,6.6-9.4
				c3.3-2.5,7.1-3.8,11.1-3.8c8.1,0,15.5,5.5,17.8,13.3L33.8,68.3z"/>
		</g>
		<g>
			
				<rect x="6.2" y="34.3" transform="matrix(-0.7071 -0.7071 0.7071 -0.7071 -4.198262e-002 95.7355)" fill="#121618" width="27.2" height="27.2"/>
		</g>
		<g>
			<path fill="#AC7D54" d="M21.1,81.2h-2.7c-2.5,0-4.7-1.7-5.2-4.1L9.8,62.9c-0.8-3.4,1.8-6.6,5.2-6.6h9.6c3.5,0,6.1,3.3,5.2,6.6
				l-3.5,14.3C25.8,79.6,23.6,81.2,21.1,81.2z"/>
		</g>
		<g>
			<path fill="#121618" d="M39.5,43.8c0,1.4-0.1,2.6-0.4,4H0.6c-0.3-1.4-0.4-2.7-0.4-4C0.2,33,9,24.1,19.8,24.1S39.5,33,39.5,43.8z"
				/>
		</g>
		<g>
			<circle fill="#EBC7B5" cx="19.8" cy="44.5" r="16.5"/>
		</g>
		<g>
			<circle fill="#B1845D" cx="19.8" cy="44.5" r="16.5"/>
		</g>
		<g>
			<path fill="#1A1D20" d="M39.2,41.7H0.5c1-9.8,9.2-17.6,19.4-17.6S38.2,31.9,39.2,41.7z"/>
		</g>
		<g>
			<circle fill="#1A1D20" cx="29.2" cy="46.9" r="2.2"/>
		</g>
		<g>
			<circle fill="#1A1D20" cx="10.7" cy="46.9" r="2.2"/>
		</g>
		<g>
			<path fill="#F3D7C9" d="M24.8,83.2h-10c-1.5,0-2.7-1.2-2.7-2.7v-8.1h15.4v8.1C27.5,82,26.3,83.2,24.8,83.2z"/>
		</g>
		<g>
			<circle fill="#AC7D54" cx="35.7" cy="67.8" r="3.5"/>
		</g>
		<g>
			<circle fill="#AC7D54" cx="4.1" cy="67.8" r="3.5"/>
		</g>
		<g>
			<path fill="#C1282D" d="M34.3,50.7c-0.5,1-1,3-1.6,3h-9.9l-3-3l-3,3h-10c-0.6,0-1.1-2-1.6-3h10.6l4-4l4,4H34.3z"/>
		</g>
	</g>
	<g>
		<g>
			<path fill="#F3D7C9" d="M119.7,13.3L119.7,13.3c-1.9,0-3.5-1.6-3.5-3.5V-3.6c0-1.9,1.6-3.5,3.5-3.5l0,0c1.9,0,3.5,1.6,3.5,3.5
				V9.8C123.1,11.7,121.6,13.3,119.7,13.3z"/>
		</g>
		<g>
			<path fill="#EBBAA4" d="M123.6-3.6V9.8c0,1.9-2,3.5-4,3.5V-7.1c1,0,2.1,0.4,2.7,1C122.9-5.4,123.6-4.6,123.6-3.6z"/>
		</g>
		<g>
			<g>
				<path fill="#AC7D54" d="M102.6,79.6h-4.2c-0.7,0-1.3-0.6-1.3-1.3l0,0c0-0.7,0.6-1.3,1.3-1.3h4.2c0.7,0,1.3,0.6,1.3,1.3l0,0
					C103.9,79,103.3,79.6,102.6,79.6z"/>
			</g>
			<g>
				<rect x="101.7" y="65.6" fill="#AC7D54" width="2.2" height="12.7"/>
			</g>
		</g>
		<g>
			<g>
				<path fill="#AC7D54" d="M113.9,79.6h4.2c0.7,0,1.3-0.6,1.3-1.3l0,0c0-0.7-0.6-1.3-1.3-1.3h-4.2c-0.7,0-1.3,0.6-1.3,1.3l0,0
					C112.5,79,113.1,79.6,113.9,79.6z"/>
			</g>
			<g>
				<rect x="112.5" y="65.6" fill="#AC7D54" width="2.2" height="12.7"/>
			</g>
		</g>
		<g>
			<path fill="#AC7D54" d="M127.3,50.7c-2.5-8.4-10.3-14.4-19.2-14.4c-8.7,0-16.6,5.9-19.2,14.2l-3.8-1.2c1.5-4.9,4.5-9.1,8.5-12.2
				c4.2-3.2,9.1-4.9,14.4-4.9c5.3,0,10.3,1.7,14.5,4.9c4.1,3.1,7.1,7.4,8.5,12.3L127.3,50.7z"/>
		</g>
		<g>
			
				<rect x="94.6" y="12.6" transform="matrix(-0.7071 -0.7071 0.7071 -0.7071 166.231 121.3478)" fill="#121618" width="27.2" height="27.2"/>
		</g>
		<g>
			<path fill="#AC7D54" d="M109.5,67.2h-2.7c-2.5,0-4.7-1.7-5.2-4.1l-3.5-21.9c-0.8-3.4,1.8-6.6,5.2-6.6h9.6c3.5,0,6.1,3.3,5.2,6.6
				l-3.5,21.9C114.2,65.6,112,67.2,109.5,67.2z"/>
		</g>
		<g>
			<path fill="#121618" d="M127.8,22.2c0,1.4-0.1,2.6-0.4,4H89c-0.3-1.4-0.4-2.7-0.4-4c0-10.8,8.8-19.7,19.7-19.7
				S127.8,11.4,127.8,22.2z"/>
		</g>
		<g>
			<circle fill="#EBC7B5" cx="108.2" cy="22.8" r="16.5"/>
		</g>
		<g>
			<circle fill="#B1845D" cx="108.2" cy="22.8" r="16.5"/>
		</g>
		<g>
			<path fill="#1A1D20" d="M127.6,20.2H88.9c1-9.8,9.2-17.6,19.4-17.6S126.6,10.3,127.6,20.2z"/>
		</g>
		<g>
			<circle fill="#1A1D20" cx="117.6" cy="25.3" r="2.2"/>
		</g>
		<g>
			<circle fill="#1A1D20" cx="99.1" cy="25.3" r="2.2"/>
		</g>
		<g>
			<path fill="#F3D7C9" d="M113.2,69.2h-10c-1.5,0-2.7-1.2-2.7-2.7v-8.1h15.4v8C115.9,67.9,114.7,69.2,113.2,69.2z"/>
		</g>
		<g>
			<circle fill="#AC7D54" cx="129.3" cy="50.2" r="4.6"/>
		</g>
		<g>
			<circle fill="#AC7D54" cx="87.3" cy="50.2" r="4.6"/>
		</g>
		<g>
			<path fill="#C1282D" d="M122.7,29.7c-0.5,1-1,1-1.6,3h-9.9l-3-3l-3,3h-10c-0.6-2-1.1-2-1.6-3h10.6l4-4l4,4H122.7z"/>
		</g>
	</g>
</g>
</svg>
