<?xml version="1.0" encoding="utf-8"?>
<!-- Generator: Adobe Illustrator 18.0.0, SVG Export Plug-In . SVG Version: 6.00 Build 0)  -->
<!DOCTYPE svg PUBLIC "-//W3C//DTD SVG 1.1//EN" "http://www.w3.org/Graphics/SVG/1.1/DTD/svg11.dtd">
<svg version="1.1" id="Layer_1" xmlns="http://www.w3.org/2000/svg" xmlns:xlink="http://www.w3.org/1999/xlink" x="0px" y="0px" width="274.8" height="350.1"
	 viewBox="0 0 274.8 350.1" enable-background="new 0 0 274.8 350.1" xml:space="preserve" >
<g>
	<polygon fill="#F7F8F8" points="264.3,96 259.5,93.9 262.7,97.6 	"/>
	<polygon fill="#F7F8F8" points="265.9,94.4 261.1,92.4 264.3,96 	"/>
	<polygon fill="#F7F8F8" points="262.7,97.6 257.9,95.5 261.1,99.2 	"/>
	<polygon fill="#F7F8F8" points="259.5,100.7 254.8,98.7 258,102.3 	"/>
	<polygon fill="#F7F8F8" points="261.1,99.2 256.4,97.1 259.6,100.8 	"/>
	<polygon fill="#F7F8F8" points="257.9,102.3 253.2,100.3 256.4,103.9 	"/>
	<polygon fill="#F7F8F8" points="252,101.4 254.4,95.8 250.1,99.6 	"/>
	<polygon fill="#F7F8F8" points="250.2,99.5 252.6,94 248.3,97.7 	"/>
	<polygon fill="#F7F8F8" points="246.5,95.8 248.9,90.3 244.6,94 	"/>
	<polygon fill="#F7F8F8" points="248.3,97.7 250.7,92.1 246.4,95.9 	"/>
	<polygon fill="#F7F8F8" points="244.6,94 247,88.4 242.7,92.2 	"/>
	<polygon fill="#048F4A" points="252.2,124.5 264.4,107.3 274.8,114.7 260.9,130.7 	"/>
	<path fill="#048F4A" d="M252.7,130.2l6.9,6.8c0.2,0.2,0.5,0,0.4-0.2l-1.9-8.8h-10.4l-0.4-0.2l0,0.1l0,0.1h0v0.2l-1.7,8.1
		c-0.1,0.4,0.4,0.6,0.7,0.4L252.7,130.2L252.7,130.2z"/>
	<path fill="#69A443" d="M248,128.4c-0.5-0.3-0.9-0.6-1.4-0.9c-0.1-0.1-0.2-0.1-0.3-0.2c-0.1-0.1-0.2-0.1-0.3-0.2
		c-0.1-0.1-0.3-0.2-0.4-0.3c-0.2-0.1-0.4-0.3-0.5-0.4c0,0,0,0,0,0c-0.1-0.1-0.2-0.2-0.3-0.3c-0.1-0.1-0.2-0.2-0.3-0.3
		c-0.2-0.1-0.3-0.3-0.5-0.4c-4.3-4.2-7-10.6-7-17.7c0-5.3,1.5-10.2,4.1-14.1c0.4-0.6,0.8-1.1,1.2-1.7c0.1-0.1,0.2-0.3,0.4-0.4
		c0.1-0.1,0.2-0.2,0.2-0.3l13,13l9.9-9.9c2.3,3.8,3.6,8.3,3.6,13.3c0,9.1-4.5,17-11,20.7C255.1,130.3,251.3,130.3,248,128.4z"/>
	<path fill="#3C9D47" d="M248,128.4c-0.5-0.3-0.9-0.6-1.4-0.9c-0.1-0.1-0.2-0.1-0.3-0.2c-0.1-0.1-0.2-0.1-0.3-0.2
		c-0.1-0.1-0.3-0.2-0.4-0.3c-0.2-0.1-0.4-0.3-0.5-0.4c0,0,0,0,0,0c-0.1-0.1-0.2-0.2-0.3-0.3c-0.1-0.1-0.2-0.2-0.3-0.3
		c-0.2-0.1-0.3-0.3-0.5-0.4c0.3-10.1,8.7-12.8,12.1-21.3l9.7-9.7c2.3,3.8,3.6,8.3,3.6,13.3c0,9.1-4.5,17-11,20.7
		C255.1,130.3,251.3,130.3,248,128.4z"/>
	<circle fill="#69A443" cx="261.7" cy="108.8" r="7.1"/>
	<circle fill="#F7F8F8" cx="261.7" cy="108.8" r="6"/>
	<circle fill="#1A1A1A" cx="261.7" cy="108.8" r="2.2"/>
</g>
<g>
	<polygon fill="#F7F8F8" points="265.5,5.9 261.7,4.3 264.2,7.2 	"/>
	<polygon fill="#F7F8F8" points="266.7,4.7 263,3.1 265.5,5.9 	"/>
	<polygon fill="#F7F8F8" points="264.2,7.2 260.5,5.6 263,8.4 	"/>
	<polygon fill="#F7F8F8" points="261.7,9.6 258,8 260.5,10.9 	"/>
	<polygon fill="#F7F8F8" points="263,8.4 259.3,6.8 261.8,9.7 	"/>
	<polygon fill="#F7F8F8" points="260.5,10.9 256.8,9.3 259.3,12.1 	"/>
	<polygon fill="#F7F8F8" points="255.9,10.1 257.7,5.8 254.4,8.7 	"/>
	<polygon fill="#F7F8F8" points="254.4,8.7 256.3,4.3 252.9,7.3 	"/>
	<polygon fill="#F7F8F8" points="251.5,5.8 253.4,1.5 250,4.4 	"/>
	<polygon fill="#F7F8F8" points="253,7.2 254.8,2.9 251.5,5.8 	"/>
	<polygon fill="#F7F8F8" points="250.1,4.3 251.9,0 248.6,2.9 	"/>
	<polygon fill="#048F4A" points="256,28.2 265.6,14.8 273.7,20.6 262.8,33.1 	"/>
	<path fill="#048F4A" d="M256.4,32.7l5.4,5.3c0.1,0.1,0.4,0,0.3-0.2l-1.5-6.9h-8.2l-0.3-0.1l0,0l0,0.1h0v0.1l-1.3,6.3
		c-0.1,0.3,0.3,0.5,0.5,0.3L256.4,32.7L256.4,32.7z"/>
	<path fill="#69A443" d="M252.8,31.3c-0.4-0.2-0.7-0.4-1.1-0.7c-0.1-0.1-0.2-0.1-0.2-0.2c-0.1-0.1-0.1-0.1-0.2-0.2
		c-0.1-0.1-0.2-0.2-0.3-0.2c-0.1-0.1-0.3-0.2-0.4-0.3c0,0,0,0,0,0c-0.1-0.1-0.2-0.1-0.2-0.2c-0.1-0.1-0.2-0.1-0.2-0.2
		c-0.1-0.1-0.2-0.2-0.4-0.3c-3.4-3.3-5.5-8.3-5.5-13.8c0-4.1,1.2-8,3.2-11c0.3-0.5,0.6-0.9,0.9-1.3c0.1-0.1,0.2-0.2,0.3-0.3
		c0.1-0.1,0.1-0.1,0.2-0.2l10.2,10.2l7.7-7.7c1.8,2.9,2.8,6.5,2.8,10.4c0,7.1-3.5,13.3-8.6,16.2C258.3,32.8,255.3,32.8,252.8,31.3z"
		/>
	<path fill="#3C9D47" d="M252.8,31.3c-0.4-0.2-0.7-0.4-1.1-0.7c-0.1-0.1-0.2-0.1-0.2-0.2c-0.1-0.1-0.1-0.1-0.2-0.2
		c-0.1-0.1-0.2-0.2-0.3-0.2c-0.1-0.1-0.3-0.2-0.4-0.3c0,0,0,0,0,0c-0.1-0.1-0.2-0.1-0.2-0.2c-0.1-0.1-0.2-0.1-0.2-0.2
		c-0.1-0.1-0.2-0.2-0.4-0.3c0.2-7.9,6.8-10,9.4-16.7l7.6-7.6c1.8,2.9,2.8,6.5,2.8,10.4c0,7.1-3.5,13.3-8.6,16.2
		C258.3,32.8,255.3,32.8,252.8,31.3z"/>
	<circle fill="#69A443" cx="263.5" cy="15.9" r="5.5"/>
	<circle fill="#F7F8F8" cx="263.5" cy="15.9" r="4.7"/>
	<circle fill="#1A1A1A" cx="263.5" cy="15.9" r="1.7"/>
</g>
<g>
	<polygon fill="#F7F8F8" points="27.3,96 22.5,93.9 25.7,97.6 	"/>
	<polygon fill="#F7F8F8" points="28.9,94.4 24.1,92.4 27.3,96 	"/>
	<polygon fill="#F7F8F8" points="25.7,97.6 20.9,95.5 24.1,99.2 	"/>
	<polygon fill="#F7F8F8" points="22.5,100.7 17.8,98.7 21,102.3 	"/>
	<polygon fill="#F7F8F8" points="24.1,99.2 19.4,97.1 22.6,100.8 	"/>
	<polygon fill="#F7F8F8" points="20.9,102.3 16.2,100.3 19.4,103.9 	"/>
	<polygon fill="#F7F8F8" points="15,101.4 17.4,95.8 13.1,99.6 	"/>
	<polygon fill="#F7F8F8" points="13.2,99.5 15.6,94 11.3,97.7 	"/>
	<polygon fill="#F7F8F8" points="9.5,95.8 11.9,90.3 7.6,94 	"/>
	<polygon fill="#F7F8F8" points="11.3,97.7 13.7,92.1 9.4,95.9 	"/>
	<polygon fill="#F7F8F8" points="7.6,94 10,88.4 5.7,92.2 	"/>
	<polygon fill="#048F4A" points="15.2,124.5 27.4,107.3 37.8,114.7 23.9,130.7 	"/>
	<path fill="#048F4A" d="M15.7,130.2l6.9,6.8c0.2,0.2,0.5,0,0.4-0.2l-1.9-8.8H10.7l-0.4-0.2l0,0.1l0,0.1h0v0.2l-1.7,8.1
		c-0.1,0.4,0.4,0.6,0.7,0.4L15.7,130.2L15.7,130.2z"/>
	<path fill="#69A443" d="M11,128.4c-0.5-0.3-0.9-0.6-1.4-0.9c-0.1-0.1-0.2-0.1-0.3-0.2c-0.1-0.1-0.2-0.1-0.3-0.2
		c-0.1-0.1-0.3-0.2-0.4-0.3c-0.2-0.1-0.4-0.3-0.5-0.4c0,0,0,0,0,0c-0.1-0.1-0.2-0.2-0.3-0.3c-0.1-0.1-0.2-0.2-0.3-0.3
		c-0.2-0.1-0.3-0.3-0.5-0.4c-4.3-4.2-7-10.6-7-17.7c0-5.3,1.5-10.2,4.1-14.1c0.4-0.6,0.8-1.1,1.2-1.7c0.1-0.1,0.2-0.3,0.4-0.4
		c0.1-0.1,0.2-0.2,0.2-0.3l13,13l9.9-9.9c2.3,3.8,3.6,8.3,3.6,13.3c0,9.1-4.5,17-11,20.7C18.1,130.3,14.3,130.3,11,128.4z"/>
	<path fill="#3C9D47" d="M11,128.4c-0.5-0.3-0.9-0.6-1.4-0.9c-0.1-0.1-0.2-0.1-0.3-0.2c-0.1-0.1-0.2-0.1-0.3-0.2
		c-0.1-0.1-0.3-0.2-0.4-0.3c-0.2-0.1-0.4-0.3-0.5-0.4c0,0,0,0,0,0c-0.1-0.1-0.2-0.2-0.3-0.3c-0.1-0.1-0.2-0.2-0.3-0.3
		c-0.2-0.1-0.3-0.3-0.5-0.4c0.3-10.1,8.7-12.8,12.1-21.3l9.7-9.7c2.3,3.8,3.6,8.3,3.6,13.3c0,9.1-4.5,17-11,20.7
		C18.1,130.3,14.3,130.3,11,128.4z"/>
	<circle fill="#69A443" cx="24.7" cy="108.8" r="7.1"/>
	<circle fill="#F7F8F8" cx="24.7" cy="108.8" r="6"/>
	<circle fill="#1A1A1A" cx="24.7" cy="108.8" r="2.2"/>
</g>
<g>
	<polygon fill="#F7F8F8" points="28.5,5.9 24.7,4.3 27.2,7.2 	"/>
	<polygon fill="#F7F8F8" points="29.7,4.7 26,3.1 28.5,5.9 	"/>
	<polygon fill="#F7F8F8" points="27.2,7.2 23.5,5.6 26,8.4 	"/>
	<polygon fill="#F7F8F8" points="24.7,9.6 21,8 23.5,10.9 	"/>
	<polygon fill="#F7F8F8" points="26,8.4 22.3,6.8 24.8,9.7 	"/>
	<polygon fill="#F7F8F8" points="23.5,10.9 19.8,9.3 22.3,12.1 	"/>
	<polygon fill="#F7F8F8" points="18.9,10.1 20.7,5.8 17.4,8.7 	"/>
	<polygon fill="#F7F8F8" points="17.4,8.7 19.3,4.3 15.9,7.3 	"/>
	<polygon fill="#F7F8F8" points="14.5,5.8 16.4,1.5 13,4.4 	"/>
	<polygon fill="#F7F8F8" points="16,7.2 17.8,2.9 14.5,5.8 	"/>
	<polygon fill="#F7F8F8" points="13.1,4.3 14.9,0 11.6,2.9 	"/>
	<polygon fill="#048F4A" points="19,28.2 28.6,14.8 36.7,20.6 25.8,33.1 	"/>
	<path fill="#048F4A" d="M19.4,32.7l5.4,5.3c0.1,0.1,0.4,0,0.3-0.2L23.6,31h-8.2l-0.3-0.1l0,0l0,0.1h0v0.1l-1.3,6.3
		c-0.1,0.3,0.3,0.5,0.5,0.3L19.4,32.7L19.4,32.7z"/>
	<path fill="#69A443" d="M15.8,31.3c-0.4-0.2-0.7-0.4-1.1-0.7c-0.1-0.1-0.2-0.1-0.2-0.2c-0.1-0.1-0.1-0.1-0.2-0.2
		c-0.1-0.1-0.2-0.2-0.3-0.2c-0.1-0.1-0.3-0.2-0.4-0.3c0,0,0,0,0,0c-0.1-0.1-0.2-0.1-0.2-0.2c-0.1-0.1-0.2-0.1-0.2-0.2
		c-0.1-0.1-0.2-0.2-0.4-0.3c-3.4-3.3-5.5-8.3-5.5-13.8c0-4.1,1.2-8,3.2-11c0.3-0.5,0.6-0.9,0.9-1.3c0.1-0.1,0.2-0.2,0.3-0.3
		c0.1-0.1,0.1-0.1,0.2-0.2l10.2,10.2l7.7-7.7c1.8,2.9,2.8,6.5,2.8,10.4c0,7.1-3.5,13.3-8.6,16.2C21.3,32.8,18.3,32.8,15.8,31.3z"/>
	<path fill="#3C9D47" d="M15.8,31.3c-0.4-0.2-0.7-0.4-1.1-0.7c-0.1-0.1-0.2-0.1-0.2-0.2c-0.1-0.1-0.1-0.1-0.2-0.2
		c-0.1-0.1-0.2-0.2-0.3-0.2c-0.1-0.1-0.3-0.2-0.4-0.3c0,0,0,0,0,0c-0.1-0.1-0.2-0.1-0.2-0.2c-0.1-0.1-0.2-0.1-0.2-0.2
		c-0.1-0.1-0.2-0.2-0.4-0.3c0.2-7.9,6.8-10,9.4-16.7l7.6-7.6c1.8,2.9,2.8,6.5,2.8,10.4c0,7.1-3.5,13.3-8.6,16.2
		C21.3,32.8,18.3,32.8,15.8,31.3z"/>
	<circle fill="#69A443" cx="26.5" cy="15.9" r="5.5"/>
	<circle fill="#F7F8F8" cx="26.5" cy="15.9" r="4.7"/>
	<circle fill="#1A1A1A" cx="26.5" cy="15.9" r="1.7"/>
</g>
<g>
	<polygon fill="#F7F8F8" points="142.3,96 137.5,93.9 140.7,97.6 	"/>
	<polygon fill="#F7F8F8" points="143.9,94.4 139.1,92.4 142.3,96 	"/>
	<polygon fill="#F7F8F8" points="140.7,97.6 135.9,95.5 139.1,99.2 	"/>
	<polygon fill="#F7F8F8" points="137.5,100.7 132.8,98.7 136,102.3 	"/>
	<polygon fill="#F7F8F8" points="139.1,99.2 134.4,97.1 137.6,100.8 	"/>
	<polygon fill="#F7F8F8" points="135.9,102.3 131.2,100.3 134.4,103.9 	"/>
	<polygon fill="#F7F8F8" points="130,101.4 132.4,95.8 128.1,99.6 	"/>
	<polygon fill="#F7F8F8" points="128.2,99.5 130.6,94 126.3,97.7 	"/>
	<polygon fill="#F7F8F8" points="124.5,95.8 126.9,90.3 122.6,94 	"/>
	<polygon fill="#F7F8F8" points="126.3,97.7 128.7,92.1 124.4,95.9 	"/>
	<polygon fill="#F7F8F8" points="122.6,94 125,88.4 120.7,92.2 	"/>
	<polygon fill="#048F4A" points="130.2,124.5 142.4,107.3 152.8,114.7 138.9,130.7 	"/>
	<path fill="#048F4A" d="M130.7,130.2l6.9,6.8c0.2,0.2,0.5,0,0.4-0.2l-1.9-8.8h-10.4l-0.4-0.2l0,0.1l0,0.1h0v0.2l-1.7,8.1
		c-0.1,0.4,0.4,0.6,0.7,0.4L130.7,130.2L130.7,130.2z"/>
	<path fill="#69A443" d="M126,128.4c-0.5-0.3-0.9-0.6-1.4-0.9c-0.1-0.1-0.2-0.1-0.3-0.2c-0.1-0.1-0.2-0.1-0.3-0.2
		c-0.1-0.1-0.3-0.2-0.4-0.3c-0.2-0.1-0.4-0.3-0.5-0.4c0,0,0,0,0,0c-0.1-0.1-0.2-0.2-0.3-0.3c-0.1-0.1-0.2-0.2-0.3-0.3
		c-0.2-0.1-0.3-0.3-0.5-0.4c-4.3-4.2-7-10.6-7-17.7c0-5.3,1.5-10.2,4.1-14.1c0.4-0.6,0.8-1.1,1.2-1.7c0.1-0.1,0.2-0.3,0.4-0.4
		c0.1-0.1,0.2-0.2,0.2-0.3l13,13l9.9-9.9c2.3,3.8,3.6,8.3,3.6,13.3c0,9.1-4.5,17-11,20.7C133.1,130.3,129.3,130.3,126,128.4z"/>
	<path fill="#3C9D47" d="M126,128.4c-0.5-0.3-0.9-0.6-1.4-0.9c-0.1-0.1-0.2-0.1-0.3-0.2c-0.1-0.1-0.2-0.1-0.3-0.2
		c-0.1-0.1-0.3-0.2-0.4-0.3c-0.2-0.1-0.4-0.3-0.5-0.4c0,0,0,0,0,0c-0.1-0.1-0.2-0.2-0.3-0.3c-0.1-0.1-0.2-0.2-0.3-0.3
		c-0.2-0.1-0.3-0.3-0.5-0.4c0.3-10.1,8.7-12.8,12.1-21.3l9.7-9.7c2.3,3.8,3.6,8.3,3.6,13.3c0,9.1-4.5,17-11,20.7
		C133.1,130.3,129.3,130.3,126,128.4z"/>
	<circle fill="#69A443" cx="139.7" cy="108.8" r="7.1"/>
	<circle fill="#F7F8F8" cx="139.7" cy="108.8" r="6"/>
	<circle fill="#1A1A1A" cx="139.7" cy="108.8" r="2.2"/>
</g>
<g>
	<polygon fill="#F7F8F8" points="143.5,5.9 139.7,4.3 142.2,7.2 	"/>
	<polygon fill="#F7F8F8" points="144.7,4.7 141,3.1 143.5,5.9 	"/>
	<polygon fill="#F7F8F8" points="142.2,7.2 138.5,5.6 141,8.4 	"/>
	<polygon fill="#F7F8F8" points="139.7,9.6 136,8 138.5,10.9 	"/>
	<polygon fill="#F7F8F8" points="141,8.4 137.3,6.8 139.8,9.7 	"/>
	<polygon fill="#F7F8F8" points="138.5,10.9 134.8,9.3 137.3,12.1 	"/>
	<polygon fill="#F7F8F8" points="133.9,10.1 135.7,5.8 132.4,8.7 	"/>
	<polygon fill="#F7F8F8" points="132.4,8.7 134.3,4.3 130.9,7.3 	"/>
	<polygon fill="#F7F8F8" points="129.5,5.8 131.4,1.5 128,4.4 	"/>
	<polygon fill="#F7F8F8" points="131,7.2 132.8,2.9 129.5,5.8 	"/>
	<polygon fill="#F7F8F8" points="128.1,4.3 129.9,0 126.6,2.9 	"/>
	<polygon fill="#048F4A" points="134,28.2 143.6,14.8 151.7,20.6 140.8,33.1 	"/>
	<path fill="#048F4A" d="M134.4,32.7l5.4,5.3c0.1,0.1,0.4,0,0.3-0.2l-1.5-6.9h-8.2l-0.3-0.1l0,0l0,0.1h0v0.1l-1.3,6.3
		c-0.1,0.3,0.3,0.5,0.5,0.3L134.4,32.7L134.4,32.7z"/>
	<path fill="#69A443" d="M130.8,31.3c-0.4-0.2-0.7-0.4-1.1-0.7c-0.1-0.1-0.2-0.1-0.2-0.2c-0.1-0.1-0.1-0.1-0.2-0.2
		c-0.1-0.1-0.2-0.2-0.3-0.2c-0.1-0.1-0.3-0.2-0.4-0.3c0,0,0,0,0,0c-0.1-0.1-0.2-0.1-0.2-0.2c-0.1-0.1-0.2-0.1-0.2-0.2
		c-0.1-0.1-0.2-0.2-0.4-0.3c-3.4-3.3-5.5-8.3-5.5-13.8c0-4.1,1.2-8,3.2-11c0.3-0.5,0.6-0.9,0.9-1.3c0.1-0.1,0.2-0.2,0.3-0.3
		c0.1-0.1,0.1-0.1,0.2-0.2l10.2,10.2l7.7-7.7c1.8,2.9,2.8,6.5,2.8,10.4c0,7.1-3.5,13.3-8.6,16.2C136.3,32.8,133.3,32.8,130.8,31.3z"
		/>
	<path fill="#3C9D47" d="M130.8,31.3c-0.4-0.2-0.7-0.4-1.1-0.7c-0.1-0.1-0.2-0.1-0.2-0.2c-0.1-0.1-0.1-0.1-0.2-0.2
		c-0.1-0.1-0.2-0.2-0.3-0.2c-0.1-0.1-0.3-0.2-0.4-0.3c0,0,0,0,0,0c-0.1-0.1-0.2-0.1-0.2-0.2c-0.1-0.1-0.2-0.1-0.2-0.2
		c-0.1-0.1-0.2-0.2-0.4-0.3c0.2-7.9,6.8-10,9.4-16.7l7.6-7.6c1.8,2.9,2.8,6.5,2.8,10.4c0,7.1-3.5,13.3-8.6,16.2
		C136.3,32.8,133.3,32.8,130.8,31.3z"/>
	<circle fill="#69A443" cx="141.5" cy="15.9" r="5.5"/>
	<circle fill="#F7F8F8" cx="141.5" cy="15.9" r="4.7"/>
	<circle fill="#1A1A1A" cx="141.5" cy="15.9" r="1.7"/>
</g>
<g>
	<polygon fill="#F7F8F8" points="264.3,309 259.5,306.9 262.7,310.6 	"/>
	<polygon fill="#F7F8F8" points="265.9,307.4 261.1,305.4 264.3,309 	"/>
	<polygon fill="#F7F8F8" points="262.7,310.6 257.9,308.5 261.1,312.2 	"/>
	<polygon fill="#F7F8F8" points="259.5,313.7 254.8,311.7 258,315.3 	"/>
	<polygon fill="#F7F8F8" points="261.1,312.2 256.4,310.1 259.6,313.8 	"/>
	<polygon fill="#F7F8F8" points="257.9,315.3 253.2,313.3 256.4,316.9 	"/>
	<polygon fill="#F7F8F8" points="252,314.4 254.4,308.8 250.1,312.6 	"/>
	<polygon fill="#F7F8F8" points="250.2,312.5 252.6,307 248.3,310.7 	"/>
	<polygon fill="#F7F8F8" points="246.5,308.8 248.9,303.3 244.6,307 	"/>
	<polygon fill="#F7F8F8" points="248.3,310.7 250.7,305.1 246.4,308.9 	"/>
	<polygon fill="#F7F8F8" points="244.6,307 247,301.4 242.7,305.2 	"/>
	<polygon fill="#048F4A" points="252.2,337.5 264.4,320.3 274.8,327.7 260.9,343.7 	"/>
	<path fill="#048F4A" d="M252.7,343.2l6.9,6.8c0.2,0.2,0.5,0,0.4-0.2l-1.9-8.8h-10.4l-0.4-0.2l0,0.1l0,0.1h0v0.2l-1.7,8.1
		c-0.1,0.4,0.4,0.6,0.7,0.4L252.7,343.2L252.7,343.2z"/>
	<path fill="#69A443" d="M248,341.4c-0.5-0.3-0.9-0.6-1.4-0.9c-0.1-0.1-0.2-0.1-0.3-0.2c-0.1-0.1-0.2-0.1-0.3-0.2
		c-0.1-0.1-0.3-0.2-0.4-0.3c-0.2-0.1-0.4-0.3-0.5-0.4c0,0,0,0,0,0c-0.1-0.1-0.2-0.2-0.3-0.3c-0.1-0.1-0.2-0.2-0.3-0.3
		c-0.2-0.1-0.3-0.3-0.5-0.4c-4.3-4.2-7-10.6-7-17.7c0-5.3,1.5-10.2,4.1-14.1c0.4-0.6,0.8-1.1,1.2-1.7c0.1-0.1,0.2-0.3,0.4-0.4
		c0.1-0.1,0.2-0.2,0.2-0.3l13,13l9.9-9.9c2.3,3.8,3.6,8.3,3.6,13.3c0,9.1-4.5,17-11,20.7C255.1,343.3,251.3,343.3,248,341.4z"/>
	<path fill="#3C9D47" d="M248,341.4c-0.5-0.3-0.9-0.6-1.4-0.9c-0.1-0.1-0.2-0.1-0.3-0.2c-0.1-0.1-0.2-0.1-0.3-0.2
		c-0.1-0.1-0.3-0.2-0.4-0.3c-0.2-0.1-0.4-0.3-0.5-0.4c0,0,0,0,0,0c-0.1-0.1-0.2-0.2-0.3-0.3c-0.1-0.1-0.2-0.2-0.3-0.3
		c-0.2-0.1-0.3-0.3-0.5-0.4c0.3-10.1,8.7-12.8,12.1-21.3l9.7-9.7c2.3,3.8,3.6,8.3,3.6,13.3c0,9.1-4.5,17-11,20.7
		C255.1,343.3,251.3,343.3,248,341.4z"/>
	<circle fill="#69A443" cx="261.7" cy="321.8" r="7.1"/>
	<circle fill="#F7F8F8" cx="261.7" cy="321.8" r="6"/>
	<circle fill="#1A1A1A" cx="261.7" cy="321.8" r="2.2"/>
</g>
<g>
	<polygon fill="#F7F8F8" points="265.5,218.9 261.7,217.3 264.2,220.2 	"/>
	<polygon fill="#F7F8F8" points="266.7,217.7 263,216.1 265.5,218.9 	"/>
	<polygon fill="#F7F8F8" points="264.2,220.2 260.5,218.6 263,221.4 	"/>
	<polygon fill="#F7F8F8" points="261.7,222.6 258,221 260.5,223.9 	"/>
	<polygon fill="#F7F8F8" points="263,221.4 259.3,219.8 261.8,222.7 	"/>
	<polygon fill="#F7F8F8" points="260.5,223.9 256.8,222.3 259.3,225.1 	"/>
	<polygon fill="#F7F8F8" points="255.9,223.1 257.7,218.8 254.4,221.7 	"/>
	<polygon fill="#F7F8F8" points="254.4,221.7 256.3,217.3 252.9,220.3 	"/>
	<polygon fill="#F7F8F8" points="251.5,218.8 253.4,214.5 250,217.4 	"/>
	<polygon fill="#F7F8F8" points="253,220.2 254.8,215.9 251.5,218.8 	"/>
	<polygon fill="#F7F8F8" points="250.1,217.3 251.9,213 248.6,215.9 	"/>
	<polygon fill="#048F4A" points="256,241.2 265.6,227.8 273.7,233.6 262.8,246.1 	"/>
	<path fill="#048F4A" d="M256.4,245.7l5.4,5.3c0.1,0.1,0.4,0,0.3-0.2l-1.5-6.9h-8.2l-0.3-0.1l0,0l0,0.1h0v0.1l-1.3,6.3
		c-0.1,0.3,0.3,0.5,0.5,0.3L256.4,245.7L256.4,245.7z"/>
	<path fill="#69A443" d="M252.8,244.3c-0.4-0.2-0.7-0.4-1.1-0.7c-0.1-0.1-0.2-0.1-0.2-0.2c-0.1-0.1-0.1-0.1-0.2-0.2
		c-0.1-0.1-0.2-0.2-0.3-0.2c-0.1-0.1-0.3-0.2-0.4-0.3c0,0,0,0,0,0c-0.1-0.1-0.2-0.1-0.2-0.2c-0.1-0.1-0.2-0.1-0.2-0.2
		c-0.1-0.1-0.2-0.2-0.4-0.3c-3.4-3.3-5.5-8.3-5.5-13.8c0-4.1,1.2-8,3.2-11c0.3-0.5,0.6-0.9,0.9-1.3c0.1-0.1,0.2-0.2,0.3-0.3
		c0.1-0.1,0.1-0.1,0.2-0.2l10.2,10.2l7.7-7.7c1.8,2.9,2.8,6.5,2.8,10.4c0,7.1-3.5,13.3-8.6,16.2
		C258.3,245.8,255.3,245.8,252.8,244.3z"/>
	<path fill="#3C9D47" d="M252.8,244.3c-0.4-0.2-0.7-0.4-1.1-0.7c-0.1-0.1-0.2-0.1-0.2-0.2c-0.1-0.1-0.1-0.1-0.2-0.2
		c-0.1-0.1-0.2-0.2-0.3-0.2c-0.1-0.1-0.3-0.2-0.4-0.3c0,0,0,0,0,0c-0.1-0.1-0.2-0.1-0.2-0.2c-0.1-0.1-0.2-0.1-0.2-0.2
		c-0.1-0.1-0.2-0.2-0.4-0.3c0.2-7.9,6.8-10,9.4-16.7l7.6-7.6c1.8,2.9,2.8,6.5,2.8,10.4c0,7.1-3.5,13.3-8.6,16.2
		C258.3,245.8,255.3,245.8,252.8,244.3z"/>
	<circle fill="#69A443" cx="263.5" cy="228.9" r="5.5"/>
	<circle fill="#F7F8F8" cx="263.5" cy="228.9" r="4.7"/>
	<circle fill="#1A1A1A" cx="263.5" cy="228.9" r="1.7"/>
</g>
<g>
	<polygon fill="#F7F8F8" points="27.3,309 22.5,306.9 25.7,310.6 	"/>
	<polygon fill="#F7F8F8" points="28.9,307.4 24.1,305.4 27.3,309 	"/>
	<polygon fill="#F7F8F8" points="25.7,310.6 20.9,308.5 24.1,312.2 	"/>
	<polygon fill="#F7F8F8" points="22.5,313.7 17.8,311.7 21,315.3 	"/>
	<polygon fill="#F7F8F8" points="24.1,312.2 19.4,310.1 22.6,313.8 	"/>
	<polygon fill="#F7F8F8" points="20.9,315.3 16.2,313.3 19.4,316.9 	"/>
	<polygon fill="#F7F8F8" points="15,314.4 17.4,308.8 13.1,312.6 	"/>
	<polygon fill="#F7F8F8" points="13.2,312.5 15.6,307 11.3,310.7 	"/>
	<polygon fill="#F7F8F8" points="9.5,308.8 11.9,303.3 7.6,307 	"/>
	<polygon fill="#F7F8F8" points="11.3,310.7 13.7,305.1 9.4,308.9 	"/>
	<polygon fill="#F7F8F8" points="7.6,307 10,301.4 5.7,305.2 	"/>
	<polygon fill="#048F4A" points="15.2,337.5 27.4,320.3 37.8,327.7 23.9,343.7 	"/>
	<path fill="#048F4A" d="M15.7,343.2l6.9,6.8c0.2,0.2,0.5,0,0.4-0.2l-1.9-8.8H10.7l-0.4-0.2l0,0.1l0,0.1h0v0.2l-1.7,8.1
		c-0.1,0.4,0.4,0.6,0.7,0.4L15.7,343.2L15.7,343.2z"/>
	<path fill="#69A443" d="M11,341.4c-0.5-0.3-0.9-0.6-1.4-0.9c-0.1-0.1-0.2-0.1-0.3-0.2c-0.1-0.1-0.2-0.1-0.3-0.2
		c-0.1-0.1-0.3-0.2-0.4-0.3c-0.2-0.1-0.4-0.3-0.5-0.4c0,0,0,0,0,0c-0.1-0.1-0.2-0.2-0.3-0.3c-0.1-0.1-0.2-0.2-0.3-0.3
		c-0.2-0.1-0.3-0.3-0.5-0.4c-4.3-4.2-7-10.6-7-17.7c0-5.3,1.5-10.2,4.1-14.1c0.4-0.6,0.8-1.1,1.2-1.7c0.1-0.1,0.2-0.3,0.4-0.4
		c0.1-0.1,0.2-0.2,0.2-0.3l13,13l9.9-9.9c2.3,3.8,3.6,8.3,3.6,13.3c0,9.1-4.5,17-11,20.7C18.1,343.3,14.3,343.3,11,341.4z"/>
	<path fill="#3C9D47" d="M11,341.4c-0.5-0.3-0.9-0.6-1.4-0.9c-0.1-0.1-0.2-0.1-0.3-0.2c-0.1-0.1-0.2-0.1-0.3-0.2
		c-0.1-0.1-0.3-0.2-0.4-0.3c-0.2-0.1-0.4-0.3-0.5-0.4c0,0,0,0,0,0c-0.1-0.1-0.2-0.2-0.3-0.3c-0.1-0.1-0.2-0.2-0.3-0.3
		c-0.2-0.1-0.3-0.3-0.5-0.4c0.3-10.1,8.7-12.8,12.1-21.3l9.7-9.7c2.3,3.8,3.6,8.3,3.6,13.3c0,9.1-4.5,17-11,20.7
		C18.1,343.3,14.3,343.3,11,341.4z"/>
	<circle fill="#69A443" cx="24.7" cy="321.8" r="7.1"/>
	<circle fill="#F7F8F8" cx="24.7" cy="321.8" r="6"/>
	<circle fill="#1A1A1A" cx="24.7" cy="321.8" r="2.2"/>
</g>
<g>
	<polygon fill="#F7F8F8" points="28.5,218.9 24.7,217.3 27.2,220.2 	"/>
	<polygon fill="#F7F8F8" points="29.7,217.7 26,216.1 28.5,218.9 	"/>
	<polygon fill="#F7F8F8" points="27.2,220.2 23.5,218.6 26,221.4 	"/>
	<polygon fill="#F7F8F8" points="24.7,222.6 21,221 23.5,223.9 	"/>
	<polygon fill="#F7F8F8" points="26,221.4 22.3,219.8 24.8,222.7 	"/>
	<polygon fill="#F7F8F8" points="23.5,223.9 19.8,222.3 22.3,225.1 	"/>
	<polygon fill="#F7F8F8" points="18.9,223.1 20.7,218.8 17.4,221.7 	"/>
	<polygon fill="#F7F8F8" points="17.4,221.7 19.3,217.3 15.9,220.3 	"/>
	<polygon fill="#F7F8F8" points="14.5,218.8 16.4,214.5 13,217.4 	"/>
	<polygon fill="#F7F8F8" points="16,220.2 17.8,215.9 14.5,218.8 	"/>
	<polygon fill="#F7F8F8" points="13.1,217.3 14.9,213 11.6,215.9 	"/>
	<polygon fill="#048F4A" points="19,241.2 28.6,227.8 36.7,233.6 25.8,246.1 	"/>
	<path fill="#048F4A" d="M19.4,245.7l5.4,5.3c0.1,0.1,0.4,0,0.3-0.2l-1.5-6.9h-8.2l-0.3-0.1l0,0l0,0.1h0v0.1l-1.3,6.3
		c-0.1,0.3,0.3,0.5,0.5,0.3L19.4,245.7L19.4,245.7z"/>
	<path fill="#69A443" d="M15.8,244.3c-0.4-0.2-0.7-0.4-1.1-0.7c-0.1-0.1-0.2-0.1-0.2-0.2c-0.1-0.1-0.1-0.1-0.2-0.2
		c-0.1-0.1-0.2-0.2-0.3-0.2c-0.1-0.1-0.3-0.2-0.4-0.3c0,0,0,0,0,0c-0.1-0.1-0.2-0.1-0.2-0.2c-0.1-0.1-0.2-0.1-0.2-0.2
		c-0.1-0.1-0.2-0.2-0.4-0.3c-3.4-3.3-5.5-8.3-5.5-13.8c0-4.1,1.2-8,3.2-11c0.3-0.5,0.6-0.9,0.9-1.3c0.1-0.1,0.2-0.2,0.3-0.3
		c0.1-0.1,0.1-0.1,0.2-0.2l10.2,10.2l7.7-7.7c1.8,2.9,2.8,6.5,2.8,10.4c0,7.1-3.5,13.3-8.6,16.2C21.3,245.8,18.3,245.8,15.8,244.3z"
		/>
	<path fill="#3C9D47" d="M15.8,244.3c-0.4-0.2-0.7-0.4-1.1-0.7c-0.1-0.1-0.2-0.1-0.2-0.2c-0.1-0.1-0.1-0.1-0.2-0.2
		c-0.1-0.1-0.2-0.2-0.3-0.2c-0.1-0.1-0.3-0.2-0.4-0.3c0,0,0,0,0,0c-0.1-0.1-0.2-0.1-0.2-0.2c-0.1-0.1-0.2-0.1-0.2-0.2
		c-0.1-0.1-0.2-0.2-0.4-0.3c0.2-7.9,6.8-10,9.4-16.7l7.6-7.6c1.8,2.9,2.8,6.5,2.8,10.4c0,7.1-3.5,13.3-8.6,16.2
		C21.3,245.8,18.3,245.8,15.8,244.3z"/>
	<circle fill="#69A443" cx="26.5" cy="228.9" r="5.5"/>
	<circle fill="#F7F8F8" cx="26.5" cy="228.9" r="4.7"/>
	<circle fill="#1A1A1A" cx="26.5" cy="228.9" r="1.7"/>
</g>
<g>
	<polygon fill="#F7F8F8" points="142.3,309 137.5,306.9 140.7,310.6 	"/>
	<polygon fill="#F7F8F8" points="143.9,307.4 139.1,305.4 142.3,309 	"/>
	<polygon fill="#F7F8F8" points="140.7,310.6 135.9,308.5 139.1,312.2 	"/>
	<polygon fill="#F7F8F8" points="137.5,313.7 132.8,311.7 136,315.3 	"/>
	<polygon fill="#F7F8F8" points="139.1,312.2 134.4,310.1 137.6,313.8 	"/>
	<polygon fill="#F7F8F8" points="135.9,315.3 131.2,313.3 134.4,316.9 	"/>
	<polygon fill="#F7F8F8" points="130,314.4 132.4,308.8 128.1,312.6 	"/>
	<polygon fill="#F7F8F8" points="128.2,312.5 130.6,307 126.3,310.7 	"/>
	<polygon fill="#F7F8F8" points="124.5,308.8 126.9,303.3 122.6,307 	"/>
	<polygon fill="#F7F8F8" points="126.3,310.7 128.7,305.1 124.4,308.9 	"/>
	<polygon fill="#F7F8F8" points="122.6,307 125,301.4 120.7,305.2 	"/>
	<polygon fill="#048F4A" points="130.2,337.5 142.4,320.3 152.8,327.7 138.9,343.7 	"/>
	<path fill="#048F4A" d="M130.7,343.2l6.9,6.8c0.2,0.2,0.5,0,0.4-0.2l-1.9-8.8h-10.4l-0.4-0.2l0,0.1l0,0.1h0v0.2l-1.7,8.1
		c-0.1,0.4,0.4,0.6,0.7,0.4L130.7,343.2L130.7,343.2z"/>
	<path fill="#69A443" d="M126,341.4c-0.5-0.3-0.9-0.6-1.4-0.9c-0.1-0.1-0.2-0.1-0.3-0.2c-0.1-0.1-0.2-0.1-0.3-0.2
		c-0.1-0.1-0.3-0.2-0.4-0.3c-0.2-0.1-0.4-0.3-0.5-0.4c0,0,0,0,0,0c-0.1-0.1-0.2-0.2-0.3-0.3c-0.1-0.1-0.2-0.2-0.3-0.3
		c-0.2-0.1-0.3-0.3-0.5-0.4c-4.3-4.2-7-10.6-7-17.7c0-5.3,1.5-10.2,4.1-14.1c0.4-0.6,0.8-1.1,1.2-1.7c0.1-0.1,0.2-0.3,0.4-0.4
		c0.1-0.1,0.2-0.2,0.2-0.3l13,13l9.9-9.9c2.3,3.8,3.6,8.3,3.6,13.3c0,9.1-4.5,17-11,20.7C133.1,343.3,129.3,343.3,126,341.4z"/>
	<path fill="#3C9D47" d="M126,341.4c-0.5-0.3-0.9-0.6-1.4-0.9c-0.1-0.1-0.2-0.1-0.3-0.2c-0.1-0.1-0.2-0.1-0.3-0.2
		c-0.1-0.1-0.3-0.2-0.4-0.3c-0.2-0.1-0.4-0.3-0.5-0.4c0,0,0,0,0,0c-0.1-0.1-0.2-0.2-0.3-0.3c-0.1-0.1-0.2-0.2-0.3-0.3
		c-0.2-0.1-0.3-0.3-0.5-0.4c0.3-10.1,8.7-12.8,12.1-21.3l9.7-9.7c2.3,3.8,3.6,8.3,3.6,13.3c0,9.1-4.5,17-11,20.7
		C133.1,343.3,129.3,343.3,126,341.4z"/>
	<circle fill="#69A443" cx="139.7" cy="321.8" r="7.1"/>
	<circle fill="#F7F8F8" cx="139.7" cy="321.8" r="6"/>
	<circle fill="#1A1A1A" cx="139.7" cy="321.8" r="2.2"/>
</g>
<g>
	<polygon fill="#F7F8F8" points="143.5,218.9 139.7,217.3 142.2,220.2 	"/>
	<polygon fill="#F7F8F8" points="144.7,217.7 141,216.1 143.5,218.9 	"/>
	<polygon fill="#F7F8F8" points="142.2,220.2 138.5,218.6 141,221.4 	"/>
	<polygon fill="#F7F8F8" points="139.7,222.6 136,221 138.5,223.9 	"/>
	<polygon fill="#F7F8F8" points="141,221.4 137.3,219.8 139.8,222.7 	"/>
	<polygon fill="#F7F8F8" points="138.5,223.9 134.8,222.3 137.3,225.1 	"/>
	<polygon fill="#F7F8F8" points="133.9,223.1 135.7,218.8 132.4,221.7 	"/>
	<polygon fill="#F7F8F8" points="132.4,221.7 134.3,217.3 130.9,220.3 	"/>
	<polygon fill="#F7F8F8" points="129.5,218.8 131.4,214.5 128,217.4 	"/>
	<polygon fill="#F7F8F8" points="131,220.2 132.8,215.9 129.5,218.8 	"/>
	<polygon fill="#F7F8F8" points="128.1,217.3 129.9,213 126.6,215.9 	"/>
	<polygon fill="#048F4A" points="134,241.2 143.6,227.8 151.7,233.6 140.8,246.1 	"/>
	<path fill="#048F4A" d="M134.4,245.7l5.4,5.3c0.1,0.1,0.4,0,0.3-0.2l-1.5-6.9h-8.2l-0.3-0.1l0,0l0,0.1h0v0.1l-1.3,6.3
		c-0.1,0.3,0.3,0.5,0.5,0.3L134.4,245.7L134.4,245.7z"/>
	<path fill="#69A443" d="M130.8,244.3c-0.4-0.2-0.7-0.4-1.1-0.7c-0.1-0.1-0.2-0.1-0.2-0.2c-0.1-0.1-0.1-0.1-0.2-0.2
		c-0.1-0.1-0.2-0.2-0.3-0.2c-0.1-0.1-0.3-0.2-0.4-0.3c0,0,0,0,0,0c-0.1-0.1-0.2-0.1-0.2-0.2c-0.1-0.1-0.2-0.1-0.2-0.2
		c-0.1-0.1-0.2-0.2-0.4-0.3c-3.4-3.3-5.5-8.3-5.5-13.8c0-4.1,1.2-8,3.2-11c0.3-0.5,0.6-0.9,0.9-1.3c0.1-0.1,0.2-0.2,0.3-0.3
		c0.1-0.1,0.1-0.1,0.2-0.2l10.2,10.2l7.7-7.7c1.8,2.9,2.8,6.5,2.8,10.4c0,7.1-3.5,13.3-8.6,16.2
		C136.3,245.8,133.3,245.8,130.8,244.3z"/>
	<path fill="#3C9D47" d="M130.8,244.3c-0.4-0.2-0.7-0.4-1.1-0.7c-0.1-0.1-0.2-0.1-0.2-0.2c-0.1-0.1-0.1-0.1-0.2-0.2
		c-0.1-0.1-0.2-0.2-0.3-0.2c-0.1-0.1-0.3-0.2-0.4-0.3c0,0,0,0,0,0c-0.1-0.1-0.2-0.1-0.2-0.2c-0.1-0.1-0.2-0.1-0.2-0.2
		c-0.1-0.1-0.2-0.2-0.4-0.3c0.2-7.9,6.8-10,9.4-16.7l7.6-7.6c1.8,2.9,2.8,6.5,2.8,10.4c0,7.1-3.5,13.3-8.6,16.2
		C136.3,245.8,133.3,245.8,130.8,244.3z"/>
	<circle fill="#69A443" cx="141.5" cy="228.9" r="5.5"/>
	<circle fill="#F7F8F8" cx="141.5" cy="228.9" r="4.7"/>
	<circle fill="#1A1A1A" cx="141.5" cy="228.9" r="1.7"/>
</g>
</svg>
