<?xml version="1.0" encoding="utf-8"?>
<!-- Generator: Adobe Illustrator 18.0.0, SVG Export Plug-In . SVG Version: 6.00 Build 0)  -->
<!DOCTYPE svg PUBLIC "-//W3C//DTD SVG 1.1//EN" "http://www.w3.org/Graphics/SVG/1.1/DTD/svg11.dtd">
<svg version="1.1" id="Layer_1" xmlns="http://www.w3.org/2000/svg" xmlns:xlink="http://www.w3.org/1999/xlink" x="0px" y="0px"
	 viewBox="0 0 163.6 496.6" enable-background="new 0 0 163.6 496.6" xml:space="preserve" width="163.6" height="496.6">
<g>
	<path fill="#CCD5E1" d="M48.5,346H0.1V222c0-3,2.5-5.5,5.5-5.5H43c3,0,5.5,2.5,5.5,5.5V346z"/>
	<rect x="3.2" y="271.4" fill="#56A653" width="42.1" height="75.2"/>
	<polygon fill="#74B251" points="44.8,271.4 44.8,346.9 3.2,346.9 	"/>
	<path fill="#CCD5E1" d="M26.3,335.4h-4.1c-7.1,0-12.9-5.8-12.9-12.9v-20.1c0-7.1,5.8-12.9,12.9-12.9h4.1c7.1,0,12.9,5.8,12.9,12.9
		v20.1C39.2,329.6,33.4,335.4,26.3,335.4z"/>
	<path fill="#0496C2" d="M26.6,333.3H22c-6,0-10.8-4.8-10.8-10.8v-20c0-6,4.8-10.8,10.8-10.8h4.5c6,0,10.8,4.8,10.8,10.8v20
		C37.4,328.4,32.5,333.3,26.6,333.3z"/>
	<path fill="#A7BCD1" d="M44.8,220.9v56.9c-7-2.6-13.5-4.1-20.9-4.1c-7.5,0-14.1,1.5-21.1,4.2v-57H44.8z"/>
	<path fill="#CCD5E1" d="M0,346l17.7,24.4c3.2,4.5,9.9,4.5,13.2,0L48.6,346H0z"/>
	<polygon fill="#A7BCD1" points="11.8,348.9 11.8,357 5.5,348.9 	"/>
	<rect x="12.8" y="348.9" fill="#A7BCD1" width="6" height="8"/>
	<rect x="20.8" y="348.9" fill="#A7BCD1" width="6" height="8"/>
	<rect x="28.8" y="348.9" fill="#A7BCD1" width="6" height="8"/>
	<polygon fill="#A7BCD1" points="43.1,348.9 36.8,357 36.8,348.9 	"/>
	<rect x="41.4" y="294.1" fill="#CCD5E1" width="3.5" height="2.4"/>
	<rect x="41.4" y="298.1" fill="#CCD5E1" width="3.5" height="2.4"/>
	<rect x="41.4" y="302.1" fill="#CCD5E1" width="3.5" height="2.4"/>
	<rect x="41.4" y="306.1" fill="#CCD5E1" width="3.5" height="2.4"/>
	<rect x="41.4" y="310.1" fill="#CCD5E1" width="3.5" height="2.4"/>
	<rect x="41.4" y="314.1" fill="#CCD5E1" width="3.5" height="2.4"/>
	<rect x="41.4" y="318.1" fill="#CCD5E1" width="3.5" height="2.4"/>
	<rect x="41.4" y="322.1" fill="#CCD5E1" width="3.5" height="2.4"/>
	<rect x="41.4" y="326.1" fill="#CCD5E1" width="3.5" height="2.4"/>
	<rect x="41.4" y="330.1" fill="#CCD5E1" width="3.5" height="2.4"/>
	<rect x="4.4" y="294.1" fill="#CCD5E1" width="3.5" height="2.4"/>
	<rect x="4.4" y="298.1" fill="#CCD5E1" width="3.5" height="2.4"/>
	<rect x="4.4" y="302.1" fill="#CCD5E1" width="3.5" height="2.4"/>
	<rect x="4.4" y="306.1" fill="#CCD5E1" width="3.5" height="2.4"/>
	<rect x="4.4" y="310.1" fill="#CCD5E1" width="3.5" height="2.4"/>
	<rect x="4.4" y="314.1" fill="#CCD5E1" width="3.5" height="2.4"/>
	<rect x="4.4" y="318.1" fill="#CCD5E1" width="3.5" height="2.4"/>
	<rect x="4.4" y="322.1" fill="#CCD5E1" width="3.5" height="2.4"/>
	<rect x="4.4" y="326.1" fill="#CCD5E1" width="3.5" height="2.4"/>
	<rect x="4.4" y="330.1" fill="#CCD5E1" width="3.5" height="2.4"/>
	<path fill="#56A653" d="M24.3,371.1c-1.7,0-3.3-1.3-4.3-2.6l-4.4-6.5H33l-4.4,6.5C27.6,369.8,26,371.1,24.3,371.1z"/>
	<circle fill="#068FBE" cx="24.2" cy="368.1" r="1.4"/>
</g>
<g>
	<path fill="#CCD5E1" d="M48.5,167H0.1l0-124c0-3,2.5-5.5,5.5-5.5H43c3,0,5.5,2.5,5.5,5.5V167z"/>
	<rect x="3.2" y="92.4" fill="#56A653" width="42.1" height="75.2"/>
	<polygon fill="#74B251" points="44.8,92.4 44.8,167.9 3.2,167.9 	"/>
	<path fill="#CCD5E1" d="M26.3,156.4h-4.1c-7.1,0-12.9-5.8-12.9-12.9v-20.1c0-7.1,5.8-12.9,12.9-12.9h4.1c7.1,0,12.9,5.8,12.9,12.9
		v20.1C39.2,150.6,33.4,156.4,26.3,156.4z"/>
	<path fill="#0496C2" d="M26.6,154.3H22c-6,0-10.8-4.8-10.8-10.8v-20c0-6,4.8-10.8,10.8-10.8h4.5c6,0,10.8,4.8,10.8,10.8v20
		C37.4,149.4,32.5,154.3,26.6,154.3z"/>
	<path fill="#A7BCD1" d="M44.8,41.9v56.9c-7-2.6-13.5-4.1-20.9-4.1c-7.5,0-14.1,1.5-21.1,4.2v-57H44.8z"/>
	<path fill="#CCD5E1" d="M0,167l17.7,24.4c3.2,4.5,9.9,4.5,13.2,0L48.6,167H0z"/>
	<polygon fill="#A7BCD1" points="11.8,169.9 11.8,178 5.5,169.9 	"/>
	<rect x="12.8" y="169.9" fill="#A7BCD1" width="6" height="8"/>
	<rect x="20.8" y="169.9" fill="#A7BCD1" width="6" height="8"/>
	<rect x="28.8" y="169.9" fill="#A7BCD1" width="6" height="8"/>
	<polygon fill="#A7BCD1" points="43.1,169.9 36.8,178 36.8,169.9 	"/>
	<rect x="41.4" y="115.1" fill="#CCD5E1" width="3.5" height="2.4"/>
	<rect x="41.4" y="119.1" fill="#CCD5E1" width="3.5" height="2.4"/>
	<rect x="41.4" y="123.1" fill="#CCD5E1" width="3.5" height="2.4"/>
	<rect x="41.4" y="127.1" fill="#CCD5E1" width="3.5" height="2.4"/>
	<rect x="41.4" y="131.1" fill="#CCD5E1" width="3.5" height="2.4"/>
	<rect x="41.4" y="135.1" fill="#CCD5E1" width="3.5" height="2.4"/>
	<rect x="41.4" y="139.1" fill="#CCD5E1" width="3.5" height="2.4"/>
	<rect x="41.4" y="143.1" fill="#CCD5E1" width="3.5" height="2.4"/>
	<rect x="41.4" y="147.1" fill="#CCD5E1" width="3.5" height="2.4"/>
	<rect x="41.4" y="151.1" fill="#CCD5E1" width="3.5" height="2.4"/>
	<rect x="4.4" y="115.1" fill="#CCD5E1" width="3.5" height="2.4"/>
	<rect x="4.4" y="119.1" fill="#CCD5E1" width="3.5" height="2.4"/>
	<rect x="4.4" y="123.1" fill="#CCD5E1" width="3.5" height="2.4"/>
	<rect x="4.4" y="127.1" fill="#CCD5E1" width="3.5" height="2.4"/>
	<rect x="4.4" y="131.1" fill="#CCD5E1" width="3.5" height="2.4"/>
	<rect x="4.4" y="135.1" fill="#CCD5E1" width="3.5" height="2.4"/>
	<rect x="4.4" y="139.1" fill="#CCD5E1" width="3.5" height="2.4"/>
	<rect x="4.4" y="143.1" fill="#CCD5E1" width="3.5" height="2.4"/>
	<rect x="4.4" y="147.1" fill="#CCD5E1" width="3.5" height="2.4"/>
	<rect x="4.4" y="151.1" fill="#CCD5E1" width="3.5" height="2.4"/>
	<path fill="#56A653" d="M24.3,192.1c-1.7,0-3.3-1.3-4.3-2.6l-4.4-6.5H33l-4.4,6.5C27.6,190.8,26,192.1,24.3,192.1z"/>
	<circle fill="#068FBE" cx="24.2" cy="189.1" r="1.4"/>
</g>
<g>
	<path fill="#CCD5E1" d="M163.5,346h-48.4V222c0-3,2.5-5.5,5.5-5.5H158c3,0,5.5,2.5,5.5,5.5V346z"/>
	<rect x="118.2" y="271.4" fill="#56A653" width="42.1" height="75.2"/>
	<polygon fill="#74B251" points="159.8,271.4 159.8,346.9 118.2,346.9 	"/>
	<path fill="#CCD5E1" d="M141.3,335.4h-4.1c-7.1,0-12.9-5.8-12.9-12.9v-20.1c0-7.1,5.8-12.9,12.9-12.9h4.1c7.1,0,12.9,5.8,12.9,12.9
		v20.1C154.2,329.6,148.4,335.4,141.3,335.4z"/>
	<path fill="#0496C2" d="M141.6,333.3H137c-6,0-10.8-4.8-10.8-10.8v-20c0-6,4.8-10.8,10.8-10.8h4.5c6,0,10.8,4.8,10.8,10.8v20
		C152.4,328.4,147.5,333.3,141.6,333.3z"/>
	<path fill="#A7BCD1" d="M159.8,220.9v56.9c-7-2.6-13.5-4.1-20.9-4.1c-7.5,0-14.1,1.5-21.1,4.2v-57H159.8z"/>
	<path fill="#CCD5E1" d="M115,346l17.7,24.4c3.2,4.5,9.9,4.5,13.2,0l17.7-24.4H115z"/>
	<polygon fill="#A7BCD1" points="126.8,348.9 126.8,357 120.5,348.9 	"/>
	<rect x="127.8" y="348.9" fill="#A7BCD1" width="6" height="8"/>
	<rect x="135.8" y="348.9" fill="#A7BCD1" width="6" height="8"/>
	<rect x="143.8" y="348.9" fill="#A7BCD1" width="6" height="8"/>
	<polygon fill="#A7BCD1" points="158.1,348.9 151.8,357 151.8,348.9 	"/>
	<rect x="156.4" y="294.1" fill="#CCD5E1" width="3.5" height="2.4"/>
	<rect x="156.4" y="298.1" fill="#CCD5E1" width="3.5" height="2.4"/>
	<rect x="156.4" y="302.1" fill="#CCD5E1" width="3.5" height="2.4"/>
	<rect x="156.4" y="306.1" fill="#CCD5E1" width="3.5" height="2.4"/>
	<rect x="156.4" y="310.1" fill="#CCD5E1" width="3.5" height="2.4"/>
	<rect x="156.4" y="314.1" fill="#CCD5E1" width="3.5" height="2.4"/>
	<rect x="156.4" y="318.1" fill="#CCD5E1" width="3.5" height="2.4"/>
	<rect x="156.4" y="322.1" fill="#CCD5E1" width="3.5" height="2.4"/>
	<rect x="156.4" y="326.1" fill="#CCD5E1" width="3.5" height="2.4"/>
	<rect x="156.4" y="330.1" fill="#CCD5E1" width="3.5" height="2.4"/>
	<rect x="119.4" y="294.1" fill="#CCD5E1" width="3.5" height="2.4"/>
	<rect x="119.4" y="298.1" fill="#CCD5E1" width="3.5" height="2.4"/>
	<rect x="119.4" y="302.1" fill="#CCD5E1" width="3.5" height="2.4"/>
	<rect x="119.4" y="306.1" fill="#CCD5E1" width="3.5" height="2.4"/>
	<rect x="119.4" y="310.1" fill="#CCD5E1" width="3.5" height="2.4"/>
	<rect x="119.4" y="314.1" fill="#CCD5E1" width="3.5" height="2.4"/>
	<rect x="119.4" y="318.1" fill="#CCD5E1" width="3.5" height="2.4"/>
	<rect x="119.4" y="322.1" fill="#CCD5E1" width="3.5" height="2.4"/>
	<rect x="119.4" y="326.1" fill="#CCD5E1" width="3.5" height="2.4"/>
	<rect x="119.4" y="330.1" fill="#CCD5E1" width="3.5" height="2.4"/>
	<path fill="#56A653" d="M139.3,371.1c-1.7,0-3.3-1.3-4.3-2.6l-4.4-6.5H148l-4.4,6.5C142.6,369.8,141,371.1,139.3,371.1z"/>
	<circle fill="#068FBE" cx="139.2" cy="368.1" r="1.4"/>
</g>
<g>
	<path fill="#CCD5E1" d="M163.5,167h-48.4V43c0-3,2.5-5.5,5.5-5.5H158c3,0,5.5,2.5,5.5,5.5V167z"/>
	<rect x="118.2" y="92.4" fill="#56A653" width="42.1" height="75.2"/>
	<polygon fill="#74B251" points="159.8,92.4 159.8,167.9 118.2,167.9 	"/>
	<path fill="#CCD5E1" d="M141.3,156.4h-4.1c-7.1,0-12.9-5.8-12.9-12.9v-20.1c0-7.1,5.8-12.9,12.9-12.9h4.1c7.1,0,12.9,5.8,12.9,12.9
		v20.1C154.2,150.6,148.4,156.4,141.3,156.4z"/>
	<path fill="#0496C2" d="M141.6,154.3H137c-6,0-10.8-4.8-10.8-10.8v-20c0-6,4.8-10.8,10.8-10.8h4.5c6,0,10.8,4.8,10.8,10.8v20
		C152.4,149.4,147.5,154.3,141.6,154.3z"/>
	<path fill="#A7BCD1" d="M159.8,41.9v56.9c-7-2.6-13.5-4.1-20.9-4.1c-7.5,0-14.1,1.5-21.1,4.2v-57H159.8z"/>
	<path fill="#CCD5E1" d="M115,167l17.7,24.4c3.2,4.5,9.9,4.5,13.2,0l17.7-24.4H115z"/>
	<polygon fill="#A7BCD1" points="126.8,169.9 126.8,178 120.5,169.9 	"/>
	<rect x="127.8" y="169.9" fill="#A7BCD1" width="6" height="8"/>
	<rect x="135.8" y="169.9" fill="#A7BCD1" width="6" height="8"/>
	<rect x="143.8" y="169.9" fill="#A7BCD1" width="6" height="8"/>
	<polygon fill="#A7BCD1" points="158.1,169.9 151.8,178 151.8,169.9 	"/>
	<rect x="156.4" y="115.1" fill="#CCD5E1" width="3.5" height="2.4"/>
	<rect x="156.4" y="119.1" fill="#CCD5E1" width="3.5" height="2.4"/>
	<rect x="156.4" y="123.1" fill="#CCD5E1" width="3.5" height="2.4"/>
	<rect x="156.4" y="127.1" fill="#CCD5E1" width="3.5" height="2.4"/>
	<rect x="156.4" y="131.1" fill="#CCD5E1" width="3.5" height="2.4"/>
	<rect x="156.4" y="135.1" fill="#CCD5E1" width="3.5" height="2.4"/>
	<rect x="156.4" y="139.1" fill="#CCD5E1" width="3.5" height="2.4"/>
	<rect x="156.4" y="143.1" fill="#CCD5E1" width="3.5" height="2.4"/>
	<rect x="156.4" y="147.1" fill="#CCD5E1" width="3.5" height="2.4"/>
	<rect x="156.4" y="151.1" fill="#CCD5E1" width="3.5" height="2.4"/>
	<rect x="119.4" y="115.1" fill="#CCD5E1" width="3.5" height="2.4"/>
	<rect x="119.4" y="119.1" fill="#CCD5E1" width="3.5" height="2.4"/>
	<rect x="119.4" y="123.1" fill="#CCD5E1" width="3.5" height="2.4"/>
	<rect x="119.4" y="127.1" fill="#CCD5E1" width="3.5" height="2.4"/>
	<rect x="119.4" y="131.1" fill="#CCD5E1" width="3.5" height="2.4"/>
	<rect x="119.4" y="135.1" fill="#CCD5E1" width="3.5" height="2.4"/>
	<rect x="119.4" y="139.1" fill="#CCD5E1" width="3.5" height="2.4"/>
	<rect x="119.4" y="143.1" fill="#CCD5E1" width="3.5" height="2.4"/>
	<rect x="119.4" y="147.1" fill="#CCD5E1" width="3.5" height="2.4"/>
	<rect x="119.4" y="151.1" fill="#CCD5E1" width="3.5" height="2.4"/>
	<path fill="#56A653" d="M139.3,192.1c-1.7,0-3.3-1.3-4.3-2.6l-4.4-6.5H148l-4.4,6.5C142.6,190.8,141,192.1,139.3,192.1z"/>
	<circle fill="#068FBE" cx="139.2" cy="189.1" r="1.4"/>
</g>
<g>
	<rect x="64" y="0" fill="#F6F0ED" width="34.8" height="474"/>
	<rect x="67.6" y="0" fill="#B99075" width="27.6" height="474"/>
</g>
<rect x="2.3" y="472.4" fill="#B99075" width="158.3" height="24.2"/>
</svg>
