<?xml version="1.0" encoding="utf-8"?>
<!-- Generator: Adobe Illustrator 18.0.0, SVG Export Plug-In . SVG Version: 6.00 Build 0)  -->
<!DOCTYPE svg PUBLIC "-//W3C//DTD SVG 1.1//EN" "http://www.w3.org/Graphics/SVG/1.1/DTD/svg11.dtd">
<svg version="1.1" id="Layer_1" xmlns="http://www.w3.org/2000/svg" xmlns:xlink="http://www.w3.org/1999/xlink" x="0px" y="0px"
	 viewBox="0 0 56.7 46.8" enable-background="new 0 0 56.7 46.8" xml:space="preserve" width="56" height="46">
<g>
	<g>
		<path fill="#308357" d="M56.7,19.6C56.3,30,47.7,38.3,37.2,38.3c-10.5,0-19-8.3-19.4-18.7c0-0.3,0-0.5,0-0.8c0-8.2,5-15.2,12.2-18
			l1.7,1.7l6.2,6.2l5.9-5.9l1.6-1.6C52,4.2,56.7,11,56.7,18.9C56.7,19.1,56.7,19.4,56.7,19.6z"/>
		<path fill="#367C54" d="M56.7,18.9c0,0.3,0,0.5,0,0.8C56.3,30,47.7,38.3,37.2,38.3c-5.4,0-10.3-2.2-13.8-5.7L51,5.1
			C54.5,8.6,56.7,13.5,56.7,18.9z"/>
		<path fill="#A18F32" d="M31.6,0v2.5c-7,2.3-13.3,9.2-13.8,17.5c0-0.4,0-0.8,0-1.1C17.8,10.7,21.6,2.6,31.6,0z"/>
		<path fill="#673F18" d="M37.2,38.3c-10.4,0-18.8-8.1-19.4-18.3c0,0.4,0,0.8,0,1.1c0,10.7,8.7,19.5,19.5,19.5s19.5-8.7,19.5-19.5
			c0-0.4,0-0.8,0-1.1C56.1,30.2,47.6,38.3,37.2,38.3z"/>
		<path fill="#A18F32" d="M42.6,0v2.5c8,2.3,13.5,9.2,14,17.5c0-0.4,0-0.8,0-1.1C56.6,10.7,52.6,2.6,42.6,0z"/>
	</g>
	<g>
		<path fill="#308357" d="M18.5,36.8c-0.2,4.9-4.3,8.9-9.2,8.9c-5,0-9-3.9-9.2-8.9c0-0.1,0-0.2,0-0.4c0-3.9,2.4-7.2,5.8-8.6l0.8,0.8
			l2.9,2.9l2.8-2.8l0.8-0.8c3.2,1.5,5.4,4.7,5.4,8.4C18.5,36.5,18.5,36.7,18.5,36.8z"/>
		<path fill="#367C54" d="M18.5,36.4c0,0.1,0,0.2,0,0.4c-0.2,4.9-4.3,8.9-9.2,8.9c-2.6,0-4.9-1-6.6-2.7l13.1-13.1
			C17.5,31.5,18.5,33.9,18.5,36.4z"/>
		<path fill="#A18F32" d="M6.6,27.5v1.2C2.6,29.7,0.3,33,0,37c0-0.2,0-0.4,0-0.5C0,32.5,1.6,28.7,6.6,27.5z"/>
		<path fill="#673F18" d="M9.2,45.7c-4.9,0-8.9-3.8-9.2-8.7c0,0.2,0,0.4,0,0.5c0,5.1,4.1,9.2,9.2,9.2s9.2-4.1,9.2-9.2
			c0-0.2,0-0.4,0-0.5C18.2,41.8,14.2,45.7,9.2,45.7z"/>
		<path fill="#A18F32" d="M11.6,27.5v1.2c4,1.1,6.5,4.4,6.7,8.3c0-0.2-0.1-0.4-0.1-0.5C18.3,32.5,16.6,28.7,11.6,27.5z"/>
	</g>
	<g>
		<g>
			<g>
				<path fill="#EAD385" d="M7.1,17.5l-0.2-0.4c-0.4-0.8-0.1-1.8,0.7-2.2l6.1-3.3c0.8-0.4,1.8-0.1,2.2,0.7l0.2,0.4
					c0.4,0.8,0.1,1.8-0.7,2.2l-6.1,3.3C8.6,18.6,7.6,18.3,7.1,17.5z"/>
				<path fill="#FDFADF" d="M6.9,16l0.1-0.4c0.3-0.9,1.2-1.4,2-1.1l6.6,2c0.9,0.3,1.4,1.2,1.1,2l-0.1,0.4c-0.3,0.9-1.2,1.4-2,1.1
					L8,18C7.2,17.8,6.7,16.9,6.9,16z"/>
				<path fill="#EAD385" d="M7.8,14.8l0.4-0.2c0.8-0.4,1.8-0.1,2.2,0.7l3.3,6.1c0.4,0.8,0.1,1.8-0.7,2.2l-0.4,0.2
					c-0.8,0.4-1.8,0.1-2.2-0.7L7.2,17C6.7,16.2,7,15.2,7.8,14.8z"/>
				<path fill="#FDFADF" d="M9.3,14.6l0.4,0.1c0.9,0.3,1.4,1.2,1.1,2l-2,6.6c-0.3,0.9-1.2,1.4-2,1.1l-0.4-0.1
					c-0.9-0.3-1.4-1.2-1.1-2l2-6.6C7.5,14.8,8.4,14.3,9.3,14.6z"/>
				<path fill="#EAD385" d="M10.5,15.5l0.2,0.4c0.4,0.8,0.1,1.8-0.7,2.2l-6.1,3.3c-0.8,0.4-1.8,0.1-2.2-0.7l-0.2-0.4
					c-0.4-0.8-0.1-1.8,0.7-2.2l6.1-3.3C9.1,14.4,10.1,14.7,10.5,15.5z"/>
				<path fill="#FDFADF" d="M10.7,17l-0.1,0.4c-0.3,0.9-1.2,1.4-2,1.1l-6.6-2c-0.9-0.3-1.4-1.2-1.1-2L0.9,14c0.3-0.9,1.2-1.4,2-1.1
					l6.6,2C10.5,15.2,11,16.1,10.7,17z"/>
				<path fill="#EAD385" d="M9.8,18.1l-0.4,0.2c-0.8,0.4-1.8,0.1-2.2-0.7l-3.3-6.1c-0.4-0.8-0.1-1.8,0.7-2.2L5,9.2
					C5.8,8.7,6.8,9,7.2,9.8l3.3,6.1C10.9,16.7,10.6,17.7,9.8,18.1z"/>
				<path fill="#FDFADF" d="M8.3,18.4l-0.4-0.1C7,18,6.5,17,6.8,16.2l2-6.6c0.3-0.9,1.2-1.4,2-1.1l0.4,0.1c0.9,0.3,1.4,1.2,1.1,2
					l-2,6.6C10.1,18.1,9.2,18.6,8.3,18.4z"/>
			</g>
			<path fill="#EADDA1" d="M8.7,18.2L8.7,18.2c-0.9,0-1.6-0.7-1.6-1.6v-5.7C7,10,7.8,9.2,8.7,9.2h0c0.9,0,1.6,0.7,1.6,1.6v5.7
				C10.3,17.4,9.6,18.2,8.7,18.2z"/>
			<path fill="#FDFADF" d="M7.5,17.6L7.5,17.6c-0.6-0.6-0.6-1.7,0-2.3l4-4c0.6-0.6,1.7-0.6,2.3,0l0,0c0.6,0.6,0.6,1.7,0,2.3l-4,4
				C9.2,18.2,8.2,18.2,7.5,17.6z"/>
			<path fill="#EADDA1" d="M7.1,16.3L7.1,16.3c0-0.9,0.7-1.6,1.6-1.6h5.7c0.9,0,1.6,0.7,1.6,1.6v0c0,0.9-0.7,1.6-1.6,1.6H8.7
				C7.8,18,7.1,17.2,7.1,16.3z"/>
			<path fill="#FDFADF" d="M7.7,15.2L7.7,15.2c0.6-0.6,1.7-0.6,2.3,0l4,4c0.6,0.6,0.6,1.7,0,2.3l0,0c-0.6,0.6-1.7,0.6-2.3,0l-4-4
				C7.1,16.9,7.1,15.8,7.7,15.2z"/>
			<path fill="#EADDA1" d="M8.9,14.8L8.9,14.8c0.9,0,1.6,0.7,1.6,1.6v5.7c0,0.9-0.7,1.6-1.6,1.6h0c-0.9,0-1.6-0.7-1.6-1.6v-5.7
				C7.3,15.5,8,14.8,8.9,14.8z"/>
			<path fill="#FDFADF" d="M10.1,15.4L10.1,15.4c0.6,0.6,0.6,1.7,0,2.3l-4,4c-0.6,0.6-1.7,0.6-2.3,0l0,0c-0.6-0.6-0.6-1.7,0-2.3l4-4
				C8.4,14.7,9.5,14.7,10.1,15.4z"/>
			<path fill="#EADDA1" d="M10.5,16.6L10.5,16.6c0,0.9-0.7,1.6-1.6,1.6H3.2c-0.9,0-1.6-0.7-1.6-1.6v0c0-0.9,0.7-1.6,1.6-1.6h5.7
				C9.8,15,10.5,15.7,10.5,16.6z"/>
			<path fill="#FDFADF" d="M9.9,17.8L9.9,17.8c-0.6,0.6-1.7,0.6-2.3,0l-4-4c-0.6-0.6-0.6-1.7,0-2.3l0,0c0.6-0.6,1.7-0.6,2.3,0l4,4
				C10.6,16.1,10.6,17.1,9.9,17.8z"/>
		</g>
		<circle fill="#E7C680" cx="8.8" cy="16.6" r="1"/>
	</g>
</g>
</svg>
